<svg width="32" height="32" viewBox="0 0 32 32" fill="none" xmlns="http://www.w3.org/2000/svg">
<g clip-path="url(#clip0_395_312)">
<path d="M9.93174 30.4487C10.404 30.2066 10.8797 28.9557 11.1218 28.2227C11.831 26.2337 12.7265 23.7369 13.4662 21.6683C14.0621 19.7369 15.3232 17.6632 14.5361 15.7809C13.8945 14.2963 12.52 13.0217 11.4485 11.6539C9.94359 9.86804 8.29483 7.85873 6.83228 6.1558C5.49669 4.6577 4.674 4.67801 3.93257 6.72288C3.1522 8.86761 2.21441 11.5236 1.40527 13.7733C1.05317 14.7584 0.77048 15.5388 0.462396 16.4157C0.0561319 17.516 -0.155464 18.5976 0.133999 19.5185C0.413306 20.5511 1.28847 21.5481 2.0536 22.4605C2.78487 23.3323 3.70405 24.4343 4.49457 25.3789C5.13951 26.1491 5.7523 26.8837 6.36846 27.6167C7.23347 28.5257 8.85345 31.1275 9.91989 30.4589L9.93343 30.4504L9.93174 30.4487Z" fill="#CF222D"/>
<path d="M31.9452 14.7957C32.1534 15.2764 31.7387 16.5054 31.4628 17.2062C30.7467 19.1681 29.8445 21.6531 29.098 23.6996C28.3328 25.5447 27.9841 27.9214 26.1847 28.8439C24.7611 29.5566 22.9007 29.6548 21.2249 30.0069C18.9244 30.4081 16.37 30.8854 14.1542 31.2527C12.2024 31.5405 11.5033 31.0632 12.2346 29.0166C12.9913 26.9006 13.9528 24.2938 14.7551 22.0779C15.114 21.0944 15.3984 20.3056 15.7217 19.4321C16.1077 18.3386 16.6307 17.3839 17.4382 16.8693C18.3133 16.2616 19.6202 16.0618 20.7882 15.8553C21.8952 15.6607 23.2816 15.4118 24.4784 15.2002C26.1525 14.9057 28.1619 14.5367 29.7006 14.2811C30.6062 14.1236 31.7962 14.127 31.9435 14.7804L31.9486 14.794L31.9452 14.7957Z" fill="#CF222D"/>
<path d="M6.72526 3.9548C6.69817 4.47617 7.52425 5.48506 8.02869 6.04367C9.39475 7.63318 11.1214 9.64927 12.5467 11.3082C13.9195 12.7741 15.0892 14.8765 17.107 15.122C18.7168 15.2997 20.5129 14.7479 22.2395 14.499C24.5349 14.086 27.096 13.6594 29.2983 13.2447C31.2365 12.8452 31.7325 12.1596 30.3207 10.494C28.8616 8.77242 27.0368 6.66492 25.4997 4.8672C24.8142 4.06991 24.2691 3.43004 23.6563 2.72246C22.9064 1.83038 22.0753 1.11772 21.1358 0.914588C20.0981 0.64713 18.7947 0.907817 17.6199 1.11603C16.5078 1.31408 15.1129 1.55615 13.9111 1.76944C12.9039 1.94718 11.9407 2.11645 10.9792 2.28573C9.76039 2.58196 6.68971 2.6903 6.72695 3.93956V3.9548H6.72526Z" fill="#CF222D"/>
<path d="M16.1607 12.439C15.531 11.6924 15.7951 10.9493 16.7498 10.7767C17.7045 10.6057 18.9894 11.0712 19.6208 11.8177C20.2505 12.5642 19.9864 13.3073 19.0317 13.48C18.077 13.651 16.7921 13.1855 16.1607 12.439Z" fill="#0A0808"/>
<path d="M24.9445 11.0509C24.3148 10.3044 24.5789 9.56125 25.5336 9.38858C26.4883 9.21761 27.7731 9.68313 28.4045 10.4296C29.0342 11.1761 28.7702 11.9193 27.8155 12.0919C26.8607 12.2629 25.5759 11.7974 24.9445 11.0509Z" fill="#0A0808"/>
<path d="M9.9686 5.0771C9.33889 4.33059 9.60296 3.58747 10.5577 3.41481C11.5124 3.24384 12.7972 3.70935 13.4286 4.45586C14.0583 5.20237 13.7943 5.94549 12.8395 6.11816C11.8848 6.28913 10.6 5.82361 9.9686 5.0771Z" fill="#0A0808"/>
<path d="M18.7524 3.68903C18.1227 2.94252 18.3867 2.1994 19.3415 2.02674C20.2962 1.85577 21.581 2.32128 22.2124 3.06779C22.8421 3.8143 22.578 4.55742 21.6233 4.73009C20.6686 4.90106 19.3838 4.43554 18.7524 3.68903Z" fill="#0A0808"/>
<path d="M7.95794 26.7719C7.35531 26.0576 7.1251 24.7609 7.44503 23.8756C7.76496 22.9903 8.51148 22.8515 9.1141 23.5675C9.71673 24.2818 9.94694 25.5785 9.6287 26.4638C9.31046 27.3491 8.56226 27.4863 7.95963 26.7719H7.95794Z" fill="#0A0808"/>
<path d="M2.37981 19.9711C1.77719 19.2568 1.54697 17.9601 1.86691 17.0748C2.18684 16.1895 2.93335 16.0507 3.53597 16.7667C4.1386 17.4811 4.36882 18.7777 4.05058 19.663C3.73234 20.5484 2.98413 20.6855 2.38151 19.9711H2.37981Z" fill="#0A0808"/>
<path d="M11.1415 18.6821C10.5389 17.9677 10.3087 16.6711 10.6286 15.7857C10.9486 14.9004 11.6951 14.7616 12.2977 15.4777C12.9003 16.192 13.1305 17.4887 12.8123 18.374C12.4941 19.2593 11.7459 19.3964 11.1432 18.6821H11.1415Z" fill="#0A0808"/>
<path d="M5.56146 11.8813C4.95883 11.1669 4.72861 9.87027 5.04855 8.98496C5.36848 8.09964 6.11499 7.96083 6.71762 8.67687C7.32024 9.39122 7.55046 10.6879 7.23222 11.5732C6.91398 12.4585 6.16577 12.5956 5.56315 11.8813H5.56146Z" fill="#0A0808"/>
<path d="M7.11419 19.3657C6.51156 18.6513 6.28135 17.3546 6.60128 16.4693C6.92121 15.584 7.66773 15.4452 8.27035 16.1612C8.87298 16.8756 9.10319 18.1723 8.78495 19.0576C8.46671 19.9429 7.71851 20.08 7.11588 19.3657H7.11419Z" fill="#0A0808"/>
<path d="M19.1644 21.0022C18.2334 21.1698 17.7408 20.579 18.0641 19.6836C18.3874 18.7881 19.4048 17.9265 20.3358 17.7589C21.2668 17.5913 21.7594 18.1821 21.4378 19.0776C21.1145 19.973 20.0971 20.8346 19.1661 21.0022H19.1644Z" fill="#0A0808"/>
<path d="M26.9886 19.6897C26.0576 19.8573 25.565 19.2665 25.8883 18.3711C26.2116 17.4756 27.229 16.614 28.16 16.4464C29.091 16.2788 29.5836 16.8696 29.262 17.7651C28.9404 18.6605 27.9213 19.5221 26.9903 19.6897H26.9886Z" fill="#0A0808"/>
<path d="M17.8148 25.0022C16.8838 25.1698 16.3912 24.579 16.7145 23.6836C17.0378 22.7881 18.0552 21.9265 18.9862 21.7589C19.9172 21.5913 20.4098 22.1821 20.0882 23.0776C19.7649 23.973 18.7475 24.8346 17.8165 25.0022H17.8148Z" fill="#0A0808"/>
<path d="M25.637 23.6936C24.706 23.8612 24.2134 23.2704 24.5367 22.375C24.8601 21.4795 25.8774 20.6179 26.8084 20.4503C27.7395 20.2827 28.2321 20.8735 27.9104 21.769C27.5888 22.6644 26.5698 23.5261 25.6387 23.6936H25.637Z" fill="#0A0808"/>
<path d="M16.4535 29.0061C15.5224 29.1737 15.0298 28.5829 15.3532 27.6875C15.6765 26.792 16.6938 25.9304 17.6248 25.7628C18.5559 25.5952 19.0485 26.186 18.7268 27.0815C18.4035 27.9769 17.3862 28.8386 16.4551 29.0061H16.4535Z" fill="#0A0808"/>
<path d="M24.2738 27.6936C23.3427 27.8612 22.8501 27.2704 23.1735 26.375C23.4968 25.4795 24.5141 24.6179 25.4452 24.4503C26.3762 24.2827 26.8688 24.8735 26.5472 25.769C26.2255 26.6644 25.2065 27.5261 24.2755 27.6936H24.2738Z" fill="#0A0808"/>
</g>
<defs>
<clipPath id="clip0_395_312">
<rect width="32" height="32" fill="white"/>
</clipPath>
</defs>
</svg>
