<svg width="129" height="48" viewBox="0 0 129 48" fill="none" xmlns="http://www.w3.org/2000/svg">
<path d="M4.66 15.42C4.72667 15.4467 4.84 15.4667 5 15.48C5.16 15.4933 5.32667 15.5 5.5 15.5C6.07333 15.5 6.54 15.3333 6.9 15C7.26 14.6667 7.44 14.16 7.44 13.48C7.44 13.08 7.38 12.7467 7.26 12.48C7.15333 12.2 7 11.98 6.8 11.82C6.6 11.6467 6.36667 11.5267 6.1 11.46C5.83333 11.3933 5.55333 11.36 5.26 11.36C5.18 11.36 5.08667 11.36 4.98 11.36C4.87333 11.36 4.76667 11.3667 4.66 11.38V15.42ZM1.2 8.66C1.50667 8.62 1.97333 8.56667 2.6 8.5C3.24 8.42 4.04 8.38 5 8.38C5.70667 8.38 6.42 8.44667 7.14 8.58C7.86 8.71333 8.50667 8.96667 9.08 9.34C9.66667 9.7 10.14 10.2133 10.5 10.88C10.86 11.5467 11.04 12.4133 11.04 13.48C11.04 14.4267 10.8933 15.2133 10.6 15.84C10.32 16.4667 9.94 16.9667 9.46 17.34C8.99333 17.7133 8.45333 17.98 7.84 18.14C7.24 18.3 6.62 18.38 5.98 18.38C5.72667 18.38 5.46667 18.3733 5.2 18.36C4.94667 18.3333 4.76667 18.3067 4.66 18.28V22.94C4.31333 23.0067 4 23.0533 3.72 23.08C3.44 23.1067 3.18 23.12 2.94 23.12C2.47333 23.12 1.89333 23.06 1.2 22.94V8.66ZM12.8992 8.66C13.2592 8.60667 13.5859 8.56667 13.8792 8.54C14.1726 8.51333 14.4326 8.5 14.6592 8.5C14.8992 8.5 15.1659 8.51333 15.4592 8.54C15.7659 8.56667 16.0926 8.60667 16.4392 8.66V19.86H21.0592C21.1259 20.1933 21.1659 20.4867 21.1792 20.74C21.2059 20.98 21.2192 21.2 21.2192 21.4C21.2192 21.6267 21.2059 21.8667 21.1792 22.12C21.1659 22.36 21.1259 22.6533 21.0592 23H12.8992V8.66ZM25.0834 22.96C24.7768 23.0133 24.4968 23.0533 24.2434 23.08C23.9901 23.1067 23.7434 23.12 23.5034 23.12C23.2634 23.12 22.9834 23.1 22.6634 23.06C22.3568 23.0333 22.0101 22.9867 21.6234 22.92L26.1034 8.64C26.4501 8.6 26.7701 8.56667 27.0634 8.54C27.3701 8.51333 27.6768 8.5 27.9834 8.5C28.2368 8.5 28.5101 8.51333 28.8034 8.54C29.1101 8.56667 29.4568 8.6 29.8434 8.64L34.2634 22.94C33.5034 23.06 32.8368 23.12 32.2634 23.12C31.9968 23.12 31.7301 23.1067 31.4634 23.08C31.1968 23.0533 30.9101 23.0133 30.6034 22.96L29.8434 20.18C29.4701 20.2867 29.1101 20.3667 28.7634 20.42C28.4301 20.4733 28.0968 20.5 27.7634 20.5C27.4568 20.5 27.1434 20.48 26.8234 20.44C26.5034 20.3867 26.1701 20.3133 25.8234 20.22L25.0834 22.96ZM27.8834 12.4L26.5434 17.54C26.7701 17.6067 26.9834 17.66 27.1834 17.7C27.3834 17.74 27.5901 17.76 27.8034 17.76C28.0301 17.76 28.2501 17.7467 28.4634 17.72C28.6901 17.68 28.9234 17.6267 29.1634 17.56L27.8834 12.4ZM41.2186 8.66C41.5253 8.60667 41.8453 8.56667 42.1786 8.54C42.5119 8.51333 42.8519 8.5 43.1986 8.5C43.4253 8.5 43.7186 8.52 44.0786 8.56C44.4386 8.58667 44.7453 8.62 44.9986 8.66L40.5386 17.84V22.94C39.8319 23.06 39.2453 23.12 38.7786 23.12C38.2853 23.12 37.6919 23.06 36.9986 22.94V17.84C36.6519 17.12 36.2853 16.3733 35.8986 15.6C35.5253 14.8133 35.1453 14.0333 34.7586 13.26C34.3853 12.4733 34.0119 11.6933 33.6386 10.92C33.2653 10.1333 32.9053 9.38 32.5586 8.66C32.7853 8.62 33.0919 8.58667 33.4786 8.56C33.8653 8.52 34.2319 8.5 34.5786 8.5C34.8586 8.5 35.1653 8.52 35.4986 8.56C35.8453 8.58667 36.1453 8.62 36.3986 8.66L38.8586 14.22L41.2186 8.66Z" fill="white"/>
<g clip-path="url(#clip0_395_309)">
<path d="M58.9317 30.4487C59.404 30.2066 59.8797 28.9557 60.1218 28.2227C60.831 26.2337 61.7265 23.7369 62.4662 21.6683C63.0621 19.7369 64.3232 17.6632 63.5361 15.7809C62.8945 14.2963 61.52 13.0217 60.4485 11.6539C58.9436 9.86804 57.2948 7.85873 55.8323 6.1558C54.4967 4.6577 53.674 4.67801 52.9326 6.72288C52.1522 8.86761 51.2144 11.5236 50.4053 13.7733C50.0532 14.7584 49.7705 15.5388 49.4624 16.4157C49.0561 17.516 48.8445 18.5976 49.134 19.5185C49.4133 20.5511 50.2885 21.5481 51.0536 22.4605C51.7849 23.3323 52.704 24.4343 53.4946 25.3789C54.1395 26.1491 54.7523 26.8837 55.3685 27.6167C56.2335 28.5257 57.8534 31.1275 58.9199 30.4589L58.9334 30.4504L58.9317 30.4487Z" fill="#CF222D"/>
<path d="M80.9452 14.7957C81.1534 15.2764 80.7387 16.5054 80.4628 17.2062C79.7467 19.1681 78.8445 21.6531 78.098 23.6996C77.3328 25.5447 76.9841 27.9214 75.1847 28.8439C73.7611 29.5566 71.9007 29.6548 70.2249 30.0069C67.9244 30.4081 65.37 30.8854 63.1542 31.2527C61.2024 31.5405 60.5033 31.0632 61.2346 29.0166C61.9913 26.9006 62.9528 24.2938 63.7551 22.0779C64.114 21.0944 64.3984 20.3056 64.7217 19.4321C65.1077 18.3386 65.6307 17.3839 66.4382 16.8693C67.3133 16.2616 68.6202 16.0618 69.7882 15.8553C70.8952 15.6607 72.2816 15.4118 73.4784 15.2002C75.1525 14.9057 77.1619 14.5367 78.7006 14.2811C79.6062 14.1236 80.7962 14.127 80.9435 14.7804L80.9486 14.794L80.9452 14.7957Z" fill="#CF222D"/>
<path d="M55.7253 3.9548C55.6982 4.47617 56.5242 5.48506 57.0287 6.04367C58.3948 7.63318 60.1214 9.64927 61.5467 11.3082C62.9195 12.7741 64.0892 14.8765 66.107 15.122C67.7168 15.2997 69.5129 14.7479 71.2395 14.499C73.5349 14.086 76.096 13.6594 78.2983 13.2447C80.2365 12.8452 80.7325 12.1596 79.3207 10.494C77.8616 8.77242 76.0368 6.66492 74.4997 4.8672C73.8142 4.06991 73.2691 3.43004 72.6563 2.72246C71.9064 1.83038 71.0753 1.11772 70.1358 0.914588C69.0981 0.64713 67.7947 0.907817 66.6199 1.11603C65.5078 1.31408 64.1129 1.55615 62.9111 1.76944C61.9039 1.94718 60.9407 2.11645 59.9792 2.28573C58.7604 2.58196 55.6897 2.6903 55.727 3.93956V3.9548H55.7253Z" fill="#CF222D"/>
<path d="M65.1607 12.439C64.531 11.6924 64.7951 10.9493 65.7498 10.7767C66.7045 10.6057 67.9894 11.0712 68.6208 11.8177C69.2505 12.5642 68.9864 13.3073 68.0317 13.48C67.077 13.651 65.7921 13.1855 65.1607 12.439Z" fill="#0A0808"/>
<path d="M73.9445 11.0509C73.3148 10.3044 73.5789 9.56125 74.5336 9.38858C75.4883 9.21761 76.7731 9.68313 77.4045 10.4296C78.0342 11.1761 77.7702 11.9193 76.8155 12.0919C75.8607 12.2629 74.5759 11.7974 73.9445 11.0509Z" fill="#0A0808"/>
<path d="M58.9686 5.0771C58.3389 4.33059 58.603 3.58747 59.5577 3.41481C60.5124 3.24384 61.7972 3.70935 62.4286 4.45586C63.0583 5.20237 62.7943 5.94549 61.8395 6.11816C60.8848 6.28913 59.6 5.82361 58.9686 5.0771Z" fill="#0A0808"/>
<path d="M67.7524 3.68903C67.1227 2.94252 67.3867 2.1994 68.3415 2.02674C69.2962 1.85577 70.581 2.32128 71.2124 3.06779C71.8421 3.8143 71.578 4.55742 70.6233 4.73009C69.6686 4.90106 68.3838 4.43554 67.7524 3.68903Z" fill="#0A0808"/>
<path d="M56.9579 26.7719C56.3553 26.0576 56.1251 24.7609 56.445 23.8756C56.765 22.9903 57.5115 22.8515 58.1141 23.5675C58.7167 24.2818 58.9469 25.5785 58.6287 26.4638C58.3105 27.3491 57.5623 27.4863 56.9596 26.7719H56.9579Z" fill="#0A0808"/>
<path d="M51.3798 19.9711C50.7772 19.2568 50.547 17.9601 50.8669 17.0748C51.1868 16.1895 51.9333 16.0507 52.536 16.7667C53.1386 17.4811 53.3688 18.7777 53.0506 19.663C52.7323 20.5484 51.9841 20.6855 51.3815 19.9711H51.3798Z" fill="#0A0808"/>
<path d="M60.1415 18.6821C59.5389 17.9677 59.3087 16.6711 59.6286 15.7857C59.9486 14.9004 60.6951 14.7616 61.2977 15.4777C61.9003 16.192 62.1305 17.4887 61.8123 18.374C61.4941 19.2593 60.7459 19.3964 60.1432 18.6821H60.1415Z" fill="#0A0808"/>
<path d="M54.5615 11.8813C53.9588 11.1669 53.7286 9.87027 54.0485 8.98496C54.3685 8.09964 55.115 7.96083 55.7176 8.67687C56.3202 9.39122 56.5505 10.6879 56.2322 11.5732C55.914 12.4585 55.1658 12.5956 54.5631 11.8813H54.5615Z" fill="#0A0808"/>
<path d="M56.1142 19.3657C55.5116 18.6513 55.2813 17.3546 55.6013 16.4693C55.9212 15.584 56.6677 15.4452 57.2704 16.1612C57.873 16.8756 58.1032 18.1723 57.785 19.0576C57.4667 19.9429 56.7185 20.08 56.1159 19.3657H56.1142Z" fill="#0A0808"/>
<path d="M68.1644 21.0022C67.2334 21.1698 66.7408 20.579 67.0641 19.6836C67.3874 18.7881 68.4048 17.9265 69.3358 17.7589C70.2668 17.5913 70.7594 18.1821 70.4378 19.0776C70.1145 19.973 69.0971 20.8346 68.1661 21.0022H68.1644Z" fill="#0A0808"/>
<path d="M75.9886 19.6897C75.0576 19.8573 74.565 19.2665 74.8883 18.3711C75.2116 17.4756 76.229 16.614 77.16 16.4464C78.091 16.2788 78.5836 16.8696 78.262 17.7651C77.9404 18.6605 76.9213 19.5221 75.9903 19.6897H75.9886Z" fill="#0A0808"/>
<path d="M66.8148 25.0022C65.8838 25.1698 65.3912 24.579 65.7145 23.6836C66.0378 22.7881 67.0552 21.9265 67.9862 21.7589C68.9172 21.5913 69.4098 22.1821 69.0882 23.0776C68.7649 23.973 67.7475 24.8346 66.8165 25.0022H66.8148Z" fill="#0A0808"/>
<path d="M74.637 23.6936C73.706 23.8612 73.2134 23.2704 73.5367 22.375C73.8601 21.4795 74.8774 20.6179 75.8084 20.4503C76.7395 20.2827 77.2321 20.8735 76.9104 21.769C76.5888 22.6644 75.5698 23.5261 74.6387 23.6936H74.637Z" fill="#0A0808"/>
<path d="M65.4535 29.0061C64.5224 29.1737 64.0298 28.5829 64.3532 27.6875C64.6765 26.792 65.6938 25.9304 66.6248 25.7628C67.5559 25.5952 68.0485 26.186 67.7268 27.0815C67.4035 27.9769 66.3862 28.8386 65.4551 29.0061H65.4535Z" fill="#0A0808"/>
<path d="M73.2738 27.6936C72.3427 27.8612 71.8501 27.2704 72.1735 26.375C72.4968 25.4795 73.5141 24.6179 74.4452 24.4503C75.3762 24.2827 75.8688 24.8735 75.5472 25.769C75.2255 26.6644 74.2065 27.5261 73.2755 27.6936H73.2738Z" fill="#0A0808"/>
</g>
<path d="M88.56 22.96C88.2533 23.0133 87.9733 23.0533 87.72 23.08C87.4667 23.1067 87.22 23.12 86.98 23.12C86.74 23.12 86.46 23.1 86.14 23.06C85.8333 23.0333 85.4867 22.9867 85.1 22.92L89.58 8.64C89.9267 8.6 90.2467 8.56667 90.54 8.54C90.8467 8.51333 91.1533 8.5 91.46 8.5C91.7133 8.5 91.9867 8.51333 92.28 8.54C92.5867 8.56667 92.9333 8.6 93.32 8.64L97.74 22.94C96.98 23.06 96.3133 23.12 95.74 23.12C95.4733 23.12 95.2067 23.1067 94.94 23.08C94.6733 23.0533 94.3867 23.0133 94.08 22.96L93.32 20.18C92.9467 20.2867 92.5867 20.3667 92.24 20.42C91.9067 20.4733 91.5733 20.5 91.24 20.5C90.9333 20.5 90.62 20.48 90.3 20.44C89.98 20.3867 89.6467 20.3133 89.3 20.22L88.56 22.96ZM91.36 12.4L90.02 17.54C90.2467 17.6067 90.46 17.66 90.66 17.7C90.86 17.74 91.0667 17.76 91.28 17.76C91.5067 17.76 91.7267 17.7467 91.94 17.72C92.1667 17.68 92.4 17.6267 92.64 17.56L91.36 12.4ZM99.452 8.66C99.732 8.62 100.032 8.58667 100.352 8.56C100.685 8.52 100.992 8.5 101.272 8.5C101.539 8.5 101.825 8.52 102.132 8.56C102.452 8.58667 102.745 8.62 103.012 8.66L105.852 16.1L108.792 8.66C109.059 8.62 109.325 8.58667 109.592 8.56C109.872 8.52 110.145 8.5 110.412 8.5C110.692 8.5 110.979 8.52 111.272 8.56C111.565 8.58667 111.852 8.62 112.132 8.66L112.812 22.94C112.599 22.98 112.359 23.02 112.092 23.06C111.839 23.1 111.499 23.12 111.072 23.12C110.605 23.12 110.052 23.06 109.412 22.94L109.132 14.66L106.932 20.12C106.692 20.16 106.452 20.1933 106.212 20.22C105.972 20.2467 105.752 20.26 105.552 20.26C105.352 20.26 105.145 20.2533 104.932 20.24C104.719 20.2133 104.499 20.1733 104.272 20.12L102.312 14.74L102.092 22.94C101.532 23.06 100.999 23.12 100.492 23.12C100.025 23.12 99.4854 23.06 98.872 22.94L99.452 8.66ZM114.668 15.86C114.668 14.7933 114.788 13.8067 115.028 12.9C115.281 11.98 115.661 11.1867 116.168 10.52C116.688 9.85333 117.341 9.33333 118.128 8.96C118.928 8.57333 119.874 8.38 120.968 8.38C122.061 8.38 123.001 8.57333 123.788 8.96C124.574 9.33333 125.221 9.85333 125.728 10.52C126.248 11.1867 126.628 11.98 126.868 12.9C127.121 13.8067 127.248 14.7933 127.248 15.86C127.248 16.9267 127.121 17.9133 126.868 18.82C126.628 19.7133 126.248 20.4933 125.728 21.16C125.221 21.8133 124.574 22.3267 123.788 22.7C123.001 23.06 122.061 23.24 120.968 23.24C119.874 23.24 118.928 23.06 118.128 22.7C117.341 22.3267 116.688 21.8133 116.168 21.16C115.661 20.4933 115.281 19.7133 115.028 18.82C114.788 17.9133 114.668 16.9267 114.668 15.86ZM123.528 15.86C123.528 12.9533 122.681 11.5 120.988 11.5C119.254 11.5 118.388 12.9533 118.388 15.86C118.388 17.3133 118.594 18.4 119.008 19.12C119.434 19.8267 120.088 20.18 120.968 20.18C122.674 20.18 123.528 18.74 123.528 15.86Z" fill="white"/>
<path opacity="0.25" d="M34.1962 36.818C34.2896 36.7993 34.3829 36.7853 34.4762 36.776C34.5789 36.7667 34.6816 36.762 34.7842 36.762C34.8776 36.762 34.9756 36.7667 35.0782 36.776C35.1809 36.7853 35.2789 36.7993 35.3722 36.818C35.3816 36.8367 35.3909 36.8973 35.4002 37C35.4189 37.0933 35.4329 37.196 35.4422 37.308C35.4609 37.42 35.4749 37.5273 35.4842 37.63C35.5029 37.7327 35.5122 37.798 35.5122 37.826C35.6056 37.6767 35.7176 37.532 35.8482 37.392C35.9789 37.252 36.1329 37.126 36.3102 37.014C36.4969 36.902 36.7022 36.8133 36.9262 36.748C37.1596 36.6827 37.4162 36.65 37.6962 36.65C38.1162 36.65 38.5036 36.72 38.8582 36.86C39.2222 37 39.5302 37.2193 39.7822 37.518C40.0436 37.8073 40.2442 38.1807 40.3842 38.638C40.5336 39.086 40.6082 39.618 40.6082 40.234C40.6082 41.466 40.2722 42.432 39.6002 43.132C38.9376 43.8227 37.9949 44.168 36.7722 44.168C36.5669 44.168 36.3569 44.154 36.1422 44.126C35.9276 44.098 35.7409 44.0607 35.5822 44.014V47.304C35.4702 47.3227 35.3489 47.3367 35.2182 47.346C35.0969 47.3553 34.9849 47.36 34.8822 47.36C34.7796 47.36 34.6629 47.3553 34.5322 47.346C34.4109 47.3367 34.2989 47.3227 34.1962 47.304V36.818ZM35.5822 42.824C35.7596 42.8893 35.9416 42.936 36.1282 42.964C36.3149 42.992 36.5576 43.006 36.8562 43.006C37.1922 43.006 37.5002 42.9547 37.7802 42.852C38.0602 42.74 38.2982 42.572 38.4942 42.348C38.6996 42.124 38.8582 41.844 38.9702 41.508C39.0916 41.1627 39.1522 40.7567 39.1522 40.29C39.1522 39.5433 39.0122 38.9507 38.7322 38.512C38.4616 38.0733 38.0136 37.854 37.3882 37.854C37.1549 37.854 36.9309 37.896 36.7162 37.98C36.5016 38.064 36.3102 38.19 36.1422 38.358C35.9742 38.526 35.8389 38.7407 35.7362 39.002C35.6336 39.254 35.5822 39.5573 35.5822 39.912V42.824ZM47.662 40.626C47.522 40.6073 47.3447 40.5887 47.13 40.57C46.9154 40.5513 46.7334 40.542 46.584 40.542C46.0054 40.542 45.562 40.6493 45.254 40.864C44.9554 41.0787 44.806 41.4053 44.806 41.844C44.806 42.124 44.8574 42.3433 44.96 42.502C45.0627 42.6607 45.1887 42.782 45.338 42.866C45.4967 42.95 45.6694 43.0013 45.856 43.02C46.0427 43.0387 46.22 43.048 46.388 43.048C46.6027 43.048 46.822 43.0387 47.046 43.02C47.2794 42.992 47.4847 42.9547 47.662 42.908V40.626ZM47.662 39.268C47.662 38.7173 47.522 38.3347 47.242 38.12C46.962 37.9053 46.556 37.798 46.024 37.798C45.6974 37.798 45.3894 37.826 45.1 37.882C44.82 37.9287 44.5447 37.994 44.274 38.078C44.0967 37.77 44.008 37.4013 44.008 36.972C44.3254 36.8693 44.6754 36.79 45.058 36.734C45.4407 36.678 45.8094 36.65 46.164 36.65C47.0974 36.65 47.8067 36.8647 48.292 37.294C48.7774 37.714 49.02 38.3907 49.02 39.324V43.818C48.6934 43.8927 48.2967 43.9673 47.83 44.042C47.3634 44.126 46.8874 44.168 46.402 44.168C45.9447 44.168 45.5294 44.126 45.156 44.042C44.792 43.958 44.4794 43.8227 44.218 43.636C43.966 43.4493 43.77 43.2113 43.63 42.922C43.49 42.6327 43.42 42.2827 43.42 41.872C43.42 41.4707 43.4994 41.1207 43.658 40.822C43.826 40.514 44.05 40.262 44.33 40.066C44.61 39.8607 44.932 39.7113 45.296 39.618C45.66 39.5153 46.0427 39.464 46.444 39.464C46.7427 39.464 46.9854 39.4733 47.172 39.492C47.368 39.5013 47.5314 39.5153 47.662 39.534V39.268ZM52.5005 36.818C52.6031 36.7993 52.7011 36.7853 52.7945 36.776C52.8878 36.7667 52.9858 36.762 53.0885 36.762C53.1911 36.762 53.2938 36.7667 53.3965 36.776C53.4991 36.7853 53.5925 36.7993 53.6765 36.818C53.7045 36.958 53.7325 37.1447 53.7605 37.378C53.7885 37.602 53.8025 37.7933 53.8025 37.952C53.9985 37.6347 54.2551 37.3593 54.5725 37.126C54.8991 36.8927 55.3145 36.776 55.8185 36.776C55.8931 36.776 55.9678 36.7807 56.0425 36.79C56.1265 36.79 56.1965 36.7947 56.2525 36.804C56.2711 36.888 56.2851 36.9767 56.2945 37.07C56.3038 37.1633 56.3085 37.2613 56.3085 37.364C56.3085 37.476 56.2991 37.5927 56.2805 37.714C56.2711 37.8353 56.2571 37.952 56.2385 38.064C56.1638 38.0453 56.0845 38.036 56.0005 38.036C55.9258 38.036 55.8651 38.036 55.8185 38.036C55.5665 38.036 55.3238 38.0733 55.0905 38.148C54.8665 38.2133 54.6611 38.3347 54.4745 38.512C54.2971 38.6893 54.1525 38.932 54.0405 39.24C53.9378 39.548 53.8865 39.9447 53.8865 40.43V44C53.7838 44.0187 53.6671 44.0327 53.5365 44.042C53.4151 44.0513 53.3031 44.056 53.2005 44.056C53.0978 44.056 52.9811 44.0513 52.8505 44.042C52.7291 44.0327 52.6125 44.0187 52.5005 44V36.818ZM59.3755 37.924H58.2835L58.2275 37.728L60.6355 35.04H60.7475V36.818H62.5675C62.6048 36.9767 62.6235 37.154 62.6235 37.35C62.6235 37.4527 62.6188 37.5507 62.6095 37.644C62.6001 37.7373 62.5861 37.8307 62.5675 37.924H60.7475V41.2C60.7475 41.592 60.7615 41.9047 60.7895 42.138C60.8268 42.3713 60.8828 42.5533 60.9575 42.684C61.0415 42.8053 61.1488 42.8893 61.2795 42.936C61.4195 42.9733 61.5921 42.992 61.7975 42.992C61.9561 42.992 62.1055 42.9827 62.2455 42.964C62.3855 42.936 62.5115 42.908 62.6235 42.88C62.6888 43.0667 62.7261 43.258 62.7355 43.454C62.7541 43.65 62.7635 43.8227 62.7635 43.972C62.5768 44.0187 62.3808 44.0513 62.1755 44.07C61.9701 44.098 61.7508 44.112 61.5175 44.112C60.8455 44.112 60.3181 43.9487 59.9355 43.622C59.5621 43.2953 59.3755 42.754 59.3755 41.998V37.924ZM65.527 36.818C65.6297 36.7993 65.7277 36.7853 65.821 36.776C65.9237 36.7667 66.0264 36.762 66.129 36.762C66.2317 36.762 66.325 36.7667 66.409 36.776C66.5024 36.7853 66.6004 36.7993 66.703 36.818C66.731 36.958 66.759 37.1493 66.787 37.392C66.815 37.6253 66.829 37.8213 66.829 37.98C66.9224 37.8213 67.039 37.6627 67.179 37.504C67.3284 37.3453 67.4964 37.2053 67.683 37.084C67.8697 36.9533 68.0844 36.8507 68.327 36.776C68.5697 36.692 68.8357 36.65 69.125 36.65C69.9464 36.65 70.553 36.888 70.945 37.364C71.337 37.8307 71.533 38.526 71.533 39.45V44C71.4304 44.0187 71.3137 44.0327 71.183 44.042C71.0524 44.0513 70.9357 44.056 70.833 44.056C70.7304 44.056 70.6137 44.0513 70.483 44.042C70.3617 44.0327 70.2497 44.0187 70.147 44V39.828C70.147 39.1653 70.0444 38.68 69.839 38.372C69.6337 38.0547 69.307 37.896 68.859 37.896C68.5977 37.896 68.3504 37.9427 68.117 38.036C67.8837 38.1293 67.6784 38.274 67.501 38.47C67.3237 38.666 67.179 38.9227 67.067 39.24C66.9644 39.548 66.913 39.9213 66.913 40.36V44C66.8104 44.0187 66.6937 44.0327 66.563 44.042C66.4417 44.0513 66.3297 44.056 66.227 44.056C66.1244 44.056 66.0077 44.0513 65.877 44.042C65.7464 44.0327 65.6297 44.0187 65.527 44V36.818ZM76.0568 40.752C76.0754 41.536 76.2761 42.11 76.6588 42.474C77.0508 42.838 77.6248 43.02 78.3808 43.02C79.0434 43.02 79.6734 42.9033 80.2708 42.67C80.3454 42.81 80.4061 42.9827 80.4528 43.188C80.4994 43.384 80.5274 43.58 80.5368 43.776C80.2288 43.9067 79.8881 44.0047 79.5148 44.07C79.1508 44.1353 78.7448 44.168 78.2968 44.168C77.6434 44.168 77.0834 44.0793 76.6168 43.902C76.1501 43.7153 75.7628 43.4587 75.4548 43.132C75.1561 42.796 74.9368 42.404 74.7968 41.956C74.6568 41.4987 74.5868 40.9993 74.5868 40.458C74.5868 39.926 74.6521 39.4313 74.7828 38.974C74.9228 38.5073 75.1328 38.106 75.4128 37.77C75.6928 37.4247 76.0428 37.154 76.4628 36.958C76.8921 36.7527 77.3961 36.65 77.9748 36.65C78.4694 36.65 78.9034 36.734 79.2768 36.902C79.6501 37.07 79.9628 37.3033 80.2148 37.602C80.4668 37.8913 80.6581 38.2413 80.7888 38.652C80.9194 39.0533 80.9848 39.492 80.9848 39.968C80.9848 40.0987 80.9801 40.2387 80.9708 40.388C80.9614 40.528 80.9521 40.6493 80.9428 40.752H76.0568ZM79.6128 39.716C79.6128 39.4547 79.5754 39.2073 79.5008 38.974C79.4354 38.7313 79.3328 38.5213 79.1928 38.344C79.0621 38.1667 78.8894 38.0267 78.6748 37.924C78.4694 37.812 78.2221 37.756 77.9328 37.756C77.3634 37.756 76.9248 37.9287 76.6168 38.274C76.3181 38.6193 76.1361 39.1 76.0708 39.716H79.6128ZM84.2001 36.818C84.3027 36.7993 84.4007 36.7853 84.4941 36.776C84.5874 36.7667 84.6854 36.762 84.7881 36.762C84.8907 36.762 84.9934 36.7667 85.0961 36.776C85.1987 36.7853 85.2921 36.7993 85.3761 36.818C85.4041 36.958 85.4321 37.1447 85.4601 37.378C85.4881 37.602 85.5021 37.7933 85.5021 37.952C85.6981 37.6347 85.9547 37.3593 86.2721 37.126C86.5987 36.8927 87.0141 36.776 87.5181 36.776C87.5927 36.776 87.6674 36.7807 87.7421 36.79C87.8261 36.79 87.8961 36.7947 87.9521 36.804C87.9707 36.888 87.9847 36.9767 87.9941 37.07C88.0034 37.1633 88.0081 37.2613 88.0081 37.364C88.0081 37.476 87.9987 37.5927 87.9801 37.714C87.9707 37.8353 87.9567 37.952 87.9381 38.064C87.8634 38.0453 87.7841 38.036 87.7001 38.036C87.6254 38.036 87.5647 38.036 87.5181 38.036C87.2661 38.036 87.0234 38.0733 86.7901 38.148C86.5661 38.2133 86.3607 38.3347 86.1741 38.512C85.9967 38.6893 85.8521 38.932 85.7401 39.24C85.6374 39.548 85.5861 39.9447 85.5861 40.43V44C85.4834 44.0187 85.3667 44.0327 85.2361 44.042C85.1147 44.0513 85.0027 44.056 84.9001 44.056C84.7974 44.056 84.6807 44.0513 84.5501 44.042C84.4287 44.0327 84.3121 44.0187 84.2001 44V36.818ZM90.5327 42.698C90.7847 42.8007 91.06 42.8847 91.3587 42.95C91.6667 43.006 91.97 43.034 92.2687 43.034C92.4833 43.034 92.6887 43.0107 92.8847 42.964C93.0807 42.9173 93.2487 42.8473 93.3887 42.754C93.538 42.6607 93.6547 42.5487 93.7387 42.418C93.832 42.278 93.8787 42.124 93.8787 41.956C93.8787 41.7693 93.8413 41.6153 93.7667 41.494C93.7013 41.3727 93.608 41.27 93.4867 41.186C93.3747 41.102 93.2393 41.032 93.0807 40.976C92.9313 40.9107 92.768 40.85 92.5907 40.794L92.1007 40.612C91.5033 40.388 91.0693 40.136 90.7987 39.856C90.528 39.576 90.3927 39.198 90.3927 38.722C90.3927 38.0873 90.6167 37.5833 91.0647 37.21C91.522 36.8367 92.1893 36.65 93.0667 36.65C93.4307 36.65 93.7853 36.6873 94.1307 36.762C94.4853 36.8273 94.7933 36.9067 95.0547 37C95.036 37.1867 94.9987 37.3733 94.9427 37.56C94.896 37.7467 94.8353 37.9193 94.7607 38.078C94.5553 38.0033 94.308 37.9333 94.0187 37.868C93.7387 37.7933 93.4353 37.756 93.1087 37.756C92.7633 37.756 92.4553 37.8167 92.1847 37.938C91.9233 38.0593 91.7927 38.274 91.7927 38.582C91.7927 38.7407 91.8253 38.876 91.8907 38.988C91.956 39.1 92.0447 39.198 92.1567 39.282C92.2687 39.3567 92.3947 39.422 92.5347 39.478C92.684 39.534 92.8427 39.59 93.0107 39.646L93.6267 39.856C93.8507 39.9307 94.0607 40.0193 94.2567 40.122C94.462 40.2247 94.6347 40.3553 94.7747 40.514C94.924 40.6633 95.0407 40.85 95.1247 41.074C95.218 41.2887 95.2647 41.55 95.2647 41.858C95.2647 42.2033 95.1947 42.5207 95.0547 42.81C94.9147 43.09 94.714 43.3327 94.4527 43.538C94.2007 43.734 93.8927 43.888 93.5287 44C93.1647 44.112 92.7633 44.168 92.3247 44.168C91.8767 44.168 91.4847 44.1353 91.1487 44.07C90.8127 44.014 90.5 43.9347 90.2107 43.832C90.2293 43.6453 90.2667 43.4587 90.3227 43.272C90.388 43.076 90.458 42.8847 90.5327 42.698Z" fill="white"/>
<defs>
<clipPath id="clip0_395_309">
<rect width="32" height="32" fill="white" transform="translate(49)"/>
</clipPath>
</defs>
</svg>
