<svg width="212" height="95" viewBox="0 0 212 95" fill="none" xmlns="http://www.w3.org/2000/svg">
<rect x="0.199951" width="211.2" height="95" rx="16" fill="#0A0808"/>
<g clip-path="url(#clip0_396_1951)">
<g clip-path="url(#clip1_396_1951)">
<path d="M34.752 40.0191L36.5459 39.8161C38.4504 39.6316 40.3696 39.6657 42.2663 39.9176C43.1802 40.0868 43.9926 40.3915 44.7373 40.8654C45.4819 41.3392 46.0574 41.9824 46.5312 42.8286C46.9713 43.6748 47.2082 44.7579 47.2082 46.1119C47.2082 47.2966 47.039 48.312 46.6666 49.0906C46.3449 49.8088 45.8637 50.4442 45.2596 50.9486C44.6555 51.453 43.9444 51.8131 43.1802 52.0015C42.4017 52.2046 41.6232 52.3062 40.8108 52.3062L39.8292 52.2723C39.5904 52.2533 39.353 52.2194 39.1184 52.1708V58.0604L37.9337 58.2297L36.9521 58.2635C36.3767 58.2635 35.632 58.1958 34.752 58.0266V40.0191ZM39.1184 48.549L39.5584 48.6167L40.2016 48.6505C40.9124 48.6505 41.5217 48.4474 41.9617 48.0074C42.4017 47.6012 42.6387 46.9581 42.6387 46.078C42.6387 45.5703 42.571 45.1303 42.4356 44.7918C42.3002 44.4533 42.0971 44.1825 41.8263 43.9456C41.5751 43.7266 41.2722 43.5751 40.9462 43.5055C40.6077 43.404 40.2693 43.3702 39.8969 43.3702H39.5584L39.1523 43.404V48.549H39.1184ZM49.5438 40.0191L50.7962 39.8838L51.7778 39.8499L52.7932 39.8838L54.0118 40.0191V54.1678H59.8337L60.003 55.251L60.0368 56.0972L60.003 57.0111C59.9691 57.3158 59.9353 57.6881 59.8337 58.1281H49.5438V40.0191ZM64.9448 58.0943L63.8955 58.2297L62.9478 58.2635L61.8985 58.1958C61.4546 58.1562 61.0137 58.0884 60.5784 57.9927L66.2311 39.9515L67.4496 39.8161L68.6005 39.7822L69.6498 39.8161L70.936 39.9515L76.521 58.0266C75.6812 58.1635 74.833 58.2426 73.9824 58.2635L72.9669 58.2297L71.8838 58.0943L70.936 54.574C70.0758 54.8165 69.1892 54.9529 68.2959 54.9802L67.1111 54.8787C66.705 54.811 66.2988 54.7433 65.8588 54.6079L64.9448 58.0943ZM68.4651 44.7579L66.7727 51.2569L67.585 51.46C68.4245 51.5846 69.2814 51.5151 70.0898 51.2569L68.4651 44.7579ZM85.3217 40.0191C85.7253 39.9536 86.132 39.9084 86.5402 39.8838L87.8265 39.8499L88.9435 39.9176L90.0943 40.053L84.4754 51.663V58.0943C83 58.3818 81.4829 58.3818 80.0074 58.0943V51.663L78.6197 48.8198L77.1642 45.8749L75.7425 42.9301L74.3886 40.0868L75.5394 39.9515L76.9272 39.8838L78.1119 39.9515L79.2289 40.0868L82.343 47.1273L85.3217 40.0191ZM127.937 58.0943L126.888 58.2297L125.94 58.2635L124.891 58.1958C124.447 58.1562 124.006 58.0884 123.571 57.9927L129.223 39.9515L130.442 39.8161L131.593 39.7822L132.642 39.8161L133.928 39.9515L139.513 58.0266C138.673 58.1635 137.825 58.2426 136.975 58.2635L135.959 58.2297L134.876 58.0943L133.928 54.574C133.068 54.8165 132.181 54.9529 131.288 54.9802L130.103 54.8787C129.697 54.811 129.291 54.7433 128.851 54.6079L127.937 58.0943ZM131.491 44.7579L129.799 51.2569L130.611 51.46C131.45 51.5846 132.307 51.5151 133.116 51.2569L131.491 44.7579ZM141.713 40.0191L142.864 39.8838L144.015 39.8161L145.098 39.8838L146.181 40.0191L149.769 49.429L153.493 40.0191L154.508 39.8838L155.524 39.8161L156.607 39.8838L157.69 40.0191L158.536 58.0604L157.622 58.1958C157.284 58.2635 156.844 58.2635 156.336 58.2635C155.76 58.2635 155.05 58.1958 154.237 58.0266L153.899 47.5674L151.123 54.4725L150.209 54.6079L149.363 54.6417L148.585 54.6079L147.738 54.4725L145.267 47.6689L144.997 58.0266C143.659 58.3234 142.272 58.3234 140.935 58.0266L141.713 40.0191ZM160.939 49.1244C160.939 47.7705 161.109 46.5181 161.413 45.3672C161.674 44.3054 162.159 43.3119 162.837 42.4536C163.514 41.5952 164.368 40.8921 165.34 40.3915C166.355 39.9176 167.54 39.6807 168.928 39.6807C170.315 39.6807 171.5 39.9176 172.482 40.3915C173.452 40.8517 174.299 41.5363 174.953 42.3885C175.596 43.2348 176.07 44.2164 176.408 45.3672C177.057 47.8185 177.057 50.3964 176.408 52.8477C176.103 53.9986 175.63 54.9802 174.953 55.7926C174.311 56.6402 173.459 57.3053 172.482 57.7219C171.366 58.2235 170.151 58.4665 168.928 58.4328C167.54 58.4328 166.355 58.1958 165.34 57.7219C164.324 57.2481 163.512 56.6049 162.869 55.7926C162.211 54.9061 161.718 53.9087 161.413 52.8477C161.109 51.6969 160.939 50.4783 160.939 49.1244ZM172.143 49.1244C172.143 45.4688 171.06 43.6071 168.928 43.6071C166.727 43.6071 165.644 45.4349 165.644 49.1244C165.644 50.9522 165.915 52.34 166.457 53.2201C166.998 54.134 167.811 54.574 168.928 54.574C171.06 54.574 172.143 52.7462 172.143 49.1244Z" fill="white"/>
<path d="M120.93 43.4714L113.044 36.9725C111.148 35.8555 108.982 35.5847 107.086 35.1785L104.615 34.6369L101.84 34.1631L101.027 34.0615C103.464 36.1601 105.529 38.5634 107.729 40.5943L110.37 42.7267C112.773 44.1484 115.345 44.0807 117.647 44.3515L119.61 44.5884L122.521 44.8254C121.981 44.3854 121.451 43.934 120.93 43.4714ZM103.938 35.5847C104.886 34.8062 106.782 35.9232 107.222 36.9725C106.24 37.5818 104.852 36.634 103.938 35.5847ZM109.693 40.6281C110.674 39.985 112.739 41.2036 113.077 42.3206C112.13 42.9975 109.963 41.6774 109.693 40.6281ZM110.877 36.9048C111.487 36.2955 113.484 37.3448 113.788 38.3264C113.213 38.8342 111.385 37.9541 110.877 36.9048ZM116.428 41.779C117.342 40.9666 119.035 42.219 119.678 43.2345C118.696 43.9453 117.308 42.7944 116.428 41.779Z" fill="#CF222D"/>
<path fill-rule="evenodd" clip-rule="evenodd" d="M122.521 45.8749L118.933 45.3333L117.072 45.0964C115.514 44.9271 113.314 44.3856 112.163 44.7579C109.929 45.4687 108.948 48.0074 107.899 50.0383C106.646 52.4754 105.461 54.5401 104.108 57.1465C103.6 58.0942 102.415 60.0236 102.991 60.6667C103.464 61.2421 105.292 60.8359 105.766 60.8021L108.508 60.5652C109.963 60.4298 112.874 60.3621 113.991 59.8205C114.769 59.3893 115.449 58.8015 115.988 58.0942C116.293 57.7219 116.564 57.2819 116.835 56.8418L122.589 46.8904C122.724 46.4842 122.69 46.1457 122.521 45.8749ZM106.071 58.6019C104.92 57.5526 107.932 54.6078 109.016 56.4356C109.016 57.688 107.019 59.482 106.071 58.6019ZM108.339 54.574C107.188 53.5585 109.659 51.3245 110.674 51.7645C112.333 52.4754 109.557 55.6571 108.339 54.574ZM110.64 50.3429C109.523 49.3274 111.96 46.8565 113.111 47.3981C114.736 48.2104 111.859 51.4599 110.64 50.3429ZM113.01 58.0942C112.231 57.1803 114.465 55.2509 115.311 55.7248C116.496 56.3679 113.991 59.2112 113.01 58.0942ZM115.311 54.5401C114.262 53.7278 116.53 51.2568 117.613 51.9338C118.798 52.6785 116.191 55.2171 115.311 54.5401ZM117.579 50.5121C116.699 49.5982 118.865 47.3642 119.881 47.9058C121.167 48.6166 118.629 51.6291 117.579 50.5121Z" fill="#CF222D"/>
<path d="M104.649 38.7327C103.803 37.9204 102.889 36.8711 102.043 36.0248L100.655 34.9078L100.384 34.7725C99.0303 34.2647 98.4548 36.2618 97.9133 37.4465C97.1009 39.3082 95.8146 42.3207 94.9007 44.3177C94.3253 45.5701 93.6483 46.6533 93.4114 47.7364C93.0052 49.5981 94.0207 50.8505 95.3408 52.6445L98.9964 57.5864C99.3349 58.0264 100.249 59.7527 101.163 59.7188C102.144 59.685 102.923 57.6879 103.498 56.6725C104.92 54.0661 105.902 52.1367 107.222 49.632C107.797 48.5488 108.643 47.2964 109.016 46.1117C109.997 43.0992 107.662 41.6099 104.649 38.7327ZM96.0177 49.9027C93.8176 49.6658 95.3069 44.8255 96.9317 46.8902C97.4732 47.601 97.1686 49.4966 96.0177 49.9027ZM100.486 38.225C101.569 39.0035 101.095 41.5422 99.6057 41.7452C97.744 41.6776 98.7933 37.0403 100.486 38.225ZM100.012 45.0963C101.501 44.4193 102.314 48.0411 100.486 48.7519C98.861 49.0227 98.6241 45.7055 100.012 45.0963ZM100.79 56.0632C99.3011 55.5216 99.0641 53.1184 100.35 52.3398C101.975 51.3582 103.058 55.7247 100.79 56.0632ZM105.461 47.4318C103.871 48.0749 103.058 44.6562 104.717 43.6746C104.988 43.5054 105.36 43.5392 105.698 43.7423C106.815 44.2839 107.019 46.7887 105.461 47.4318Z" fill="#CF222D"/>
</g>
</g>
<defs>
<clipPath id="clip0_396_1951">
<rect width="163.45" height="43.8" fill="white" transform="translate(24.075 25.5996)"/>
</clipPath>
<clipPath id="clip1_396_1951">
<rect width="163.45" height="43.8" fill="white" transform="translate(24.075 25.5996)"/>
</clipPath>
</defs>
</svg>
