<svg width="212" height="95" viewBox="0 0 212 95" fill="none" xmlns="http://www.w3.org/2000/svg">
<rect x="0.600098" width="211.2" height="95" rx="16" fill="#0A0808"/>
<g clip-path="url(#clip0_396_3080)">
<g clip-path="url(#clip1_396_3080)">
<g clip-path="url(#clip2_396_3080)">
<path fill-rule="evenodd" clip-rule="evenodd" d="M100.141 58.9886L78.7491 37.7216C78.7491 37.7216 78.0261 37.0761 77.1439 37.2267C76.0294 37.4031 75.2871 38.3391 75.2871 38.3391C75.2871 38.3391 71.7368 42.9006 69.7229 47.6128C67.5949 52.5982 67.0032 57.7535 67.0032 57.7535C67.0163 58.5368 67.3235 59.2864 67.8638 59.8536C68.5093 60.4883 69.0989 60.2236 69.0989 60.2236C69.0989 60.2236 68.7998 60.0214 68.4814 59.236C68.1669 58.4755 68.1445 57.6256 68.4185 56.8495C68.6925 56.0735 69.2437 55.4261 69.966 55.0317C70.7944 54.5454 73.6238 54.0333 74.7879 56.639C75.9713 59.2769 73.669 60.3463 74.0456 60.3484C82.1487 60.3829 99.2716 60.5959 99.2716 60.5959C99.2716 60.5959 100.283 60.6368 100.509 60.2258C100.821 59.6642 100.141 58.9886 100.141 58.9886ZM94.8607 57.6373C96.1194 57.945 97.0425 58.5991 96.922 59.0962C96.8015 59.5932 95.6783 59.7417 94.4196 59.4383C93.1609 59.1349 92.2357 58.4765 92.3583 57.9795C92.481 57.4824 93.5998 57.3297 94.8607 57.6373ZM103.284 57.4415L103.263 27.2774C103.263 27.2774 103.201 26.3157 102.48 25.7885C101.57 25.1258 100.382 25.2592 100.382 25.2592C100.382 25.2592 94.5143 25.4356 89.7548 27.3334C84.7221 29.343 80.7802 33.0848 80.7802 33.0848C80.2346 33.6492 79.9205 34.3978 79.9002 35.1826C79.9002 36.0842 80.6856 36.8459 80.6856 36.8459L101.535 57.9622C101.535 57.9622 102.219 58.7067 102.669 58.5755C103.284 58.399 103.284 57.4415 103.284 57.4415ZM100.517 52.7445C101.187 53.8569 101.378 54.9714 100.937 55.2361C100.496 55.5007 99.6008 54.8058 98.9295 53.7041C98.2582 52.6025 98.0688 51.4771 98.4992 51.2146C98.9295 50.9521 99.8461 51.6342 100.517 52.7445ZM106.327 58.0053L127.536 36.5489C127.536 36.5489 128.171 35.8238 128.026 34.9417C127.846 33.8292 126.908 33.0891 126.908 33.0891C126.908 33.0891 122.667 29.0848 117.948 27.0881C112.956 24.973 107.469 24.8633 107.469 24.8633C106.685 24.8811 105.935 25.1929 105.369 25.7369C104.737 26.3824 104.758 27.4689 104.758 27.4689L104.724 57.1446C104.724 57.1446 104.685 58.1559 105.098 58.3797C105.66 58.6852 106.333 58.0053 106.333 58.0053H106.327ZM107.67 52.7294C107.366 53.9903 106.712 54.9155 106.215 54.795C105.718 54.6745 105.57 53.5535 105.866 52.2926C106.163 51.0318 106.822 50.1087 107.319 50.227C107.816 50.3454 107.975 51.4578 107.67 52.7294ZM108.216 60.3721L138.845 60.2344C138.845 60.2344 137.302 58.7519 137.855 57.0198C138.537 54.8918 140.222 54.9628 140.205 54.7929C140.129 54.2313 138.914 49.7816 137.838 47.0619C135.843 42.0228 132.64 37.9432 132.64 37.9432C132.076 37.396 131.329 37.0797 130.544 37.0567C129.642 37.0567 128.878 37.8356 128.878 37.8356L107.706 58.612C107.706 58.612 106.959 59.2941 107.089 59.746C107.261 60.3613 108.216 60.3635 108.216 60.3635V60.3721ZM112.922 57.6201C111.809 58.2871 110.693 58.47 110.428 58.0311C110.163 57.5922 110.858 56.6949 111.966 56.0279C113.074 55.3609 114.196 55.1672 114.458 55.6148C114.721 56.0623 114.028 56.9531 112.922 57.6201Z" fill="#B5E051"/>
<path fill-rule="evenodd" clip-rule="evenodd" d="M63.9112 51.5712C63.9112 51.5712 60.4298 57.5959 57.1098 63.812C54.8592 68.0293 52.303 72.3907 52.4084 74.8177C52.5655 78.3787 55.6983 77.744 58.2179 76.0528C60.3394 74.6305 61.9295 72.3433 61.9295 72.3433C61.9295 72.3433 60.3696 76.1647 62.6761 77.0425C66.1188 78.3465 69.6002 73.5805 69.6002 73.5805L68.2382 76.1819L68.363 76.7994H71.825C71.825 76.7994 78.0648 64.9093 81.3461 64.5586C83.8894 64.2854 76.152 76.4272 76.152 76.4272L76.4016 76.9221L79.9862 76.6746C79.9862 76.6746 86.3272 64.3714 89.3847 64.6791C91.2868 64.8728 87.6031 68.636 85.2965 73.0878C84.3477 74.9253 85.9549 78.0366 89.006 77.2921C91.2437 76.7478 94.695 72.2228 94.695 72.2228C94.695 72.2228 93.6191 77.1716 98.5271 77.5396C103.536 77.9204 107.308 73.2104 107.308 73.2104C107.308 73.2104 107.125 77.247 109.655 77.2986C113.029 77.3588 115.465 73.9592 115.465 73.9592C115.465 73.9592 115.063 77.5095 119.299 77.2986C126.879 76.9221 128.695 69.5074 128.695 69.5074C129.305 69.8492 129.979 70.0595 130.675 70.125C131.352 70.1283 132.024 70.0027 132.655 69.7549C132.655 69.7549 128.285 75.5644 132.284 77.1759C135.434 78.4454 139.456 73.0878 139.456 73.0878L137.724 76.4272L138.096 76.9221L141.311 76.7973C141.311 76.7973 147.994 64.748 151.079 64.6791C153.181 64.6275 146.961 71.3127 146.991 74.3228C147.032 77.5826 150.569 78.6262 153.298 75.9301C155.475 73.7785 159.968 67.6463 159.968 67.6463L159.72 67.1514L159.131 66.6543C159.131 66.6543 152.813 76.1044 150.722 75.9258C149.941 75.8591 150.46 74.3853 151.583 72.4638C153.323 69.501 156.151 65.4559 153.932 63.6851C151.241 61.5334 147.503 65.7872 147.503 65.7872L148.616 63.9325L148.368 63.4376L144.534 63.6851C144.534 63.6851 137.829 75.5751 134.387 75.6805C132.71 75.7322 139.703 64.0616 139.703 64.0616L139.333 63.5667L135.749 63.8142C135.749 63.8142 134.187 67.2955 132.409 68.5134C130.864 69.572 129.072 68.3886 129.072 68.3886C129.072 68.3886 129.982 62.3639 127.093 62.9492C124.203 63.5344 125.857 66.9039 125.857 66.9039C125.857 66.9039 123.151 77.163 118.933 75.9409C116.255 75.1577 123.755 64.1928 123.755 64.1928L123.63 63.5753H119.805C119.805 63.5753 114.282 76.1991 111.149 75.5601C108.655 75.048 116.098 64.1821 116.098 64.1821L115.727 63.5646L112.265 63.6894C112.265 63.6894 109.716 68.9007 106.576 72.2207C104.881 74.013 103.394 75.233 101.382 75.4482C97.5093 75.8462 98.4152 71.6139 98.4152 71.6139C98.4152 71.6139 103.685 70.7941 106.452 68.1519C107.059 67.6167 107.436 66.868 107.505 66.0616C107.574 65.2552 107.329 64.4532 106.822 63.8228C106.391 63.3064 104.025 62.0885 99.8998 64.4424C96.8746 66.1573 95.4416 69.5117 95.4416 69.5117C95.4416 69.5117 89.8688 76.8876 88.6402 75.5708C87.6655 74.5273 91.9301 70.0626 92.9693 66.9168C93.7913 64.4252 91.6784 63.259 90.9898 63.0826C88.2529 62.407 84.9308 66.9168 84.9308 66.9168C84.9308 66.9168 86.0173 63.855 83.2094 63.2074C80.9373 62.6824 78.8824 64.692 78.8824 64.692L79.1299 63.8314L78.8824 63.3365L74.9255 63.7066C74.9255 63.7066 72.4361 68.3068 69.6023 71.8506C68.1155 73.7032 66.42 75.6009 65.1506 75.6848C62.8849 75.8312 70.2199 64.309 70.2199 64.309L69.8476 63.5667L66.5104 63.8142C65.0858 66.2836 63.4738 68.6402 61.6885 70.863C58.8376 74.3056 55.5907 76.7521 55.6295 75.4374C55.7457 71.4568 67.7476 51.8187 67.7476 51.8187L67.6228 51.2011L63.9112 51.5712ZM71.683 56.0897C72.0716 56.102 72.448 56.2284 72.7652 56.4532C73.0825 56.678 73.3264 56.9913 73.4667 57.3539C73.607 57.7165 73.6375 58.1125 73.5542 58.4922C73.4709 58.872 73.2776 59.2189 72.9984 59.4895C72.7193 59.7602 72.3666 59.9426 71.9844 60.014C71.6022 60.0855 71.2074 60.0428 70.8493 59.8913C70.4913 59.7399 70.1857 59.4863 69.9708 59.1622C69.7559 58.8382 69.6413 58.458 69.6411 58.0692C69.645 57.8051 69.7009 57.5444 69.8057 57.3019C69.9105 57.0594 70.062 56.84 70.2517 56.6562C70.4413 56.4723 70.6653 56.3277 70.9109 56.2305C71.1565 56.1333 71.4189 56.0854 71.683 56.0897ZM98.6562 70.3724C98.6562 70.3724 101.174 63.9605 103.85 64.3133C105.036 64.4704 104.229 66.3553 102.613 67.9002C101.148 69.2966 98.6562 70.3724 98.6562 70.3724ZM141.126 55.9283C141.52 55.9159 141.908 56.0214 142.242 56.2312C142.576 56.441 142.839 56.7456 142.998 57.1061C143.158 57.4665 143.206 57.8663 143.137 58.2544C143.068 58.6424 142.884 59.0009 142.61 59.284C142.336 59.5671 141.983 59.7619 141.598 59.8435C141.212 59.9251 140.811 59.8897 140.446 59.7419C140.08 59.5941 139.767 59.3406 139.547 59.0138C139.327 58.6871 139.209 58.302 139.209 57.9078C139.203 57.6513 139.249 57.3963 139.343 57.1574C139.436 56.9185 139.576 56.7004 139.754 56.5157C139.932 56.331 140.145 56.1833 140.381 56.081C140.616 55.9787 140.869 55.9239 141.126 55.9197V55.9283ZM60.6966 54.6653C60.6966 54.6653 63.1344 50.2415 63.539 49.7165C63.9435 49.1915 65.5185 49.2216 65.5185 49.2216C65.5185 49.2216 68.0381 39.0765 76.8943 31.0444C83.9948 24.6045 95.8655 20.4044 104.595 20.6562C117.87 21.0413 130.63 27.9525 137.238 37.5983C144.482 48.1587 144.779 61.5872 144.779 61.5872L148.366 61.4624C148.366 61.4624 147.794 45.6133 138.103 33.2757C130.18 23.1758 116.84 17.4029 104.84 17.4416C90.4928 17.4889 83.1772 21.2543 75.1644 27.4576C61.8198 37.8006 60.6966 54.6653 60.6966 54.6653Z" fill="#FEFFFD"/>
</g>
</g>
</g>
<defs>
<clipPath id="clip0_396_3080">
<rect width="107.6" height="60.1152" fill="white" transform="translate(52.4001 17.4424)"/>
</clipPath>
<clipPath id="clip1_396_3080">
<rect width="107.6" height="60.1152" fill="white" transform="translate(52.4001 17.4424)"/>
</clipPath>
<clipPath id="clip2_396_3080">
<rect width="107.583" height="60.1152" fill="white" transform="translate(52.4087 17.4424)"/>
</clipPath>
</defs>
</svg>
