<svg width="212" height="95" viewBox="0 0 212 95" fill="none" xmlns="http://www.w3.org/2000/svg">
<rect x="0.399902" width="211.2" height="95" rx="16" fill="#0A0808"/>
<g clip-path="url(#clip0_396_1972)">
<g clip-path="url(#clip1_396_1972)">
<g clip-path="url(#clip2_396_1972)">
<path fill-rule="evenodd" clip-rule="evenodd" d="M66.9086 51.0162C65.9912 49.3853 65.2777 47.9582 63.5448 46.4292L62.2197 47.9582L64.3603 50.8124C64.8175 51.5007 65.1616 52.2578 65.3796 53.0549C65.3796 53.2588 63.7487 54.38 62.8313 54.8897C61.5061 55.5013 59.7733 56.5206 58.2443 56.5206C57.6327 54.482 56.1037 52.2394 54.065 50.5066L55.1863 50.2008C57.9385 49.3853 60.0791 47.7544 61.6081 45.308C62.2197 44.2886 63.0351 42.0461 63.3409 39.9055C63.7487 37.2552 63.5448 34.7069 63.5448 34.605L60.9965 33.7895C59.1617 33.4837 57.5308 33.1779 55.2882 33.4837L55.696 35.4205C57.2249 35.3185 58.1423 35.4205 59.2636 35.5224L61.71 36.134C61.8119 36.2359 61.71 38.2746 61.5061 39.2939C61.2003 40.721 60.8945 42.7596 59.9771 43.8809C58.0404 43.0654 55.2882 42.8616 52.638 43.3712L53.0457 42.3519C54.065 39.7016 54.2689 37.0514 53.2496 34.2992C51.5626 31.0147 49.0732 28.2097 46.0123 26.1445L43.6678 27.7755C42.1581 28.9585 40.8795 30.4098 39.8963 32.0567L41.6292 32.9741C42.5466 31.6489 43.1582 31.0373 43.9736 30.3238C44.891 29.4064 45.9104 28.7948 45.9104 28.7948C46.1142 28.7948 47.5413 30.1199 48.2548 30.9354C49.1722 32.0567 50.5993 33.5857 50.9051 35.1147C50.1916 35.5224 49.3761 36.134 48.6626 36.8475C48.051 37.4591 47.4394 38.0707 47.0316 38.7842L46.0123 40.4152L45.5026 39.5997C44.2046 37.164 42.0681 35.281 39.4886 34.2992C38.3673 33.8915 36.0229 33.5857 33.8823 33.6876C31.232 33.6876 28.7856 34.4011 28.6837 34.4011L28.4798 37.2552C28.4798 39.192 28.5817 40.721 29.3972 42.8616L31.232 42.0461C30.8243 40.5171 30.7223 39.5997 30.6204 38.5804C30.5185 37.3572 30.6204 36.134 30.7223 36.032L33.7803 35.5224C35.2074 35.5224 37.0422 35.4205 38.4692 36.032C38.1705 38.5681 38.5577 41.1378 39.5905 43.4732C37.8576 42.9635 36.1248 43.0654 34.4939 43.3712C33.1687 43.677 31.8436 44.1867 30.6204 45.0022C29.6011 45.6138 27.9701 47.3466 26.7469 49.1814C25.2179 51.5259 24.3005 53.9723 24.3005 53.9723L26.4411 55.8071C27.9428 57.0268 29.6768 57.9285 31.5378 58.4574L32.0475 56.5206C30.1833 55.7607 28.4604 54.6925 26.9508 53.3607L28.3779 50.6085C29.2222 49.1857 30.3709 47.9673 31.7417 47.0408C33.4306 48.7596 35.5968 49.9315 37.9596 50.4046L37.348 50.9143C35.2329 52.7295 33.885 55.2795 33.5765 58.0496C33.4745 59.2728 33.6784 61.5153 34.29 63.6559C35.0035 66.2043 36.3287 68.5487 36.3287 68.5487C36.4306 68.6507 39.0808 68.141 39.0808 68.141C40.9156 67.6313 42.4446 67.2236 44.3814 66.0004L43.1582 64.3695C41.7311 65.083 41.1195 65.3888 40.1002 65.6946C38.877 66.1023 37.4499 66.3062 37.4499 66.3062C37.246 66.2043 36.5325 64.3695 36.3287 63.3501C36.0229 62.025 35.5132 60.2921 35.7171 58.8651C38.2434 58.6302 40.6491 57.6749 42.6485 56.1129C42.7504 59.2728 43.464 61.8211 45.8084 64.1656C46.6239 64.9811 48.5606 66.3062 50.5993 67.2236C53.0457 68.2429 55.594 68.7526 55.594 68.7526L57.0211 66.3062C57.8365 64.5733 58.4482 63.1463 58.652 60.8018L56.6134 60.6999C56.2596 62.7031 55.4962 64.6117 54.3708 66.3062C54.167 66.4081 52.3322 65.7965 51.4148 65.3888C50.1916 64.7772 48.3568 63.9617 47.4394 62.8405C48.774 60.7629 49.5467 58.3746 49.6819 55.909C52.1283 57.9477 55.0844 58.967 58.3462 58.5593C59.5694 58.4573 61.71 57.6419 63.6467 56.6226C65.9912 55.2974 67.9279 53.5646 67.9279 53.5646L66.9086 51.0162ZM41.833 47.1428C42.1388 47.3466 42.3427 47.5505 42.4446 47.8563L40.9156 48.264C38.4692 48.4679 36.3287 47.6524 34.3919 46.0215C37.1441 45.308 39.5905 45.6138 41.833 47.1428ZM55.4921 55.6032L55.696 56.1129H55.3902C54.3708 55.909 53.3515 55.5013 52.536 54.9916C51.0291 53.984 49.8856 52.5189 49.2742 50.8124C50.9051 50.9143 52.9438 51.9336 54.2689 53.5646L55.4921 55.6032ZM43.2601 50.9143C42.6485 53.1568 39.6924 55.909 36.8383 56.011C37.348 53.4626 40.9156 50.9143 43.2601 50.9143ZM57.9385 45.9196C55.8998 47.6524 53.8612 48.4679 51.5167 48.264C50.8032 48.1621 50.1916 48.0602 49.6819 47.7544L50.7012 46.837C51.7656 46.1605 52.9662 45.7275 54.2173 45.5689C55.4684 45.4104 56.739 45.5301 57.9385 45.9196ZM48.2548 45.0022L47.6432 45.308L47.5413 44.7983C47.5413 41.7403 48.8664 39.3958 51.3128 37.663C51.4148 40.619 50.4974 43.1674 48.2548 45.0022ZM44.3814 45.308C42.3427 44.2886 40.2021 40.619 40.9156 37.7649L41.4253 38.0707C42.2445 38.7873 42.9644 39.61 43.5659 40.5171C44.3814 42.0461 44.7891 43.9828 44.3814 45.308ZM46.0123 60.5979C44.7891 57.9477 44.4833 55.5013 45.6046 52.953L46.2162 52.1375L46.522 52.4433C46.9297 53.0549 47.2355 53.8704 47.3374 54.7878C47.5413 56.3168 47.0316 59.3747 46.0123 60.5979Z" fill="#DC4543"/>
<path fill-rule="evenodd" clip-rule="evenodd" d="M151.921 39.1925V55.8076H146.416V49.4877H141.32V55.8076H136.223V39.1925H141.32V45.2065H146.416V39.1925H151.921ZM171.798 39.1925H176.385L183.214 48.2645L183.316 39.1925H187.699V55.8076H183.214L176.283 46.5316V55.8076H171.798V39.1925ZM83.5237 52.4438V49.08C84.8488 49.08 87.1933 48.8761 87.1933 50.8128C87.1933 52.4438 84.7469 52.4438 83.5237 52.4438ZM83.5237 45.6142V42.7601C85.6643 42.7601 86.5817 42.7601 86.5817 44.2891C86.5817 45.7162 84.543 45.6142 83.5237 45.6142ZM78.427 55.8076H88.1107C91.7802 55.8076 94.1247 51.2206 91.7802 48.4684C91.0767 47.6057 90.1101 46.9971 89.0281 46.7355C91.1686 45.8181 92.4938 44.9007 91.9841 42.3524C91.7803 41.0273 90.9648 40.0079 89.3339 39.4983C88.6203 39.2944 87.8049 39.1925 86.8875 39.1925H78.427V55.8076ZM163.643 49.3858H160.279L162.216 42.5563L163.643 49.3858ZM153.45 55.8076H158.546L159.464 52.5457H164.357L165.58 55.8076H170.371L165.274 39.1925H158.852C158.343 41.7408 153.552 54.8902 153.45 55.8076ZM94.1247 55.8076H104.93V51.9341H99.2214V49.6916H104.624V45.3084H99.2214V43.1679H104.93V39.1925H94.1247V55.8076ZM134.184 55.6037V51.1186C132.146 51.6283 129.699 52.7496 127.253 50.8128C125.826 49.6916 126.03 48.4684 126.03 46.6336C126.03 44.1872 129.597 41.8427 134.184 43.9833V39.2944C132.554 38.4789 128.578 38.7847 126.845 39.2944C124.85 39.8805 123.121 41.1416 121.952 42.8621C120.931 44.7271 120.538 46.8718 120.831 48.978C121.341 53.565 123.787 55.5018 128.272 56.0114C130.107 56.2153 132.554 56.1134 134.184 55.6037ZM106.764 42.7601H110.944V55.8076H116.04V42.7601H120.933V39.1925H106.764V42.7601Z" fill="white"/>
</g>
</g>
</g>
<defs>
<clipPath id="clip0_396_1972">
<rect width="163.45" height="42.71" fill="white" transform="translate(24.2749 26.1445)"/>
</clipPath>
<clipPath id="clip1_396_1972">
<rect width="163.45" height="42.71" fill="white" transform="translate(24.2749 26.1445)"/>
</clipPath>
<clipPath id="clip2_396_1972">
<rect width="163.399" height="42.71" fill="white" transform="translate(24.3005 26.1445)"/>
</clipPath>
</defs>
</svg>
