<svg width="212" height="95" viewBox="0 0 212 95" fill="none" xmlns="http://www.w3.org/2000/svg">
<rect width="211.2" height="95" rx="16" fill="#0A0808"/>
<g clip-path="url(#clip0_396_2488)">
<g clip-path="url(#clip1_396_2488)">
<g clip-path="url(#clip2_396_2488)">
<path fill-rule="evenodd" clip-rule="evenodd" d="M54.2949 50.0205C53.7472 48.7821 52.9437 47.6737 51.937 46.7682L51.0019 47.8252C51.9766 48.866 52.7242 50.0982 53.1973 51.4434C53.1566 51.5653 52.0183 52.3784 51.3678 52.7036C50.4734 53.1508 49.2538 53.8419 48.1562 53.8419C47.5676 52.1787 46.5426 50.7043 45.1884 49.5733L46.0015 49.3294C47.9123 48.7602 49.4571 47.6219 50.5141 45.9144C50.9613 45.2233 51.5304 43.6378 51.7337 42.093C52.0183 40.2229 51.8963 38.3935 51.8963 38.3935C51.815 38.3122 49.9856 37.8243 49.9856 37.8243C48.6847 37.5804 47.5464 37.3771 45.9609 37.6617L46.2454 39.0439C47.3431 38.9626 47.9936 39.0439 48.766 39.1252C49.6604 39.2472 50.4328 39.4911 50.4734 39.5318C50.5548 39.6537 50.4734 41.036 50.3515 41.7271C50.1482 42.7434 49.9043 44.1257 49.2538 44.9794C47.5967 44.3968 45.8135 44.2704 44.0908 44.6135L44.3754 43.8817C45.1417 42.0863 45.1998 40.0674 44.538 38.2309C44.001 37.003 43.2586 35.8756 42.3427 34.8972C41.0418 33.515 39.5782 32.458 39.5376 32.458C39.4156 32.458 37.9114 33.5963 37.9114 33.5963C36.8398 34.414 35.9415 35.4366 35.2689 36.6047L36.5292 37.2552C37.1796 36.3608 37.6268 35.8729 38.1553 35.3444C38.8058 34.7346 39.4969 34.2468 39.5376 34.2468C39.6595 34.2468 40.7165 35.1818 41.1637 35.7103C41.8142 36.4827 42.7899 37.5397 43.0338 38.6374C41.579 39.5608 40.3774 40.8323 39.5376 42.3369L39.2123 41.7271C38.3141 39.9941 36.7868 38.6704 34.9437 38.0276C33.6518 37.6489 32.3013 37.5111 30.9596 37.621C29.0895 37.743 27.3008 38.2309 27.3008 38.2309C27.2194 38.3122 27.1381 40.2229 27.1381 40.2229C27.1788 41.5645 27.2194 42.7028 27.7886 44.1663C28.2135 43.9694 28.6477 43.7931 29.0895 43.6378C28.6874 42.2669 28.563 40.8295 28.7236 39.4098C29.4391 39.2107 30.1765 39.1014 30.9189 39.0846C31.8946 39.0846 33.2362 39.0033 34.1713 39.4505C33.9273 40.914 34.1713 42.906 34.9437 44.6948C33.6834 44.3696 32.5044 44.3696 31.3661 44.6542C30.3904 44.8574 29.4554 45.2233 28.6017 45.7925C27.5282 46.5998 26.606 47.5908 25.8779 48.7195C24.8615 50.305 24.1704 52.0125 24.1704 52.0125C24.1704 52.1345 25.6746 53.3134 25.6746 53.3134C26.7723 54.0859 27.7073 54.7363 29.2521 55.1429L29.5774 53.7606C28.253 53.2264 27.0294 52.4702 25.9592 51.5247C26.2103 50.8242 26.5667 50.1662 27.0162 49.5733C27.626 48.7195 28.4391 47.5406 29.4148 47.0934C30.6246 48.2968 32.1445 49.1411 33.8054 49.5326L33.3582 49.9392C31.8946 51.2807 30.9189 52.9475 30.7157 54.9396C30.6344 55.7527 30.7563 57.4195 31.2035 58.9237C31.732 60.7124 32.5858 62.3386 32.6264 62.3386C32.7077 62.3792 34.5778 62.054 34.5778 62.054C35.8983 61.8022 37.1557 61.2909 38.2773 60.5498L37.4642 59.4115C36.209 60.1183 34.8282 60.574 33.3988 60.7531C33.0456 60.1114 32.7725 59.4287 32.5858 58.7204C32.3825 57.826 32.0166 56.6064 32.1792 55.59C33.6428 55.5087 35.5535 54.8176 37.0983 53.6387C37.1796 55.8746 37.6675 57.6634 39.2936 59.3302C39.8628 59.94 41.245 60.875 42.6679 61.4849C44.416 62.2166 46.2048 62.5825 46.2048 62.5419C46.5645 61.9854 46.9036 61.4159 47.2211 60.8344C47.7903 59.6148 48.2375 58.5984 48.4001 57.0129L46.9772 56.9316C46.7739 58.0293 46.53 58.6391 46.2861 59.3302C45.9609 60.1433 45.5137 60.875 45.473 60.875C45.3511 60.9157 44.0095 60.5092 43.359 60.1839C42.4646 59.7774 41.2044 59.2082 40.5539 58.3952C41.367 57.1755 42.0174 55.3868 42.1394 53.5167C43.8875 54.9396 45.9609 55.6714 48.2375 55.3868C49.0506 55.3055 50.6361 54.777 51.9776 54.0045C53.6038 53.0695 54.986 51.8499 54.986 51.8499C54.805 51.2226 54.5739 50.6108 54.2949 50.0205ZM36.5698 47.256L37.017 47.7439C36.7324 47.8658 36.2853 47.9878 35.96 48.0284C34.2526 48.191 32.7077 47.6219 31.3255 46.4429C32.2044 46.1745 33.1326 46.1083 34.0407 46.2491C34.9489 46.3899 35.8134 46.7341 36.5698 47.256ZM46.2048 53.2321L46.3268 53.6387H46.1235C45.3917 53.476 44.7006 53.2321 44.0908 52.8662C42.9931 52.1345 42.0581 50.9555 41.8142 49.8985C42.9525 49.9392 44.3754 50.7116 45.3511 51.8499C45.6763 52.2564 45.9609 52.7036 46.2048 53.2321ZM37.6268 49.9392C37.2203 51.484 35.1063 53.4354 33.0736 53.5167C33.4801 51.6873 35.96 49.8985 37.6268 49.9392ZM47.9936 46.3616C47.9529 46.4023 47.9529 46.4023 47.9936 46.3616C47.3836 46.9282 46.6667 47.3675 45.8849 47.6537C45.103 47.9399 44.272 48.0673 43.4403 48.0284C42.9987 47.9994 42.5686 47.8745 42.1801 47.6625C42.3427 47.4186 42.5866 47.2154 42.8712 47.0121C44.416 46.0364 46.1235 45.8738 47.9936 46.3616ZM41.0824 45.7518L40.6759 45.9551L40.5946 45.5892C40.5539 43.4345 41.5703 41.8084 43.2777 40.5481C43.359 42.7028 42.7086 44.4509 41.0824 45.7518ZM38.4399 45.9551C36.9764 45.2233 35.5128 42.6621 35.96 40.6294L36.3259 40.8327C36.9357 41.3612 37.4236 41.8897 37.7894 42.5402C38.3993 43.6378 38.6838 45.02 38.4399 45.9551ZM39.5782 56.7284C39.1211 55.9077 38.8611 54.992 38.8188 54.0536C38.7764 53.1152 38.9529 52.1798 39.3343 51.3214L39.7408 50.7522L39.9441 50.9555C40.2478 51.4507 40.4419 52.0052 40.5133 52.5817C40.5946 53.72 40.31 55.834 39.5782 56.7284Z" fill="#DC4543"/>
<path d="M66.247 43.5969C65.3933 43.5969 64.7022 43.9628 64.2144 44.6539C63.6773 45.532 63.422 46.5534 63.4826 47.581C63.4826 50.1422 64.4583 51.4431 66.4097 51.4431C67.0195 51.4431 67.5886 51.3618 68.1171 51.1992C68.6863 51.0365 69.2148 50.8333 69.7839 50.5894V53.6384C68.5867 54.1375 67.3001 54.3865 66.0031 54.3702C63.9704 54.3702 62.4256 53.801 61.3686 52.622C60.2709 51.4431 59.7424 49.7356 59.7424 47.5403C59.7424 46.1581 59.9864 44.9385 60.5149 43.8815C61.0022 42.8649 61.7804 42.0159 62.7508 41.4422C63.7265 40.8731 64.8648 40.5885 66.2064 40.5885C67.6699 40.5885 69.0522 40.9137 70.3531 41.5235L69.2554 44.3693C68.3263 43.8814 67.2963 43.617 66.247 43.5969ZM80.6792 54.2075L80.0287 51.687H75.6787L74.9876 54.2075H71.0442L75.4348 40.7511H80.2726L84.7039 54.2075H80.6792ZM79.2969 48.7193L78.7278 46.524C78.4576 45.3281 78.173 44.1355 77.8741 42.9464L77.5488 44.4913L76.4918 48.7193H79.2969ZM94.8674 50.1422C94.8694 50.9357 94.6345 51.7117 94.1926 52.3708C93.7508 53.0299 93.1222 53.5421 92.3875 53.8417C91.5744 54.2075 90.68 54.3702 89.5824 54.3702C88.688 54.3702 87.9562 54.2889 87.3464 54.1669C86.6964 54.0358 86.0673 53.817 85.4763 53.5164V50.3454C86.1674 50.7113 86.8992 50.9959 87.631 51.1585C88.3627 51.3618 89.0539 51.4431 89.7043 51.4431C90.2328 51.4431 90.6394 51.3618 90.8833 51.1585C91.1272 50.9552 91.2492 50.752 91.2492 50.4267C91.2492 50.2235 91.2085 50.1015 91.0866 49.9389C91.0052 49.8169 90.8426 49.6543 90.5987 49.5324C90.3954 49.4104 89.7856 49.0852 88.8099 48.6786C87.9562 48.2721 87.2651 47.9062 86.8585 47.5403C86.4114 47.1744 86.0861 46.7272 85.8829 46.2394C85.6796 45.7515 85.5576 45.1824 85.5576 44.5319C85.5576 43.3123 86.0048 42.3366 86.8992 41.6455C87.7936 40.9544 89.0132 40.6292 90.5987 40.6292C91.9809 40.6292 93.4038 40.9544 94.8267 41.6049L93.7291 44.41C92.7171 43.8996 91.6089 43.6087 90.4767 43.5562C89.9889 43.5562 89.6637 43.6375 89.4604 43.8002C89.2571 43.9628 89.1352 44.166 89.1352 44.41C89.1352 44.6539 89.2571 44.8978 89.5417 45.1011C89.8263 45.3044 90.558 45.6702 91.737 46.2394C92.8753 46.7679 93.6884 47.2964 94.1356 47.9062C94.6399 48.5396 94.8996 49.3332 94.8674 50.1422ZM96.9407 54.2075V40.7918H100.6V54.2075H96.9407ZM116.251 54.2075H111.495L106.616 44.7759H106.535C106.657 46.28 106.698 47.3777 106.698 48.1908V54.2482H103.486V40.8324H108.202L113.08 50.1422H113.121L112.999 46.8899V40.8324H116.211V54.2075H116.251ZM131.659 47.4997C131.659 49.7356 131.09 51.4837 129.992 52.622C128.895 53.801 127.268 54.3702 125.154 54.3702C123.04 54.3702 121.455 53.7604 120.317 52.5814C119.178 51.4024 118.65 49.695 118.65 47.4184C118.65 45.1824 119.219 43.4749 120.317 42.296C121.414 41.117 123.04 40.5479 125.195 40.5479C127.309 40.5479 128.935 41.117 130.033 42.296C131.131 43.5156 131.659 45.223 131.659 47.4997ZM122.431 47.4997C122.431 50.1015 123.325 51.4024 125.154 51.4024C126.09 51.4024 126.74 51.0772 127.187 50.4674C127.634 49.8576 127.838 48.8412 127.838 47.5403C127.838 46.1987 127.594 45.223 127.147 44.5726C126.925 44.2536 126.626 43.9965 126.277 43.8257C125.929 43.6549 125.542 43.5762 125.154 43.5969C123.366 43.5562 122.431 44.8978 122.431 47.4997ZM140.074 43.5969C139.221 43.5969 138.53 43.9628 138.042 44.6539C137.505 45.532 137.249 46.5534 137.31 47.581C137.31 50.1422 138.286 51.4431 140.237 51.4431C140.847 51.4431 141.416 51.3618 141.945 51.1992C142.514 51.0365 143.042 50.8333 143.611 50.5894V53.6384C142.414 54.1375 141.127 54.3865 139.831 54.3702C137.798 54.3702 136.253 53.801 135.196 52.622C134.098 51.4431 133.57 49.7356 133.57 47.5403C133.57 46.1581 133.814 44.9385 134.342 43.8815C134.83 42.8649 135.608 42.0159 136.578 41.4422C137.554 40.8731 138.692 40.5885 140.034 40.5885C141.497 40.5885 142.88 40.9137 144.18 41.5235L143.083 44.3693C142.154 43.8814 141.124 43.617 140.074 43.5969ZM157.759 54.2075H154.1V48.7599H149.913V54.2075H146.254V40.7918H149.913V45.7515H154.1V40.8324H157.759V54.2075ZM168.857 54.2075L168.207 51.687H163.857L163.166 54.2075H159.182L163.572 40.7511H168.41L172.841 54.2075H168.857ZM167.475 48.7193L166.906 46.524C166.636 45.3281 166.351 44.1355 166.052 42.9464L165.727 44.4913L164.67 48.7193H167.475ZM187.03 54.2075H182.273L177.395 44.7759H177.313C177.435 46.28 177.476 47.3777 177.476 48.1908V54.2482H174.264V40.8324H178.98L183.859 50.1422H183.899L183.777 46.8899V40.8324H186.989V54.2075H187.03Z" fill="white"/>
</g>
</g>
</g>
<defs>
<clipPath id="clip0_396_2488">
<rect width="163.45" height="31.71" fill="white" transform="translate(23.875 31.6445)"/>
</clipPath>
<clipPath id="clip1_396_2488">
<rect width="163.45" height="31.71" fill="white" transform="translate(23.875 31.6445)"/>
</clipPath>
<clipPath id="clip2_396_2488">
<rect width="163.428" height="31.71" fill="white" transform="translate(23.8857 31.6445)"/>
</clipPath>
</defs>
</svg>
