<svg width="212" height="95" viewBox="0 0 212 95" fill="none" xmlns="http://www.w3.org/2000/svg">
<rect width="211.2" height="95" rx="16" fill="#0A0808"/>
<g clip-path="url(#clip0_396_1933)">
<g clip-path="url(#clip1_396_1933)">
<g clip-path="url(#clip2_396_1933)">
<path d="M82.7045 54.7391C82.0311 57.8816 80.2354 59.4528 77.0929 59.4528C73.9504 59.4528 72.7158 57.8816 73.3892 54.7391L76.0828 40.9345C76.7562 37.792 78.5519 36.2207 81.6944 36.2207C84.8369 36.2207 86.0715 37.792 85.5103 40.9345L82.7045 54.7391ZM82.1433 40.8222C82.3678 39.8121 81.9189 39.251 81.021 39.251C80.1231 39.251 79.562 39.8121 79.3375 40.8222L76.6439 54.6268C76.4195 55.6369 76.8684 56.1981 77.7663 56.1981C78.7763 56.1981 79.3375 55.6369 79.4497 54.6268L82.1433 40.8222Z" fill="url(#paint0_linear_396_1933)"/>
<path d="M88.6529 36.4453H93.7033C96.6214 36.4453 97.7437 38.0166 97.0703 41.1591L95.8357 47.5563C95.499 49.0153 94.7134 50.1377 93.4789 50.6988C94.6012 51.26 94.9379 52.3823 94.6012 53.8413L94.489 54.178C93.8156 57.3205 92.0198 58.8918 88.9896 58.8918H84.1636L88.6529 36.4453ZM88.7651 52.3823L88.0917 55.8615H89.5507C90.4486 55.8615 91.122 55.3004 91.2342 54.2903L91.3465 53.9536C91.4587 53.2802 91.2342 52.719 90.7853 52.4945L89.8874 52.3823H88.7651ZM91.2342 39.7001L89.3263 49.2398H90.3364L91.2342 49.1276C91.9076 48.9031 92.2443 48.4542 92.3565 47.6686L93.5911 41.2713C93.8156 40.2612 93.3666 39.7001 92.4688 39.7001H91.2342Z" fill="url(#paint1_linear_396_1933)"/>
<path d="M111.548 52.4944L111.099 54.7391C110.426 57.8816 108.63 59.4528 105.488 59.4528C102.345 59.4528 101.111 57.8816 101.784 54.7391L104.478 40.9345C105.151 37.792 106.947 36.2207 110.089 36.2207C113.232 36.2207 114.466 37.792 113.905 40.9345L113.344 43.9647H110.089L110.65 40.9345C110.875 39.9244 110.426 39.3632 109.528 39.3632C108.63 39.3632 108.069 39.9244 107.845 40.9345L105.151 54.7391C104.926 55.7491 105.375 56.3103 106.273 56.3103C107.283 56.3103 107.845 55.7491 107.957 54.7391L108.406 52.4944H111.548Z" fill="url(#paint2_linear_396_1933)"/>
<path d="M120.415 41.608L114.691 59.1163H111.436L119.292 36.4453H123.782L122.659 59.1163H119.405L120.415 41.608Z" fill="url(#paint3_linear_396_1933)"/>
<path d="M128.495 52.3821L128.047 54.6267C127.822 55.6368 128.271 56.198 129.169 56.198C130.067 56.198 130.74 55.6368 130.852 54.6267L130.965 54.1778C131.189 53.0555 130.403 51.8209 128.608 50.3619C126.812 48.9029 126.139 47.1072 126.588 45.087L127.485 40.8222C128.159 37.6797 129.954 36.1084 133.097 36.1084C136.239 36.1084 137.474 37.6797 136.913 40.8222L136.352 43.8524H132.985L133.546 40.8222C133.77 39.8121 133.321 39.2509 132.424 39.2509C131.526 39.2509 130.965 39.8121 130.74 40.8222L129.954 45.087C129.73 46.0971 130.516 47.3316 132.311 48.7907C134.107 50.2497 134.78 51.9332 134.332 54.0656L134.107 54.739C133.434 57.8815 131.638 59.4527 128.495 59.4527C125.353 59.4527 124.118 57.8815 124.792 54.739L125.241 52.4943H128.495V52.3821Z" fill="url(#paint4_linear_396_1933)"/>
<path d="M140.055 36.4453H143.31L138.821 59.1163H135.566L140.055 36.4453Z" fill="url(#paint5_linear_396_1933)"/>
<path d="M145.891 36.4453H149.146L149.707 49.5765L152.289 36.4453H155.319L150.83 59.1163H147.575L147.126 46.434L144.657 59.1163H141.514L145.891 36.4453Z" fill="url(#paint6_linear_396_1933)"/>
<path d="M163.4 54.7391C162.726 57.8816 160.93 59.4528 157.788 59.4528C154.645 59.4528 153.411 57.8816 154.084 54.7391L156.778 40.9345C157.451 37.792 159.247 36.2207 162.389 36.2207C165.532 36.2207 166.767 37.792 166.205 40.9345L163.4 54.7391ZM162.838 40.8222C163.063 39.8121 162.614 39.251 161.716 39.251C160.818 39.251 160.257 39.8121 160.033 40.8222L157.339 54.6268C157.115 55.6369 157.563 56.1981 158.461 56.1981C159.471 56.1981 160.033 55.6369 160.145 54.6268L162.838 40.8222Z" fill="url(#paint7_linear_396_1933)"/>
<path d="M83.2658 55.5251C82.5924 58.6676 80.7966 60.2389 77.6541 60.2389C74.5116 60.2389 73.2771 58.6676 73.9505 55.5251L76.644 41.7205C77.3174 38.578 79.1132 37.0068 82.2557 37.0068C85.3982 37.0068 86.6327 38.578 86.0716 41.7205L83.2658 55.5251ZM82.7046 41.6083C82.9291 40.5982 82.4801 40.037 81.5823 40.037C80.6844 40.037 80.1233 40.5982 79.8988 41.6083L77.2052 55.4129C76.9807 56.423 77.4297 56.9841 78.3275 56.9841C79.3376 56.9841 79.8988 56.423 80.011 55.4129L82.7046 41.6083ZM89.1018 37.2312H94.1523C97.0703 37.2312 98.1927 38.8025 97.5193 41.945L96.2847 48.3422C95.948 49.8013 95.1624 50.9236 93.9278 51.4847C95.0502 52.0459 95.3869 53.1682 95.0502 54.6273L94.9379 54.964C94.2645 58.1065 92.4688 59.6777 89.4385 59.6777H84.7248L89.1018 37.2312ZM89.3263 53.1682L88.6529 56.6474H90.1119C91.0098 56.6474 91.6832 56.0863 91.7954 55.0762L91.9077 54.7395C92.0199 54.0661 91.7954 53.5049 91.3465 53.2805L90.4486 53.1682H89.3263ZM91.7954 40.486L89.8875 50.0257H90.8976L91.7954 49.9135C92.4688 49.689 92.8055 49.2401 92.9177 48.4545L94.1523 42.0572C94.3768 41.0471 93.9278 40.486 93.03 40.486H91.7954ZM112.109 53.2805L111.661 55.5251C110.987 58.6676 109.191 60.2389 106.049 60.2389C102.906 60.2389 101.672 58.6676 102.345 55.5251L105.039 41.7205C105.712 38.578 107.508 37.0068 110.65 37.0068C113.793 37.0068 115.028 38.578 114.466 41.7205L113.905 44.7508H110.538L111.099 41.7205C111.324 40.7104 110.875 40.1493 109.977 40.1493C109.079 40.1493 108.518 40.7104 108.294 41.7205L105.6 55.5251C105.376 56.5352 105.824 57.0964 106.722 57.0964C107.732 57.0964 108.294 56.5352 108.406 55.5251L108.855 53.2805H112.109ZM120.976 42.3939L115.252 59.9022H111.997L119.854 37.2312H124.343L123.221 59.9022H119.966L120.976 42.3939ZM128.944 53.1682L128.495 55.4129C128.271 56.423 128.72 56.9841 129.618 56.9841C130.516 56.9841 131.189 56.423 131.301 55.4129L131.413 54.964C131.638 53.8416 130.852 52.6071 129.057 51.148C127.261 49.689 126.587 47.8933 127.036 45.8731L127.934 41.6083C128.608 38.4658 130.403 36.8945 133.546 36.8945C136.688 36.8945 137.923 38.4658 137.362 41.6083L136.801 44.6386H133.546L134.107 41.6083C134.332 40.5982 133.883 40.037 132.985 40.037C132.087 40.037 131.526 40.5982 131.301 41.6083L130.516 45.8731C130.291 46.8832 131.077 48.1178 132.872 49.5768C134.668 51.0358 135.342 52.7193 134.893 54.8517L134.78 55.5251C134.107 58.6676 132.311 60.2389 129.169 60.2389C126.026 60.2389 124.792 58.6676 125.465 55.5251L125.914 53.2805H128.944V53.1682ZM140.617 37.2312H143.871L139.382 59.9022H136.127L140.617 37.2312ZM146.453 37.2312H149.707L150.269 50.3624L152.85 37.2312H155.88L151.391 59.9022H148.136L147.687 47.1077L145.218 59.7899H141.963L146.453 37.2312ZM163.961 55.5251C163.287 58.6676 161.492 60.2389 158.349 60.2389C155.207 60.2389 153.972 58.6676 154.646 55.5251L157.339 41.7205C158.013 38.578 159.808 37.0068 162.951 37.0068C166.093 37.0068 167.328 38.578 166.767 41.7205L163.961 55.5251ZM163.4 41.6083C163.624 40.5982 163.175 40.037 162.277 40.037C161.38 40.037 160.818 40.5982 160.594 41.6083L157.9 55.4129C157.676 56.423 158.125 56.9841 159.023 56.9841C160.033 56.9841 160.594 56.423 160.706 55.4129L163.4 41.6083Z" fill="#787878"/>
<path d="M82.7045 54.7391C82.0311 57.8816 80.2354 59.4528 77.0929 59.4528C73.9504 59.4528 72.7158 57.8816 73.3892 54.7391L76.0828 40.9345C76.7562 37.792 78.5519 36.2207 81.6944 36.2207C84.8369 36.2207 86.0715 37.792 85.5103 40.9345L82.7045 54.7391ZM82.1433 40.8222C82.3678 39.8121 81.9189 39.251 81.021 39.251C80.1231 39.251 79.562 39.8121 79.3375 40.8222L76.6439 54.6268C76.4195 55.6369 76.8684 56.1981 77.7663 56.1981C78.7763 56.1981 79.3375 55.6369 79.4497 54.6268L82.1433 40.8222Z" fill="url(#paint8_linear_396_1933)"/>
<path d="M88.6529 36.4453H93.7033C96.6214 36.4453 97.7437 38.0166 97.0703 41.1591L95.8357 47.5563C95.499 49.0153 94.7134 50.1377 93.4789 50.6988C94.6012 51.26 94.9379 52.3823 94.6012 53.8413L94.489 54.178C93.8156 57.3205 92.0198 58.8918 88.9896 58.8918H84.1636L88.6529 36.4453ZM88.7651 52.3823L88.0917 55.8615H89.5507C90.4486 55.8615 91.122 55.3004 91.2342 54.2903L91.3465 53.9536C91.4587 53.2802 91.2342 52.719 90.7853 52.4945L89.8874 52.3823H88.7651ZM91.2342 39.7001L89.3263 49.2398H90.3364L91.2342 49.1276C91.9076 48.9031 92.2443 48.4542 92.3565 47.6686L93.5911 41.2713C93.8156 40.2612 93.3666 39.7001 92.4688 39.7001H91.2342Z" fill="url(#paint9_linear_396_1933)"/>
<path d="M111.548 52.4944L111.099 54.7391C110.426 57.8816 108.63 59.4528 105.488 59.4528C102.345 59.4528 101.111 57.8816 101.784 54.7391L104.478 40.9345C105.151 37.792 106.947 36.2207 110.089 36.2207C113.232 36.2207 114.466 37.792 113.905 40.9345L113.344 43.9647H110.089L110.65 40.9345C110.875 39.9244 110.426 39.3632 109.528 39.3632C108.63 39.3632 108.069 39.9244 107.845 40.9345L105.151 54.7391C104.926 55.7491 105.375 56.3103 106.273 56.3103C107.283 56.3103 107.845 55.7491 107.957 54.7391L108.406 52.4944H111.548Z" fill="url(#paint10_linear_396_1933)"/>
<path d="M120.415 41.608L114.691 59.1163H111.436L119.292 36.4453H123.782L122.659 59.1163H119.405L120.415 41.608Z" fill="url(#paint11_linear_396_1933)"/>
<path d="M128.495 52.3821L128.046 54.6267C127.822 55.6368 128.271 56.198 129.169 56.198C130.066 56.198 130.74 55.6368 130.852 54.6267L130.964 54.1778C131.189 53.0555 130.403 51.8209 128.607 50.3619C126.812 48.9029 126.138 47.1072 126.587 45.087L127.485 40.8222C128.159 37.6797 129.954 36.1084 133.097 36.1084C136.239 36.1084 137.474 37.6797 136.913 40.8222L136.351 43.8524H132.985L133.546 40.8222C133.77 39.8121 133.321 39.2509 132.423 39.2509C131.525 39.2509 130.964 39.8121 130.74 40.8222L129.954 45.087C129.73 46.0971 130.515 47.3316 132.311 48.7907C134.107 50.2497 134.78 51.9332 134.331 54.0656L134.107 54.739C133.433 57.8815 131.638 59.4527 128.495 59.4527C125.353 59.4527 124.118 57.8815 124.792 54.739L125.24 52.4943H128.495V52.3821Z" fill="url(#paint12_linear_396_1933)"/>
<path d="M140.055 36.4453H143.31L138.821 59.1163H135.566L140.055 36.4453Z" fill="url(#paint13_linear_396_1933)"/>
<path d="M145.891 36.4453H149.146L149.707 49.5765L152.288 36.4453H155.319L150.829 59.1163H147.575L147.126 46.434L144.657 59.1163H141.514L145.891 36.4453Z" fill="url(#paint14_linear_396_1933)"/>
<path d="M163.4 54.7391C162.726 57.8816 160.93 59.4528 157.788 59.4528C154.645 59.4528 153.411 57.8816 154.084 54.7391L156.778 40.9345C157.451 37.792 159.247 36.2207 162.389 36.2207C165.532 36.2207 166.767 37.792 166.205 40.9345L163.4 54.7391ZM162.838 40.8222C163.063 39.8121 162.614 39.251 161.716 39.251C160.818 39.251 160.257 39.8121 160.033 40.8222L157.339 54.6268C157.115 55.6369 157.563 56.1981 158.461 56.1981C159.471 56.1981 160.033 55.6369 160.145 54.6268L162.838 40.8222Z" fill="url(#paint15_linear_396_1933)"/>
<path opacity="0.1" d="M57.1154 65.7383L45.1065 60.4633C44.8912 60.3469 44.7197 60.1633 44.6184 59.9404C44.5171 59.7175 44.4915 59.4676 44.5454 59.2288L48.698 46.8832C48.8102 46.5465 48.698 46.3221 48.4735 46.0976L46.6778 44.6386C46.5624 44.5234 46.4805 44.379 46.441 44.2208C46.4014 44.0626 46.4057 43.8966 46.4533 43.7407L51.1671 33.1909C51.3916 32.7419 51.8405 32.4052 52.2894 32.4052L68.3387 30.834C68.7876 30.834 69.3487 31.0584 69.5732 31.3951L74.9604 39.7003C75.2971 40.2615 75.1848 41.0471 74.6237 41.4961L71.4812 43.8529L75.5215 46.2098C75.9705 46.5465 76.3072 47.1077 76.1949 47.6688L73.9503 58.2187C73.838 58.6676 73.6136 59.0043 73.1646 59.1166L58.2377 65.626C57.901 65.8505 57.4521 65.8505 57.1154 65.7383Z" fill="#010101"/>
<path d="M57.1154 64.167L45.1065 58.8921C44.8912 58.7757 44.7197 58.592 44.6184 58.3691C44.5171 58.1462 44.4915 57.8963 44.5454 57.6575L48.698 45.3119C48.8102 44.9752 48.698 44.7508 48.4735 44.5263L46.6778 43.0673C46.5624 42.9521 46.4805 42.8077 46.441 42.6495C46.4014 42.4913 46.4057 42.3254 46.4533 42.1694L51.1671 31.6196C51.3916 31.1706 51.8405 30.8339 52.2894 30.8339L68.3387 29.2627C68.7876 29.2627 69.3487 29.4872 69.5732 29.8239L74.9604 38.1291C75.2971 38.6902 75.1848 39.4758 74.6237 39.9248L71.4812 42.2817L75.5215 44.6385C75.9705 44.9752 76.3072 45.5364 76.1949 46.0976L73.9503 56.6474C73.838 57.0963 73.6136 57.433 73.1646 57.5453L58.2377 64.0547C57.901 64.2792 57.4521 64.2792 57.1154 64.167Z" fill="#FDC110"/>
<path d="M57.6768 62.2594L46.678 57.4334L51.8407 41.9453L59.3602 38.8028L58.1257 43.5165L67.1043 38.1294L65.6453 36.2214L48.6982 42.0575L52.8508 32.7422L68.1144 31.2832L72.9404 38.8028L67.8899 42.5064L74.1749 46.2101L72.0425 55.9743H71.9303L57.6768 62.2594ZM47.3514 57.2089L57.6768 61.6982L71.5936 55.6376L73.6138 46.5468L66.992 42.6187L72.267 38.6905L67.8899 31.8444L53.1875 33.3034L49.596 41.1597L65.7575 35.548L67.7777 38.2416L58.3502 43.9655L65.7575 48.6792L54.6465 53.6175L57.3401 43.9655L58.4624 39.8129L52.1774 42.5064L47.3514 57.2089ZM57.9012 44.1899L55.5443 52.6074L64.7474 48.567L57.9012 44.1899Z" fill="#FEE600"/>
<path d="M49.1471 41.6078L53.0752 32.9659L68.0021 31.6191L72.6036 38.6898L67.441 42.6179L73.8382 46.3216L71.818 55.7491L57.6767 61.9219L47.0146 57.3204L52.0651 42.169L58.9113 39.2509L55.2076 53.0555L65.3085 48.5662L57.9012 43.9647L67.441 38.2409L65.6452 35.884L49.1471 41.6078Z" fill="#010101"/>
<path d="M46.6778 43.0676L48.4735 44.5266C48.698 44.7511 48.8102 45.0878 48.698 45.3122L46.0044 53.5052C53.7561 48.0241 62.5368 44.1682 71.8179 42.1697L74.6237 40.0373C75.1848 39.5884 75.2971 38.8027 74.9604 38.2416L69.5732 29.9364C69.4568 29.721 69.2732 29.5496 69.0503 29.4483C68.8274 29.3469 68.5775 29.3213 68.3386 29.3752L52.2894 30.8342C51.8405 30.8342 51.3916 31.1709 51.1671 31.6199L46.4533 42.1697C46.3411 42.5064 46.3411 42.8431 46.6778 43.0676Z" fill="url(#paint16_linear_396_1933)"/>
<path d="M57.6767 64.3914L57.1155 64.2791L44.9944 59.0042C44.4333 58.7797 44.2088 58.2186 44.321 57.6574L48.4736 45.3119C48.5859 45.0874 48.4736 44.7507 48.2492 44.6385L46.5657 43.1794C46.4123 43.0668 46.3049 42.9023 46.2637 42.7166C46.2224 42.5308 46.2499 42.3363 46.3412 42.1694L51.055 31.6195C51.2794 31.1706 51.7284 30.8339 52.2895 30.7216L68.3388 29.1504C68.8999 29.1504 69.4611 29.3749 69.6856 29.8238L75.0727 38.129C75.5216 38.8024 75.2972 39.7002 74.736 40.1492L71.818 42.2816L75.7461 44.5262C76.3073 44.8629 76.5317 45.5363 76.4195 46.0975L74.1748 56.6473C74.0626 57.0963 73.7259 57.5452 73.277 57.6574L58.3501 64.1669C58.1256 64.3914 57.9011 64.3914 57.6767 64.3914ZM57.2278 64.0547H58.2378L73.1648 57.5452C73.5015 57.433 73.8382 57.0963 73.8382 56.6473L76.0828 46.0975C76.195 45.5363 75.9706 45.0874 75.5216 44.7507L71.2568 42.3938L74.5115 39.9247C75.0727 39.588 75.1849 38.8024 74.8482 38.2412L69.4611 29.936C69.2366 29.5993 68.7877 29.3749 68.3388 29.3749L52.2895 30.9461C51.8406 30.9461 51.5039 31.2828 51.2794 31.6195L46.5657 42.2816C46.4534 42.506 46.5657 42.8427 46.6779 43.0672L48.4736 44.5262C48.8103 44.6385 48.9226 45.0874 48.8103 45.4241L44.6577 57.7697C44.5455 58.2186 44.77 58.6675 45.1067 58.892L57.2278 64.0547Z" fill="#D7AB28"/>
</g>
</g>
</g>
<defs>
<linearGradient id="paint0_linear_396_1933" x1="79.4497" y1="59.4528" x2="79.4497" y2="36.1085" gradientUnits="userSpaceOnUse">
<stop offset="0.4" stop-color="#E6E6E5"/>
<stop offset="0.5" stop-color="#CCCCCC"/>
<stop offset="1" stop-color="#E6E6E5"/>
</linearGradient>
<linearGradient id="paint1_linear_396_1933" x1="90.6731" y1="59.1163" x2="90.6731" y2="36.4453" gradientUnits="userSpaceOnUse">
<stop offset="0.4" stop-color="#E6E6E5"/>
<stop offset="0.5" stop-color="#CCCCCC"/>
<stop offset="1" stop-color="#E6E6E5"/>
</linearGradient>
<linearGradient id="paint2_linear_396_1933" x1="107.845" y1="59.4528" x2="107.845" y2="36.1085" gradientUnits="userSpaceOnUse">
<stop offset="0.4" stop-color="#E6E6E5"/>
<stop offset="0.5" stop-color="#CCCCCC"/>
<stop offset="1" stop-color="#E6E6E5"/>
</linearGradient>
<linearGradient id="paint3_linear_396_1933" x1="117.609" y1="59.1163" x2="117.609" y2="36.4453" gradientUnits="userSpaceOnUse">
<stop offset="0.4" stop-color="#E6E6E5"/>
<stop offset="0.5" stop-color="#CCCCCC"/>
<stop offset="1" stop-color="#E6E6E5"/>
</linearGradient>
<linearGradient id="paint4_linear_396_1933" x1="130.852" y1="59.4527" x2="130.852" y2="36.1084" gradientUnits="userSpaceOnUse">
<stop offset="0.4" stop-color="#E6E6E5"/>
<stop offset="0.5" stop-color="#CCCCCC"/>
<stop offset="1" stop-color="#E6E6E5"/>
</linearGradient>
<linearGradient id="paint5_linear_396_1933" x1="139.494" y1="59.1163" x2="139.494" y2="36.4453" gradientUnits="userSpaceOnUse">
<stop offset="0.4" stop-color="#E6E6E5"/>
<stop offset="0.5" stop-color="#CCCCCC"/>
<stop offset="1" stop-color="#E6E6E5"/>
</linearGradient>
<linearGradient id="paint6_linear_396_1933" x1="148.361" y1="59.1163" x2="148.361" y2="36.4453" gradientUnits="userSpaceOnUse">
<stop offset="0.4" stop-color="#E6E6E5"/>
<stop offset="0.5" stop-color="#CCCCCC"/>
<stop offset="1" stop-color="#E6E6E5"/>
</linearGradient>
<linearGradient id="paint7_linear_396_1933" x1="160.033" y1="59.4528" x2="160.033" y2="36.1085" gradientUnits="userSpaceOnUse">
<stop offset="0.4" stop-color="#E6E6E5"/>
<stop offset="0.5" stop-color="#CCCCCC"/>
<stop offset="1" stop-color="#E6E6E5"/>
</linearGradient>
<linearGradient id="paint8_linear_396_1933" x1="79.4497" y1="59.4528" x2="79.4497" y2="36.1085" gradientUnits="userSpaceOnUse">
<stop offset="0.4" stop-color="#E6E6E5"/>
<stop offset="0.5" stop-color="#CCCCCC"/>
<stop offset="1" stop-color="#E6E6E5"/>
</linearGradient>
<linearGradient id="paint9_linear_396_1933" x1="90.6731" y1="59.1163" x2="90.6731" y2="36.4453" gradientUnits="userSpaceOnUse">
<stop offset="0.4" stop-color="#E6E6E5"/>
<stop offset="0.5" stop-color="#CCCCCC"/>
<stop offset="1" stop-color="#E6E6E5"/>
</linearGradient>
<linearGradient id="paint10_linear_396_1933" x1="107.845" y1="59.4528" x2="107.845" y2="36.1085" gradientUnits="userSpaceOnUse">
<stop offset="0.4" stop-color="#E6E6E5"/>
<stop offset="0.5" stop-color="#CCCCCC"/>
<stop offset="1" stop-color="#E6E6E5"/>
</linearGradient>
<linearGradient id="paint11_linear_396_1933" x1="117.609" y1="59.1163" x2="117.609" y2="36.4453" gradientUnits="userSpaceOnUse">
<stop offset="0.4" stop-color="#E6E6E5"/>
<stop offset="0.5" stop-color="#CCCCCC"/>
<stop offset="1" stop-color="#E6E6E5"/>
</linearGradient>
<linearGradient id="paint12_linear_396_1933" x1="130.852" y1="59.4527" x2="130.852" y2="36.1084" gradientUnits="userSpaceOnUse">
<stop offset="0.4" stop-color="#E6E6E5"/>
<stop offset="0.5" stop-color="#CCCCCC"/>
<stop offset="1" stop-color="#E6E6E5"/>
</linearGradient>
<linearGradient id="paint13_linear_396_1933" x1="139.494" y1="59.1163" x2="139.494" y2="36.4453" gradientUnits="userSpaceOnUse">
<stop offset="0.4" stop-color="#E6E6E5"/>
<stop offset="0.5" stop-color="#CCCCCC"/>
<stop offset="1" stop-color="#E6E6E5"/>
</linearGradient>
<linearGradient id="paint14_linear_396_1933" x1="148.36" y1="59.1163" x2="148.36" y2="36.4453" gradientUnits="userSpaceOnUse">
<stop offset="0.4" stop-color="#E6E6E5"/>
<stop offset="0.5" stop-color="#CCCCCC"/>
<stop offset="1" stop-color="#E6E6E5"/>
</linearGradient>
<linearGradient id="paint15_linear_396_1933" x1="160.033" y1="59.4528" x2="160.033" y2="36.1085" gradientUnits="userSpaceOnUse">
<stop offset="0.4" stop-color="#E6E6E5"/>
<stop offset="0.5" stop-color="#CCCCCC"/>
<stop offset="1" stop-color="#E6E6E5"/>
</linearGradient>
<linearGradient id="paint16_linear_396_1933" x1="50.7182" y1="54.6275" x2="67.7775" y2="28.4774" gradientUnits="userSpaceOnUse">
<stop stop-color="white"/>
<stop offset="0.7" stop-color="white" stop-opacity="0"/>
</linearGradient>
<clipPath id="clip0_396_1933">
<rect width="122.59" height="36.7" fill="white" transform="translate(44.3049 29.1504)"/>
</clipPath>
<clipPath id="clip1_396_1933">
<rect width="122.59" height="36.7" fill="white" transform="translate(44.3049 29.1504)"/>
</clipPath>
<clipPath id="clip2_396_1933">
<rect width="122.558" height="36.7" fill="white" transform="translate(44.321 29.1504)"/>
</clipPath>
</defs>
</svg>
