<svg width="212" height="95" viewBox="0 0 212 95" fill="none" xmlns="http://www.w3.org/2000/svg">
<rect x="0.199951" width="211.2" height="95" rx="16" fill="#0A0808"/>
<g clip-path="url(#clip0_396_2855)">
<g clip-path="url(#clip1_396_2855)">
<g clip-path="url(#clip2_396_2855)">
<path d="M66.449 71.0416C65.1506 71.0416 63.9096 70.6788 62.764 70.0487L48.2341 61.8769C47.1174 61.2774 46.1825 60.3886 45.5274 59.3035C44.8724 58.2185 44.5213 56.9772 44.511 55.7098V39.3852C44.511 36.8267 45.9239 34.44 48.196 33.1799L62.764 25.0271C65.0552 23.767 67.8428 23.767 70.153 25.0271L84.6638 33.199C86.9741 34.4591 88.3679 36.8267 88.3679 39.3852V55.6907C88.3679 58.2492 86.955 60.6167 84.6829 61.8578L70.153 70.0296C68.9884 70.6788 67.7473 71.0416 66.449 71.0416ZM66.449 24.8935C65.5243 24.9059 64.6153 25.1347 63.795 25.5617L48.1769 34.3446C47.3908 34.7826 46.7326 35.418 46.2672 36.1881C45.8018 36.9583 45.5453 37.8364 45.5229 38.736V56.3017C45.5229 58.1155 46.5158 59.7766 48.1769 60.6931L63.795 69.4377C65.3798 70.3542 67.4418 70.3542 69.0266 69.4377L84.6638 60.6931C85.4463 60.2526 86.1007 59.6162 86.5626 58.8462C87.0246 58.0763 87.2783 57.1993 87.2987 56.3017V38.7742C87.2987 36.9412 86.3058 35.2992 84.6638 34.3828L69.0838 25.5808C68.2842 25.1316 67.3852 24.8888 66.4681 24.8744L66.449 24.8935Z" fill="#FEC882"/>
<path fill-rule="evenodd" clip-rule="evenodd" d="M69.7139 29.5144L81.5134 36.1588C82.4009 36.6644 83.1397 37.3946 83.6558 38.276C84.1719 39.1573 84.4471 40.159 84.4538 41.1803V54.3164C84.4538 56.3975 83.3082 58.3259 81.4753 59.3379L69.6948 65.9632C68.7832 66.4785 67.7539 66.7493 66.7067 66.7493C65.6596 66.7493 64.6302 66.4785 63.7186 65.9632L51.9764 59.376C51.0757 58.8808 50.3232 58.1545 49.7963 57.272C49.2695 56.3894 48.9873 55.3824 48.9788 54.3545V41.1803C48.9788 39.0801 50.1243 37.1707 51.9764 36.1588L63.7186 29.5144C64.6353 29.0147 65.6627 28.7529 66.7067 28.7529C67.7507 28.7529 68.7781 29.0147 69.6948 29.5144H69.7139ZM70.4776 56.6839H75.0218V38.4309H70.4967V49.7531L62.9358 38.4309H58.3917V56.6839H62.9358V45.4762L70.4967 56.6839H70.4776Z" fill="#FEC882"/>
<path d="M108.301 45.2853H105.552L100.969 38.4882V45.2853H98.22V34.2113H100.969L105.552 41.0848V34.2113H108.301V45.2853ZM113.609 36.4261C114.296 36.4261 114.888 36.5789 115.366 36.8844C115.862 37.1898 116.225 37.5908 116.473 38.1254V36.5216H119.203V45.2662H116.473V43.6815C116.225 44.197 115.9 44.6171 115.366 44.9035C114.783 45.2094 114.133 45.3629 113.475 45.3495C112.817 45.3362 112.174 45.1564 111.604 44.8271C111.016 44.4355 110.542 43.8954 110.23 43.2615C109.894 42.5184 109.731 41.709 109.752 40.8939C109.752 39.9774 109.905 39.1755 110.23 38.5073C110.531 37.869 111.01 37.3313 111.61 36.9587C112.209 36.5862 112.903 36.3946 113.609 36.407V36.4261ZM114.487 38.7937C113.895 38.7937 113.418 38.9846 113.055 39.3665C112.712 39.7292 112.521 40.2638 112.521 40.9321C112.521 41.6004 112.712 42.135 113.055 42.4977C113.437 42.8605 113.895 43.0705 114.487 43.0705C115.06 43.0705 115.537 42.8796 115.881 42.4977C116.263 42.1159 116.454 41.6004 116.454 40.9512C116.454 40.302 116.263 39.7674 115.881 39.4046C115.713 39.2003 115.5 39.0385 115.257 38.9323C115.015 38.8261 114.751 38.7786 114.487 38.7937ZM126.153 42.9751V45.2662H124.893C124.009 45.3273 123.133 45.0624 122.43 44.5216C121.857 44.0252 121.552 43.1851 121.552 42.0013V38.8128H120.349V36.5598H121.552V34.4022H124.32V36.5407H126.115V38.7937H124.32V42.0395C124.32 42.3832 124.378 42.6314 124.511 42.765C124.664 42.8987 124.893 42.956 125.256 42.956H126.153V42.9751ZM127.432 34.0968C127.432 33.6958 127.566 33.3712 127.872 33.1039C128.202 32.8264 128.624 32.6833 129.055 32.703C129.552 32.703 129.953 32.8366 130.239 33.0848C130.545 33.3712 130.678 33.6958 130.678 34.0968C130.678 34.4977 130.545 34.8223 130.239 35.0896C129.906 35.3602 129.484 35.4965 129.055 35.4715C128.559 35.4715 128.158 35.3569 127.872 35.0896C127.733 34.964 127.622 34.8108 127.547 34.6398C127.471 34.4688 127.432 34.2838 127.432 34.0968ZM130.43 36.5598V45.3044H127.7V36.5598H130.43ZM136.521 36.4261C137.418 36.4261 138.201 36.6171 138.888 36.9989C139.614 37.3235 140.148 37.8581 140.549 38.5264C140.931 39.1946 141.141 39.9965 141.141 40.913C141.141 41.8295 140.95 42.6314 140.549 43.2805C140.168 43.9488 139.595 44.4834 138.888 44.8462C138.152 45.2068 137.341 45.3899 136.521 45.3808C135.623 45.3808 134.821 45.1899 134.115 44.8462C133.409 44.4834 132.855 43.9488 132.454 43.2805C132.072 42.6123 131.862 41.8295 131.862 40.913C131.862 39.9965 132.053 39.1946 132.435 38.5264C132.855 37.8581 133.39 37.3235 134.115 36.9989C134.821 36.6171 135.643 36.4261 136.521 36.4261ZM136.521 38.7555C135.986 38.7555 135.547 38.9464 135.184 39.3283C134.821 39.691 134.65 40.2066 134.65 40.9321C134.65 41.6385 134.841 42.1731 135.165 42.5359C135.547 42.8987 135.986 43.0896 136.502 43.0896C137.036 43.0896 137.456 42.8987 137.838 42.5168C138.182 42.1731 138.373 41.6385 138.373 40.9321C138.373 40.2066 138.182 39.691 137.838 39.3283C137.495 38.9464 137.036 38.7555 136.502 38.7555H136.521ZM148.263 36.4643C148.719 36.4367 149.175 36.5115 149.598 36.6833C150.021 36.8552 150.4 37.1196 150.707 37.4571C151.318 38.1254 151.623 39.0419 151.623 40.2066V45.3044H148.874V40.5311C148.874 39.9583 148.721 39.5001 148.397 39.1946C148.237 39.0211 148.042 38.8837 147.824 38.7915C147.607 38.6993 147.373 38.6545 147.137 38.66C146.564 38.66 146.125 38.8319 145.8 39.1755C145.449 39.5823 145.271 40.1097 145.304 40.6457V45.2853H142.554V36.5216H145.304V38.1254C145.571 37.5908 145.934 37.1708 146.449 36.8844C146.984 36.6171 147.576 36.4643 148.263 36.4643ZM156.836 36.4261C157.542 36.4261 158.115 36.5789 158.612 36.8844C159.108 37.1898 159.471 37.5908 159.719 38.1254V36.5216H162.43V45.2662H159.719V43.6815C159.471 44.197 159.127 44.6171 158.612 44.9035C158.029 45.2094 157.379 45.3629 156.721 45.3495C156.063 45.3362 155.42 45.1564 154.85 44.8271C154.262 44.4355 153.788 43.8954 153.475 43.2615C153.129 42.5273 152.953 41.7246 152.96 40.913C152.96 39.9965 153.132 39.1946 153.456 38.5264C153.756 37.8911 154.233 37.3554 154.828 36.9831C155.424 36.6107 156.114 36.4174 156.817 36.4261H156.836ZM157.733 38.8128C157.16 38.8128 156.683 39.0037 156.32 39.3856C155.977 39.7483 155.786 40.2829 155.786 40.9512C155.786 41.6194 155.977 42.1541 156.32 42.5168C156.683 42.8796 157.141 43.0896 157.733 43.0896C158.306 43.0896 158.802 42.8987 159.165 42.5168C159.528 42.135 159.738 41.6194 159.738 40.9703C159.738 40.3211 159.547 39.7865 159.165 39.4237C158.989 39.2198 158.768 39.0588 158.52 38.9529C158.272 38.8471 158.003 38.7991 157.733 38.8128ZM167.051 33.7149V45.3044H164.301V33.7149H167.051ZM102.325 52.2161C103.471 52.2161 104.425 52.5216 105.17 53.0944C105.934 53.6863 106.392 54.4882 106.564 55.5001H104.616C104.521 54.9464 104.253 54.5455 103.833 54.24C103.383 53.9193 102.839 53.7581 102.287 53.7818C101.58 53.7818 100.988 54.0109 100.511 54.5073C100.053 54.9846 99.8047 55.7102 99.8047 56.6457C99.8047 57.5813 100.053 58.2877 100.511 58.7842C100.988 59.2615 101.58 59.5097 102.287 59.5097C102.917 59.5097 103.432 59.3379 103.814 59.0324C104.253 58.7269 104.502 58.3068 104.616 57.7531H106.564C106.373 58.7842 105.915 59.567 105.17 60.178C104.406 60.7507 103.49 61.0753 102.325 61.0753C101.466 61.0753 100.721 60.8844 100.034 60.5407C99.4038 60.1971 98.8882 59.6624 98.5064 59.0133C98.1245 58.345 97.9336 57.5622 97.9336 56.6648C97.9336 55.7674 98.1245 54.9655 98.5064 54.3164C98.8692 53.6481 99.4038 53.1517 100.034 52.7889C100.723 52.3723 101.521 52.1727 102.325 52.2161ZM111.852 52.2161C112.654 52.2161 113.342 52.4071 113.915 52.7889C114.487 53.1708 114.869 53.6672 115.117 54.3164V52.2925H116.931V60.9035H115.117V58.8987C114.869 59.5288 114.487 60.0443 113.915 60.4262C113.342 60.808 112.654 60.999 111.852 60.999C111.089 60.999 110.401 60.808 109.79 60.4644C109.18 60.1041 108.689 59.5731 108.378 58.9369C108.027 58.2048 107.857 57.3996 107.881 56.5885C107.881 55.6911 108.034 54.8892 108.378 54.24C108.721 53.5717 109.199 53.0562 109.79 52.7125C110.42 52.3689 111.108 52.2161 111.852 52.2161ZM112.425 53.7818C111.623 53.7818 110.955 54.03 110.478 54.5455C110.225 54.8273 110.031 55.1563 109.907 55.5135C109.782 55.8707 109.73 56.249 109.752 56.6266C109.752 57.4858 109.981 58.2114 110.478 58.7269C110.955 59.2233 111.623 59.4715 112.425 59.4715C112.9 59.4933 113.372 59.3791 113.785 59.1424C114.197 58.9057 114.534 58.5562 114.755 58.135C115.003 57.6959 115.117 57.1803 115.117 56.6075C115.117 56.0347 114.984 55.5574 114.774 55.1374C114.526 54.6982 114.201 54.3736 113.819 54.1445C113.399 53.8963 112.941 53.7627 112.425 53.7627V53.7818ZM122.067 52.2161C123.098 52.2161 123.938 52.4643 124.549 52.9799C125.179 53.4954 125.561 54.1827 125.695 55.061H123.977C123.921 54.6179 123.695 54.2139 123.347 53.9345C123.022 53.6481 122.583 53.4954 122.01 53.4954C121.533 53.4954 121.189 53.5908 120.922 53.82C120.674 54.0109 120.559 54.2973 120.559 54.66C120.559 54.9273 120.635 55.1565 120.826 55.3283C121.017 55.481 121.227 55.6147 121.495 55.7102C121.781 55.8056 122.163 55.9011 122.678 56.0157C123.347 56.1493 123.881 56.3211 124.282 56.4548C124.702 56.6266 125.046 56.8558 125.332 57.2185C125.638 57.5431 125.79 58.0013 125.79 58.5932C125.79 59.2997 125.504 59.8916 124.931 60.3307C124.283 60.8151 123.486 61.0582 122.678 61.0181C121.571 61.0181 120.674 60.7698 120.005 60.2543C119.668 60.0051 119.385 59.6908 119.172 59.33C118.959 58.9693 118.82 58.5694 118.764 58.1541H120.559C120.58 58.3801 120.649 58.5991 120.761 58.7966C120.872 58.9941 121.025 59.1655 121.208 59.2997C121.59 59.5861 122.086 59.7579 122.697 59.7579C123.069 59.779 123.436 59.6636 123.728 59.4333C123.996 59.2042 124.11 58.9178 124.11 58.5741C124.11 58.2686 124.015 58.0204 123.824 57.8677C123.633 57.6768 123.404 57.5622 123.098 57.4476C122.711 57.3206 122.315 57.2186 121.915 57.1422C121.382 57.038 120.858 56.8911 120.349 56.703C119.967 56.5503 119.623 56.3211 119.318 55.9966C119.031 55.672 118.898 55.2328 118.898 54.66C118.898 53.9154 119.184 53.3235 119.719 52.8844C120.401 52.397 121.231 52.1608 122.067 52.2161ZM127.375 49.8104C127.368 49.6669 127.394 49.5237 127.45 49.3914C127.506 49.2592 127.592 49.1413 127.7 49.0467C127.91 48.8557 128.177 48.7603 128.54 48.7603C128.922 48.7603 129.17 48.8557 129.399 49.0658C129.628 49.2567 129.743 49.5049 129.743 49.8104C129.743 50.1159 129.628 50.3641 129.399 50.5359C129.157 50.733 128.852 50.8348 128.54 50.8223C128.177 50.8223 127.91 50.7269 127.7 50.5359C127.597 50.4454 127.514 50.3337 127.458 50.2085C127.402 50.0833 127.374 49.9475 127.375 49.8104ZM129.475 52.2925V60.9226H127.623V52.3116H129.456L129.475 52.2925ZM136.616 52.1779C137.647 52.1779 138.468 52.5025 139.098 53.1326C139.728 53.8009 140.034 54.7173 140.034 55.9011V60.9226H138.201V56.092C138.201 55.3283 138.01 54.7364 137.59 54.2973C137.189 53.8772 136.635 53.6481 135.929 53.6481C135.604 53.6314 135.279 53.6841 134.977 53.8026C134.674 53.9211 134.4 54.1028 134.172 54.3355C133.733 54.7937 133.523 55.462 133.523 56.3402V60.9226H131.69V52.3116H133.523V54.2018C133.771 53.5526 134.153 53.0562 134.707 52.6935C135.261 52.3498 135.891 52.1588 136.616 52.1588V52.1779ZM146.22 52.2161C147.06 52.2161 147.843 52.4071 148.53 52.7316C149.218 53.0753 149.752 53.6099 150.134 54.2591C150.516 54.9273 150.707 55.7102 150.707 56.6075C150.707 57.524 150.516 58.2877 150.134 58.956C149.752 59.6243 149.218 60.1398 148.53 60.4834C147.813 60.8401 147.021 61.0232 146.22 61.0181C145.361 61.0181 144.578 60.8271 143.891 60.4834C143.227 60.1301 142.672 59.6019 142.287 58.956C141.905 58.2877 141.714 57.4858 141.714 56.6075C141.714 55.7102 141.905 54.9083 142.287 54.2591C142.669 53.5908 143.242 53.0753 143.891 52.7316C144.578 52.3689 145.361 52.2161 146.22 52.2161ZM146.22 53.7436C145.761 53.7447 145.309 53.856 144.903 54.0682C144.521 54.2591 144.196 54.5837 143.948 55.0228C143.719 55.462 143.604 55.9775 143.604 56.6266C143.604 57.2567 143.738 57.7722 143.948 58.2305C144.196 58.6505 144.521 58.9942 144.903 59.1851C145.285 59.376 145.743 59.4906 146.22 59.4906C146.671 59.4924 147.116 59.3877 147.518 59.1851C147.9 58.9942 148.225 58.6505 148.473 58.2305C148.721 57.7913 148.836 57.2758 148.836 56.6266C148.836 55.9966 148.721 55.462 148.454 55.0419C148.225 54.5837 147.919 54.2782 147.499 54.0682C147.102 53.8685 146.664 53.7639 146.22 53.7627V53.7436Z" fill="#FEC882"/>
</g>
</g>
</g>
<defs>
<clipPath id="clip0_396_2855">
<rect width="122.59" height="47.16" fill="white" transform="translate(44.5049 23.9199)"/>
</clipPath>
<clipPath id="clip1_396_2855">
<rect width="122.59" height="47.16" fill="white" transform="translate(44.5049 23.9199)"/>
</clipPath>
<clipPath id="clip2_396_2855">
<rect width="122.578" height="47.16" fill="white" transform="translate(44.511 23.9199)"/>
</clipPath>
</defs>
</svg>
