<svg width="212" height="95" viewBox="0 0 212 95" fill="none" xmlns="http://www.w3.org/2000/svg">
<rect x="0.600098" width="211.2" height="95" rx="16" fill="#0A0808"/>
<g clip-path="url(#clip0_396_1977)">
<g clip-path="url(#clip1_396_1977)">
<g clip-path="url(#clip2_396_1977)">
<path d="M106.33 17.2881C114.354 17.2996 122.045 20.4983 127.711 26.1805C133.377 31.8627 136.554 39.5629 136.542 47.5873C136.531 55.6117 133.332 63.3029 127.65 68.9689C121.968 74.6349 114.267 77.8116 106.243 77.8001C98.2187 77.7886 90.5275 74.59 84.8615 68.9078C79.1955 63.2256 76.0188 55.5253 76.0303 47.5009C76.0418 39.4765 79.2404 31.7853 84.9226 26.1193C90.6048 20.4533 98.3051 17.2767 106.33 17.2881Z" fill="url(#paint0_linear_396_1977)"/>
<path d="M48.0653 33.2803H164.508C165.372 33.2803 165.977 33.9718 165.977 34.7499V60.3378C165.977 61.2022 165.286 61.8074 164.508 61.8074H48.0653C47.2008 61.8074 46.5957 61.1158 46.5957 60.3378V34.8363C46.5957 33.9718 47.2873 33.2803 48.0653 33.2803Z" fill="#102444"/>
<path d="M124.051 39.0717C123.878 38.6394 123.619 38.2936 123.273 37.9479C122.927 37.6021 122.581 37.3427 122.063 37.1699C121.63 36.997 121.198 36.9105 120.68 36.9105H110.652C109.94 36.9005 109.241 37.1 108.641 37.4842C108.042 37.8685 107.569 38.4205 107.28 39.0717C107.108 39.5039 107.021 39.9361 107.021 40.4548V54.8912C107.006 55.3589 107.09 55.8244 107.269 56.2568C107.448 56.6891 107.717 57.0783 108.058 57.3981C108.404 57.7439 108.75 58.0033 109.269 58.1762C109.701 58.3491 110.133 58.4355 110.652 58.4355H120.68C121.391 58.4455 122.091 58.246 122.69 57.8618C123.29 57.4775 123.763 56.9255 124.051 56.2744C124.224 55.8421 124.31 55.4099 124.31 54.8912V40.4548C124.397 39.9361 124.31 39.5039 124.051 39.0717ZM121.198 52.4707C121.198 53.0759 121.112 53.5081 120.939 53.7674C120.766 54.1132 120.42 54.1997 119.902 54.1997C119.296 54.1997 118.778 53.8539 118.259 53.1623L113.072 46.2467V52.0385C113.072 53.4216 112.554 54.1132 111.603 54.1132C110.652 54.1132 110.133 53.4216 110.133 52.0385V43.2211C110.133 42.6159 110.22 42.0973 110.479 41.7515C110.652 41.4057 110.998 41.2328 111.516 41.2328C111.862 41.2328 112.121 41.3192 112.381 41.4921L113.072 42.1837L118.432 49.2723V43.3075C118.432 41.9244 118.951 41.2328 119.902 41.2328C120.852 41.2328 121.371 41.9244 121.371 43.3075V52.4707H121.198Z" fill="#E44031"/>
<path d="M67.4291 39.0717C67.2562 38.6394 66.9969 38.2936 66.6511 37.9479C66.3053 37.6021 65.9595 37.3427 65.4408 37.1699C65.0086 36.997 64.5764 36.9105 64.0577 36.9105H54.03C53.3181 36.9005 52.6189 37.1 52.0194 37.4842C51.42 37.8685 50.9468 38.4205 50.6586 39.0717C50.4857 39.5039 50.3993 39.9361 50.3993 40.4548V54.8912C50.3837 55.3589 50.4682 55.8244 50.6471 56.2568C50.826 56.6891 51.0952 57.0783 51.4366 57.3981C51.7824 57.7439 52.1282 58.0033 52.6469 58.1762C53.0791 58.3491 53.5113 58.4355 54.03 58.4355H64.0577C64.7697 58.4455 65.4689 58.246 66.0683 57.8618C66.6677 57.4775 67.141 56.9255 67.4291 56.2744C67.602 55.8421 67.6884 55.4099 67.6884 54.8912V40.4548C67.7749 39.9361 67.6884 39.5039 67.4291 39.0717ZM63.1068 51.6927C62.8475 52.2114 62.5881 52.6436 62.1559 52.9894C61.193 53.8071 59.9608 54.2384 58.6981 54.1997C57.7175 54.1796 56.7496 53.9742 55.8454 53.5945L54.9809 52.9894L54.7216 52.2114C54.7216 51.8656 54.808 51.5198 55.0674 51.347C55.3267 51.0876 55.6725 51.0012 56.1047 51.0012L57.4014 51.2605C57.9201 51.4334 58.4387 51.5198 59.0439 51.5198C59.4761 51.5198 59.8219 51.4334 60.0812 51.1741C60.3405 50.9147 60.5134 50.6554 60.5134 50.3096C60.5134 49.7909 60.3405 49.4451 59.9083 49.1858C59.5625 48.9265 58.9574 48.7536 58.3523 48.5807C57.3955 48.365 56.5055 47.92 55.7589 47.284C55.1538 46.7653 54.8945 46.0738 54.8945 45.1229C54.8945 44.6042 54.9809 44.0855 55.2402 43.5668C55.4131 43.0482 55.7589 42.7024 56.1047 42.3566C56.4505 42.0108 56.9692 41.7515 57.4878 41.4921C58.0065 41.3192 58.6981 41.2328 59.3032 41.2328C60.3405 41.2328 61.1186 41.4057 61.7237 41.7515C62.3288 42.0973 62.6746 42.5295 62.6746 43.0482C62.6746 43.3939 62.5881 43.7397 62.3288 43.9126C62.0695 44.0855 61.8101 44.2584 61.3779 44.2584L60.2541 43.9991C59.9037 43.8294 59.5196 43.7407 59.1303 43.7397C58.6981 43.7397 58.3523 43.8262 58.093 43.9991C57.8336 44.172 57.7472 44.4313 57.7472 44.7771C57.7472 45.2093 57.9201 45.5551 58.3523 45.6415L59.9948 46.2467C61.1186 46.5924 61.983 47.1111 62.5881 47.7162C63.1933 48.3214 63.4526 49.0994 63.4526 50.0503C63.474 50.6178 63.3552 51.1819 63.1068 51.6927Z" fill="#37AC55"/>
<path d="M86.3607 39.0717C86.1878 38.6394 85.9285 38.2936 85.5827 37.9479C85.2369 37.6021 84.8912 37.3427 84.3725 37.1699C83.9403 36.997 83.508 36.9105 82.9893 36.9105H72.9616C72.2497 36.9005 71.5505 37.1 70.9511 37.4842C70.3516 37.8685 69.8784 38.4205 69.5903 39.0717C69.4174 39.5039 69.3309 39.9361 69.3309 40.4548V54.8912C69.3153 55.3589 69.3998 55.8244 69.5787 56.2568C69.7576 56.6891 70.0268 57.0783 70.3683 57.3981C70.7141 57.7439 71.0598 58.0033 71.5785 58.1762C72.0107 58.3491 72.443 58.4355 72.9616 58.4355H82.9893C83.7013 58.4455 84.4005 58.246 84.9999 57.8618C85.5994 57.4775 86.0726 56.9255 86.3607 56.2744C86.5336 55.8421 86.6201 55.4099 86.6201 54.8912V40.4548C86.7065 39.9361 86.5336 39.5039 86.3607 39.0717ZM81.4333 48.6671C80.6553 49.4451 79.618 49.7909 78.1484 49.7909H76.1601V51.9521C76.1601 53.3352 75.6415 54.0268 74.6906 54.0268C73.7397 54.0268 73.221 53.3352 73.221 51.9521V43.2211C73.221 42.5295 73.3074 42.0108 73.5668 41.665C73.8261 41.3192 74.3448 41.1464 75.2092 41.1464H77.8026C79.2722 41.1464 80.396 41.5786 81.2604 42.3566C82.1249 43.1346 82.4707 44.172 82.4707 45.4686C82.6436 46.8518 82.2113 47.8891 81.4333 48.6671Z" fill="#9BC230"/>
<path d="M77.6297 43.9131H76.4194V47.198H77.6297C78.9264 47.198 79.6179 46.6793 79.6179 45.5556C79.6179 44.5182 78.9264 43.9131 77.6297 43.9131Z" fill="#F5AE33"/>
<path d="M105.206 39.0717C105.033 38.6394 104.773 38.2936 104.428 37.9479C104.082 37.6021 103.736 37.3427 103.217 37.1699C102.785 36.997 102.353 36.9105 101.834 36.9105H91.8066C91.0947 36.9005 90.3955 37.1 89.796 37.4842C89.1966 37.8685 88.7234 38.4205 88.4352 39.0717C88.2623 39.5039 88.1759 39.9361 88.1759 40.4548V54.8912C88.1603 55.3589 88.2448 55.8244 88.4237 56.2568C88.6026 56.6891 88.8718 57.0783 89.2132 57.3981C89.559 57.7439 89.9048 58.0033 90.4235 58.1762C90.8557 58.3491 91.2879 58.4355 91.8066 58.4355H101.834C102.546 58.4455 103.245 58.246 103.845 57.8618C104.444 57.4775 104.918 56.9255 105.206 56.2744C105.379 55.8421 105.465 55.4099 105.465 54.8912V40.4548C105.465 39.9361 105.379 39.5039 105.206 39.0717ZM98.2036 52.125C98.2036 53.5081 97.6849 54.1997 96.734 54.1997C95.7831 54.1997 95.2644 53.5081 95.2644 52.125V43.2211C95.2644 41.8379 95.7831 41.1464 96.734 41.1464C97.6849 41.1464 98.2036 41.8379 98.2036 43.2211V52.125Z" fill="#E29F2F"/>
<path d="M142.983 39.0717C142.81 38.6394 142.55 38.2936 142.205 37.9479C141.859 37.6021 141.513 37.3427 140.994 37.1699C140.562 36.997 140.13 36.9105 139.611 36.9105H129.583C128.872 36.9005 128.172 37.1 127.573 37.4842C126.973 37.8685 126.5 38.4205 126.212 39.0717C126.039 39.5039 125.953 39.9361 125.953 40.4548V54.8912C125.937 55.3589 126.022 55.8244 126.201 56.2568C126.379 56.6891 126.649 57.0783 126.99 57.3981C127.336 57.7439 127.682 58.0033 128.2 58.1762C128.633 58.3491 129.065 58.4355 129.583 58.4355H139.611C140.323 58.4455 141.022 58.246 141.622 57.8618C142.221 57.4775 142.694 56.9255 142.983 56.2744C143.155 55.8421 143.242 55.4099 143.242 54.8912V40.4548C143.328 39.9361 143.155 39.5039 142.983 39.0717ZM135.894 52.125C135.894 53.5081 135.375 54.1997 134.424 54.1997C133.474 54.1997 132.955 53.5081 132.955 52.125V43.2211C132.955 41.8379 133.474 41.1464 134.424 41.1464C135.375 41.1464 135.894 41.8379 135.894 43.2211V52.125Z" fill="#8B298F"/>
<path d="M161.914 39.0715C161.741 38.6393 161.482 38.2935 161.136 37.9477L160.618 37.5155C159.922 37.0661 159.112 36.8261 158.283 36.8239H148.688C147.942 36.8096 147.208 37.015 146.578 37.4147C145.948 37.8143 145.449 38.3905 145.144 39.0715C144.971 39.5038 144.884 39.936 144.884 40.4547V54.8911C144.869 55.3587 144.953 55.8243 145.132 56.2567C145.311 56.689 145.58 57.0781 145.922 57.398C146.283 57.7622 146.715 58.0496 147.19 58.2427C147.665 58.4358 148.175 58.5308 148.688 58.5218H158.283C159.042 58.5421 159.79 58.3401 160.435 57.9407C161.08 57.5414 161.594 56.9621 161.914 56.2742C162.087 55.842 162.174 55.4098 162.174 54.8911V40.4547C162.174 39.936 162.087 39.5038 161.914 39.0715ZM158.716 53.7673C158.456 54.0266 158.111 54.1131 157.678 54.1131C156.987 54.1131 156.468 53.6809 156.122 52.73L155.69 51.2604H151.195L150.676 52.8164C150.417 53.6809 149.898 54.1131 149.293 54.1131C148.861 54.1131 148.602 54.0266 148.342 53.7673C148.083 53.508 147.996 53.1622 147.996 52.8164L148.083 51.9519L151.368 43.048C151.8 41.8378 152.578 41.1462 153.615 41.1462C154.653 41.1462 155.344 41.6649 155.777 42.7887L158.975 51.9519L159.148 52.4706L159.234 52.9028C159.151 53.2361 158.971 53.5371 158.716 53.7673Z" fill="#2377B1"/>
<path d="M153.529 44.1719L152.059 48.5806H154.912L153.529 44.1719Z" fill="#323792"/>
<path d="M77.6297 43.9131H76.4194V47.198H77.6297C78.9264 47.198 79.6179 46.6793 79.6179 45.5556C79.7044 44.5182 79.0128 43.9131 77.6297 43.9131Z" fill="#9BC230"/>
<path d="M153.529 44.1719L152.146 48.5806H154.998L153.615 44.1719H153.529Z" fill="#2377B1"/>
<g opacity="0.3">
<mask id="mask0_396_1977" style="mask-type:luminance" maskUnits="userSpaceOnUse" x="42" y="21" width="129" height="27">
<path d="M42.2734 21.4375H170.905V47.6305H42.2734V21.4375Z" fill="white"/>
</mask>
<g mask="url(#mask0_396_1977)">
<path d="M124.137 39.0725C123.965 38.6403 123.705 38.2945 123.359 37.9487C123.014 37.6029 122.668 37.3436 122.149 37.1707C121.717 36.9978 121.285 36.9114 120.766 36.9114H110.738C110.026 36.9013 109.327 37.1008 108.728 37.4851C108.128 37.8694 107.655 38.4214 107.367 39.0725C107.194 39.5047 107.108 39.937 107.108 40.4556V54.8921C107.092 55.3597 107.177 55.8253 107.355 56.2576C107.534 56.69 107.804 57.0791 108.145 57.399C108.491 57.7448 108.837 58.0041 109.355 58.177C109.787 58.3499 110.22 58.4363 110.738 58.4363H120.766C121.478 58.4464 122.177 58.2469 122.777 57.8626C123.376 57.4784 123.849 56.9263 124.137 56.2752C124.31 55.843 124.397 55.4107 124.397 54.8921V40.4556C124.483 39.937 124.31 39.5047 124.137 39.0725ZM121.285 52.4716C121.285 53.0767 121.198 53.5089 121.025 53.7683C120.853 54.1141 120.507 54.2005 119.988 54.2005C119.383 54.2005 118.864 53.8547 118.346 53.1632L113.159 46.2475V52.0394C113.159 53.4225 112.64 54.1141 111.689 54.1141C110.738 54.1141 110.22 53.4225 110.22 52.0394V43.2219C110.22 42.6168 110.306 42.0981 110.565 41.7523C110.738 41.4065 111.084 41.2337 111.603 41.2337C111.949 41.2337 112.208 41.3201 112.467 41.493L113.159 42.1846L118.518 49.2731V43.3084C118.518 41.9252 119.037 41.2337 119.988 41.2337C120.939 41.2337 121.458 41.9252 121.458 43.3084V52.4716H121.285ZM67.5155 39.0725C67.3426 38.6403 67.0833 38.2945 66.7375 37.9487C66.3917 37.6029 66.0459 37.3436 65.5273 37.1707C65.095 36.9978 64.6628 36.9114 64.1441 36.9114H54.1164C53.4045 36.9013 52.7053 37.1008 52.1058 37.4851C51.5064 37.8694 51.0332 38.4214 50.7451 39.0725C50.5722 39.5047 50.4857 39.937 50.4857 40.4556V54.8921C50.4701 55.3597 50.5546 55.8253 50.7335 56.2576C50.9124 56.69 51.1816 57.0791 51.5231 57.399L52.7333 58.177C53.1655 58.3499 53.5978 58.4363 54.1164 58.4363H64.1441C64.8561 58.4464 65.5553 58.2469 66.1547 57.8626C66.7542 57.4784 67.2274 56.9263 67.5155 56.2752C67.6884 55.843 67.7749 55.4107 67.7749 54.8921V40.4556C67.7749 39.937 67.6884 39.5047 67.5155 39.0725ZM63.1932 51.6936C62.9339 52.2123 62.6746 52.6445 62.2423 52.9903C61.2794 53.808 60.0472 54.2393 58.7845 54.2005C57.804 54.1804 56.8361 53.9751 55.9318 53.5954L55.0673 52.9903L54.808 52.2123C54.808 51.8665 54.8944 51.5207 55.1538 51.3478C55.4131 51.0885 55.7589 51.002 56.1911 51.002L57.4878 51.2614C58.0065 51.4342 58.5252 51.5207 59.1303 51.5207C59.5625 51.5207 59.9083 51.4342 60.1676 51.1749C60.427 50.9156 60.5999 50.6562 60.5999 50.3105C60.5999 49.7918 60.427 49.446 59.9947 49.1867C59.649 48.9273 59.0438 48.7544 58.4387 48.5815C57.482 48.3659 56.5919 47.9209 55.8453 47.2849C55.2402 46.7662 54.9809 46.0746 54.9809 45.1237C54.9809 44.605 55.0673 44.0864 55.3267 43.5677C55.4996 43.049 55.8453 42.7032 56.1911 42.3574C56.5369 42.0117 57.0556 41.7523 57.5743 41.493C58.0929 41.3201 58.7845 41.2337 59.3896 41.2337C60.427 41.2337 61.205 41.4065 61.8101 41.7523C62.4152 42.0981 62.761 42.5303 62.761 43.049C62.761 43.3948 62.6746 43.7406 62.4152 43.9135C62.1559 44.0864 61.8965 44.2593 61.4643 44.2593L60.3405 43.9999C59.9901 43.8302 59.606 43.7416 59.2167 43.7406C58.7845 43.7406 58.4387 43.827 58.1794 43.9999C57.92 44.1728 57.8336 44.4321 57.8336 44.7779C57.8336 45.2102 58.0065 45.5559 58.4387 45.6424L60.0812 46.2475C61.205 46.5933 62.0694 47.112 62.6746 47.7171C63.2797 48.3222 63.539 49.1002 63.539 50.0511C63.5604 50.6187 63.4416 51.1828 63.1932 51.6936ZM86.4471 39.0725C86.2742 38.6403 86.0149 38.2945 85.6691 37.9487C85.3233 37.6029 84.9776 37.3436 84.4589 37.1707C84.0266 36.9978 83.5944 36.9114 83.0757 36.9114H73.048C72.3361 36.9013 71.6369 37.1008 71.0375 37.4851C70.438 37.8694 69.9648 38.4214 69.6767 39.0725C69.5038 39.5047 69.4173 39.937 69.4173 40.4556V54.8921C69.4017 55.3597 69.4862 55.8253 69.6651 56.2576C69.844 56.69 70.1132 57.0791 70.4547 57.399C70.8005 57.7448 71.1462 58.0041 71.6649 58.177C72.0971 58.3499 72.5294 58.4363 73.048 58.4363H83.0757C83.7877 58.4464 84.4869 58.2469 85.0863 57.8626C85.6858 57.4784 86.159 56.9263 86.4471 56.2752C86.62 55.843 86.7065 55.4107 86.7065 54.8921V40.4556C86.7065 39.937 86.62 39.5047 86.4471 39.0725ZM81.5197 48.668C80.7417 49.446 79.7044 49.7918 78.2348 49.7918H76.2465V51.9529C76.2465 53.3361 75.7279 54.0276 74.777 54.0276C73.8261 54.0276 73.3074 53.3361 73.3074 51.9529V43.2219C73.3074 42.5303 73.3938 42.0117 73.6532 41.6659C73.9125 41.3201 74.4312 41.1472 75.2956 41.1472H77.889C79.3586 41.1472 80.4824 41.5794 81.3468 42.3574C82.2113 43.1355 82.5571 44.1728 82.5571 45.4695C82.6435 46.8526 82.2977 47.89 81.5197 48.668ZM105.206 39.0725C105.033 38.6403 104.774 38.2945 104.428 37.9487C104.082 37.6029 103.736 37.3436 103.218 37.1707C102.785 36.9978 102.353 36.9114 101.834 36.9114H91.8068C91.0948 36.9013 90.3956 37.1008 89.7962 37.4851C89.1967 37.8694 88.7235 38.4214 88.4354 39.0725C88.2625 39.5047 88.176 39.937 88.176 40.4556V54.8921C88.1604 55.3597 88.2449 55.8253 88.4238 56.2576C88.6027 56.69 88.8719 57.0791 89.2134 57.399C89.5592 57.7448 89.905 58.0041 90.4236 58.177C90.8559 58.3499 91.2881 58.4363 91.8068 58.4363H101.834C102.546 58.4464 103.246 58.2469 103.845 57.8626C104.444 57.4784 104.918 56.9263 105.206 56.2752C105.379 55.843 105.465 55.4107 105.465 54.8921V40.4556C105.552 39.937 105.465 39.5047 105.206 39.0725ZM98.2037 52.1258C98.2037 53.5089 97.6851 54.2005 96.7342 54.2005C95.7833 54.2005 95.2646 53.5089 95.2646 52.1258V43.2219C95.2646 41.8388 95.7833 41.1472 96.7342 41.1472C97.6851 41.1472 98.2037 41.8388 98.2037 43.2219V52.1258ZM143.069 39.0725C142.896 38.6403 142.637 38.2945 142.291 37.9487C141.945 37.6029 141.599 37.3436 141.081 37.1707C140.649 36.9978 140.216 36.9114 139.698 36.9114H129.67C128.958 36.9013 128.259 37.1008 127.659 37.4851C127.06 37.8694 126.587 38.4214 126.299 39.0725C126.126 39.5047 126.039 39.937 126.039 40.4556V54.8921C126.024 55.3597 126.108 55.8253 126.287 56.2576C126.466 56.69 126.735 57.0791 127.077 57.399C127.422 57.7448 127.768 58.0041 128.287 58.177C128.719 58.3499 129.151 58.4363 129.67 58.4363H139.698C140.41 58.4464 141.109 58.2469 141.708 57.8626C142.308 57.4784 142.781 56.9263 143.069 56.2752C143.242 55.843 143.328 55.4107 143.328 54.8921V40.4556C143.328 39.937 143.242 39.5047 143.069 39.0725ZM135.894 52.1258C135.894 53.5089 135.375 54.2005 134.424 54.2005C133.474 54.2005 132.955 53.5089 132.955 52.1258V43.2219C132.955 41.8388 133.474 41.1472 134.424 41.1472C135.375 41.1472 135.894 41.8388 135.894 43.2219V52.1258ZM161.914 39.0725C161.741 38.6403 161.482 38.2945 161.136 37.9487L160.618 37.5165C159.922 37.0671 159.112 36.8271 158.284 36.8249H148.688C147.942 36.8106 147.208 37.016 146.578 37.4156C145.948 37.8153 145.449 38.3915 145.144 39.0725C144.971 39.5047 144.884 39.937 144.884 40.4556V54.8921C144.869 55.3597 144.953 55.8253 145.132 56.2576C145.311 56.69 145.58 57.0791 145.922 57.399C146.283 57.7632 146.715 58.0506 147.19 58.2437C147.665 58.4368 148.175 58.5318 148.688 58.5228H158.284C159.042 58.543 159.79 58.341 160.435 57.9417C161.08 57.5424 161.594 56.9631 161.914 56.2752C162.087 55.843 162.174 55.4107 162.174 54.8921V40.4556C162.26 39.937 162.174 39.5047 161.914 39.0725ZM158.716 53.7683C158.456 54.0276 158.111 54.1141 157.678 54.1141C156.987 54.1141 156.468 53.6818 156.122 52.7309L155.69 51.2614H151.281L150.763 52.8174C150.503 53.6818 149.985 54.1141 149.38 54.1141C148.947 54.1141 148.688 54.0276 148.429 53.7683C148.169 53.5089 148.083 53.1632 148.083 52.8174L148.169 51.9529L151.454 43.049C151.887 41.8388 152.665 41.1472 153.702 41.1472C154.739 41.1472 155.431 41.6659 155.863 42.7897L159.062 51.9529L159.234 52.4716L159.321 52.9038C159.148 53.2496 159.062 53.5089 158.716 53.7683Z" fill="white"/>
</g>
</g>
</g>
</g>
</g>
<defs>
<linearGradient id="paint0_linear_396_1977" x1="76.1662" y1="47.5498" x2="136.431" y2="47.5498" gradientUnits="userSpaceOnUse">
<stop stop-color="#4F55A7"/>
<stop offset="0.3" stop-color="#5F55A6"/>
<stop offset="0.7" stop-color="#7154A5"/>
<stop offset="1" stop-color="#7654A4"/>
</linearGradient>
<clipPath id="clip0_396_1977">
<rect width="122.59" height="61.29" fill="white" transform="translate(44.905 16.8555)"/>
</clipPath>
<clipPath id="clip1_396_1977">
<rect width="122.59" height="61.29" fill="white" transform="translate(44.905 16.8555)"/>
</clipPath>
<clipPath id="clip2_396_1977">
<rect width="122.58" height="61.29" fill="white" transform="translate(44.9099 16.8555)"/>
</clipPath>
</defs>
</svg>
