<svg width="212" height="95" viewBox="0 0 212 95" fill="none" xmlns="http://www.w3.org/2000/svg">
<rect width="211.2" height="95" rx="16" fill="#0A0808"/>
<g clip-path="url(#clip0_396_2849)">
<g clip-path="url(#clip1_396_2849)">
<g clip-path="url(#clip2_396_2849)">
<path fill-rule="evenodd" clip-rule="evenodd" d="M94.3416 45.2482H97.719V38.4932L100.721 43.1216H100.846L103.974 38.4932V45.2482H107.351V33.3644H103.723L100.846 37.9928L97.9692 33.3644H94.3416V45.2482ZM109.603 45.2482H113.23L114.106 43.1216H118.734L119.61 45.2482H123.363L118.109 33.2393H114.857L109.603 45.2482ZM115.107 40.6198L116.358 37.2423L117.734 40.6198H115.107ZM130.118 45.4983C133.12 45.4983 135.121 43.9972 135.121 41.6205C135.121 39.3689 133.37 38.4932 130.618 37.8677C128.867 37.4925 128.492 37.2423 128.492 36.6168C128.492 36.2416 128.867 35.8663 129.743 35.8663C130.967 35.9431 132.141 36.3781 133.12 37.1172L134.746 34.7405C133.495 33.7397 131.869 33.1143 129.743 33.1143C126.865 33.1143 124.989 34.7405 124.989 36.867C124.989 39.3688 126.991 40.1194 129.617 40.7449C131.369 41.1201 131.744 41.3703 131.744 41.9958C131.744 42.3711 131.244 42.7463 130.368 42.7463C128.867 42.7463 127.616 42.246 126.365 41.3703L124.364 43.4969C125.98 44.8313 128.022 45.5415 130.118 45.4983ZM144.003 45.4983C147.756 45.4983 150.633 42.7463 150.633 39.2438C150.633 35.8663 147.881 33.1143 144.003 33.1143C140.125 33.1143 137.498 35.8663 137.498 39.3688C137.498 42.7463 140.25 45.6234 144.003 45.6234V45.4983ZM144.003 42.4961C143.174 42.4961 142.378 42.1667 141.792 41.5802C141.205 40.9937 140.876 40.1983 140.876 39.3688C140.876 37.6176 142.127 36.1165 144.003 36.1165C145.879 36.1165 147.13 37.6176 147.13 39.3688C147.13 41.1201 145.879 42.4961 144.003 42.4961ZM153.51 45.2482H156.762V38.7434L162.016 45.2482H165.018V33.3644H161.641V39.619L156.637 33.3644H153.51V45.2482ZM100.096 61.385C103.098 61.385 105.099 59.8839 105.099 57.5072C105.099 55.2555 103.223 54.3799 100.471 53.7544C98.7198 53.3791 98.3445 53.129 98.3445 52.5035C98.3445 52.1282 98.7198 51.7529 99.5954 51.7529C100.82 51.8297 101.994 52.2647 102.973 53.0039L104.724 50.502C103.473 49.6264 101.722 49.0009 99.7205 49.0009C96.7183 49.0009 94.967 50.6271 94.967 52.7537C94.967 55.2555 96.9685 56.0061 99.5954 56.5064C101.222 57.0068 101.597 57.257 101.597 57.7574C101.597 58.2577 101.097 58.633 100.221 58.633C98.7198 58.633 97.4688 58.1326 96.2179 57.1319L94.3416 59.3835C95.9582 60.718 98 61.4281 100.096 61.385ZM107.351 61.1348H116.858V58.2577H110.603V49.2511H107.226L107.351 61.1348ZM124.364 61.385C128.116 61.385 130.993 58.633 130.993 55.1304C130.993 51.7529 128.116 49.0009 124.364 49.0009C120.611 49.0009 117.734 51.7529 117.734 55.2555C117.734 58.633 120.611 61.385 124.364 61.385ZM124.364 58.3828C123.942 58.3831 123.525 58.2983 123.137 58.1334C122.749 57.9685 122.399 57.7268 122.107 57.4231C121.815 57.1193 121.587 56.7596 121.437 56.3656C121.288 55.9717 121.219 55.5515 121.236 55.1304C121.236 53.3791 122.487 52.0031 124.364 52.0031C126.24 52.0031 127.491 53.5042 127.491 55.1304C127.491 56.8817 126.24 58.3828 124.364 58.3828ZM135.872 61.1348H139.375V52.1282H143.127V49.2511H132.369V52.1282H136.122L135.872 61.1348ZM150.007 61.385C153.01 61.385 155.011 59.8839 155.011 57.5072C155.011 55.2555 153.135 54.3799 150.383 53.7544C148.631 53.3791 148.256 53.129 148.256 52.5035C148.256 52.1282 148.631 51.7529 149.507 51.7529C150.731 51.8297 151.906 52.2647 152.885 53.0039L154.636 50.502C153.385 49.6264 151.634 49.0009 149.632 49.0009C146.63 49.0009 144.879 50.6271 144.879 52.7537C144.879 55.2555 146.88 56.0061 149.507 56.5064C151.133 57.0068 151.509 57.257 151.509 57.7574C151.509 58.2577 151.008 58.633 150.133 58.633C148.757 58.633 147.38 58.1326 146.13 57.1319L144.378 59.3835C145.995 60.718 148.037 61.4281 150.133 61.385H150.007Z" fill="white"/>
<path fill-rule="evenodd" clip-rule="evenodd" d="M52.4358 52.6289H52.5609C53.2006 52.4657 53.8276 52.2566 54.4373 52.0034L53.1864 52.1285C53.616 51.8552 54.0334 51.563 54.4373 51.2529L55.438 51.0027C55.1998 51.4267 54.9495 51.8439 54.6875 52.2536L56.5638 50.6274L57.4395 50.2521L57.0642 50.7525L56.4387 51.503C56.0635 52.2536 55.5631 52.8791 54.9376 53.5045V53.6296C56.1229 52.7914 57.2135 51.8266 58.19 50.7525L59.3159 49.5016C60.5767 47.9488 62.2127 46.7432 64.0693 45.999C65.3203 45.6237 66.5712 45.6237 67.5719 45.7488V45.4986C66.321 45.2485 65.1952 45.3735 63.9443 45.6237C61.3916 46.4056 59.1561 47.9836 57.5646 50.127L56.9391 50.2521L57.6897 49.6267L58.5653 48.6259C60.3166 46.7496 62.3181 45.7488 64.1944 45.2485C66.4603 44.7459 68.8087 44.7459 71.0745 45.2485V44.9983C68.8343 44.3832 66.4883 44.2552 64.1944 44.623C61.2732 45.1887 58.6533 46.7873 56.814 49.1263L56.6889 49.3765H56.3137L56.6889 49.0012C57.1768 48.529 57.6773 48.0702 58.19 47.6252L60.0664 46.1241C62.0216 44.9785 64.1946 44.2541 66.4461 43.9975C67.605 43.8199 68.7763 43.7363 69.9487 43.7473H66.4461C63.9443 43.9975 61.5675 44.623 59.6911 45.7488H58.9406C59.3422 45.4356 59.7597 45.1433 60.1915 44.8732H60.3166C63.8918 43.2711 67.784 42.5013 71.7 42.6215H71.825L72.2003 42.7466H73.3261L73.8265 43.1219H74.452V42.9968H74.8272L75.7029 43.7473H75.828L75.9531 43.8724L76.5785 44.9983C76.2855 44.9647 75.9936 44.923 75.7029 44.8732L76.7036 45.1234L77.204 45.999L76.9538 45.7488C76.1159 45.1755 75.1847 44.7522 74.2018 44.4979L75.5778 45.2485L76.4534 45.8739L77.7044 46.8746L78.58 48.2507C78.0677 47.9797 77.5669 47.6876 77.0789 47.375V47.7503C77.7256 48.1991 78.3935 48.6166 79.0804 49.0012L79.8309 50.2521L79.2055 50.0019V50.2521C79.4879 50.4349 79.7802 50.602 80.0811 50.7525L80.5815 51.6281C80.1408 51.3463 79.681 51.0955 79.2055 50.8776V51.2529C79.8577 51.5336 80.4853 51.8684 81.0818 52.2536L84.3342 57.6325L83.8339 57.8827L83.3335 57.2573H82.8331V57.5075L83.2084 58.0078L82.0826 58.3831V58.258H81.8324V58.3831L80.5815 58.6333V58.8835C81.0798 58.788 81.5803 58.7046 82.0826 58.6333L82.3328 58.8835L82.9582 59.634L81.9575 59.7591H81.4571V60.1344H81.9575L83.2084 59.7591L84.084 60.6347L82.0826 60.8849V61.1351H82.708L82.8331 61.3853L83.2084 61.6355C83.8339 62.386 84.7095 63.0115 85.5851 63.637C86.2106 64.0122 86.8361 64.5126 87.5866 64.7628H87.8368V64.6377L87.7117 64.5126C86.9612 64.1373 86.3357 63.8871 85.7102 63.3868L83.2084 61.5104L82.9582 61.2602L82.708 61.01C83.2917 60.9961 83.8756 60.9961 84.4593 61.01L86.9612 62.6362L87.3364 62.8864L89.0877 65.6384H44.4299L49.6838 56.882H51.31C52.4358 56.882 53.3115 56.3816 54.3122 55.8813C55.0627 55.2558 55.9384 54.6303 56.5638 53.8798L58.19 52.1285L59.566 50.5023L61.3173 48.8761L60.9421 48.3757C59.7039 49.3424 58.6089 50.4795 57.6897 51.7532C56.5007 53.0646 55.2483 54.317 53.9369 55.506C53.3535 55.998 52.6741 56.3632 51.9419 56.5786C51.2097 56.7939 50.4407 56.8547 49.6838 56.7569L51.9354 53.2543C52.1467 53.1781 52.3553 53.0946 52.5609 53.0041H52.0605L52.4358 52.5038V52.6289ZM69.9487 63.637C67.4468 64.1373 64.945 64.3875 62.8184 64.3875C61.1922 64.3875 59.566 64.1373 58.0649 63.5119H57.3144L52.0605 64.1373C54.062 63.8871 55.6882 63.3868 57.1893 63.1366H57.3144C56.9261 62.9525 56.55 62.7436 56.1886 62.5111L51.9354 63.1366L55.6882 62.1358C55.3377 61.8639 55.0035 61.5715 54.6875 61.2602C53.0923 61.5889 51.5071 61.9643 49.934 62.386L48.9332 62.5111C49.7753 62.3366 50.6099 62.1279 51.4351 61.8857L54.5624 61.01C55.225 60.8617 55.8925 60.7365 56.5638 60.6347C56.3034 60.3951 56.053 60.1447 55.8133 59.8842L53.6867 60.5097L52.5609 60.7598L51.4351 61.1351L49.8089 61.5104L51.4351 60.8849L52.0605 60.6347L52.5609 60.3846C53.5459 60.075 54.5484 59.8244 55.5631 59.634L55.438 59.5089L55.3129 59.3838C55.3129 59.2587 55.3129 59.2587 55.3129 59.3838H55.5631L55.8133 59.634L57.5646 59.3838L57.1893 59.0086L56.9391 58.7584L56.6889 58.6333H56.9391L57.6897 59.3838C58.2312 59.3502 58.7743 59.3502 59.3159 59.3838H58.0649C58.5768 59.8386 59.1202 60.2567 59.6911 60.6347H59.9413C62.4191 61.861 65.2134 62.2977 67.9472 61.8857H68.0723L66.4461 62.1358C64.1944 62.1358 61.9428 61.7606 59.6911 60.6347C58.8155 60.6347 58.0649 60.6347 57.1893 60.8849L58.3151 61.6355H58.6904C59.566 61.6355 60.3166 61.6355 61.1922 61.8857H58.9406C60.1915 62.5111 61.4424 62.8864 62.6933 63.1366C64.6948 63.1366 66.6963 63.1366 68.9479 62.6362V62.7613C66.8214 63.1366 64.6948 63.3868 62.6933 63.1366C61.3434 62.9981 60.0297 62.6167 58.8155 62.0108C58.1429 62.1051 57.4751 62.2303 56.814 62.386H56.4387L57.6897 63.1366C58.5216 63.0538 59.3596 63.0538 60.1915 63.1366C60.9421 63.1366 61.8177 63.3868 62.6933 63.637L62.5682 63.762C61.2975 63.4709 59.9881 63.3864 58.6904 63.5119H58.4402C59.8162 64.0122 61.4424 64.2624 62.9435 64.2624C65.0701 64.2624 67.4468 64.0122 69.8236 63.5119H69.9487V63.637ZM71.1996 63.1366L71.4498 63.2617L70.3239 63.5119L70.1989 63.3868L71.3247 63.1366H71.1996ZM72.8258 62.7613L72.9509 62.8864L71.9501 63.1366H71.7L72.8258 62.7613ZM74.0767 62.5111L74.2018 62.6362L73.4512 62.7613H73.076L73.9516 62.5111H74.0767ZM70.3239 62.386H70.449L69.1981 62.7613L69.073 62.6362L70.3239 62.386ZM75.5778 62.1358L75.828 62.2609L74.7022 62.5111H74.5771C74.8272 62.2609 75.2025 62.2609 75.5778 62.1358ZM86.0855 60.8849L87.0863 62.5111C86.3551 62.0431 85.6455 61.5422 84.9597 61.01L86.2106 60.8849H86.0855ZM71.825 62.1358H71.9501L70.9494 62.386L70.6992 62.2609L71.825 62.0108V62.1358ZM76.8287 61.8857L76.9538 62.0108L76.2033 62.2609L75.9531 62.0108H76.8287V61.8857ZM56.814 60.8849C56.3541 60.9615 55.8954 61.0449 55.438 61.1351H54.8126C55.1648 61.4937 55.5409 61.8281 55.9384 62.1358C56.6414 61.9451 57.3506 61.7782 58.0649 61.6355L56.814 60.8849ZM73.076 61.7606L73.2011 61.8857L72.7007 62.0108H72.2003L73.076 61.7606ZM78.3298 61.6355L78.58 61.7606L77.7044 61.8857H77.204L77.5793 61.7606L78.3298 61.6355ZM69.5734 61.6355C69.1981 61.8857 68.6977 61.8857 68.1974 62.0108L67.9472 61.8857L69.4483 61.6355H69.5734ZM74.5771 61.3853L74.7022 61.5104L73.7014 61.7606H73.4512L74.5771 61.3853ZM79.5807 61.3853L79.7058 61.5104L78.8302 61.7606L78.58 61.5104L79.4556 61.3853H79.5807ZM70.8243 61.3853H71.0745L69.8236 61.6355L70.9494 61.2602L70.8243 61.3853ZM80.5815 61.2602L80.8317 61.3853L79.956 61.5104L79.8309 61.3853L80.5815 61.2602ZM75.828 61.1351L76.0782 61.2602L75.2025 61.5104L74.9523 61.3853L75.7029 61.1351H75.828ZM81.2069 61.1351L81.4571 61.3853H80.9567L80.8317 61.1351H81.0818H81.2069ZM72.2003 61.01L72.4505 61.1351L71.4498 61.3853L71.3247 61.2602L72.2003 61.01ZM81.9575 61.01L82.2077 61.2602H81.5822L81.4571 61.1351L81.9575 61.01ZM77.3291 60.7598L77.5793 61.01L76.4534 61.2602L76.2033 61.01L77.4542 60.7598H77.3291ZM68.8228 61.01H68.9479C68.8228 61.0109 68.6977 61.0109 68.5727 61.01H68.8228ZM70.1989 60.6347L70.5741 60.8849C70.1224 61.0029 69.6624 61.0865 69.1981 61.1351L68.9479 60.8849L70.0738 60.7598H70.1989V60.6347ZM73.5763 60.6347L73.7014 60.7598L72.7007 61.01H72.5756L73.5763 60.6347ZM78.58 60.6347H78.8302L77.8295 60.8849L77.5793 60.7598L78.58 60.5097V60.6347ZM71.5749 60.5097L71.7 60.6347C71.3686 60.7269 71.0349 60.8104 70.6992 60.8849L70.3239 60.6347H70.6992L71.3247 60.5097H71.5749ZM74.7022 60.3846H74.9523L73.9516 60.7598L73.8265 60.6347L74.7022 60.3846ZM85.9604 60.5097L84.7095 60.7598L84.4593 60.5097L83.7088 59.8842L84.3342 59.7591L85.0848 59.5089L85.335 59.7591L85.7102 60.0093L86.0855 60.5097H85.9604ZM79.7058 60.3846L79.8309 60.5097L79.0804 60.6347L78.8302 60.5097L79.7058 60.3846ZM57.8148 59.5089L56.1886 59.7591H55.9384L56.814 60.6347C57.6469 60.5742 58.483 60.5742 59.3159 60.6347L57.8148 59.5089ZM72.8258 60.2595L71.9501 60.5097H71.7L72.9509 60.2595H72.8258ZM80.3313 60.2595L80.5815 60.3846H79.7058L80.3313 60.1344V60.2595ZM63.8192 48.5008L64.1944 49.0012L62.6933 49.7518C61.8177 50.2521 60.817 51.0027 59.9413 51.8783L58.3151 53.7547C57.6813 54.4942 57.0134 55.2038 56.3137 55.8813L56.6889 56.2565L58.5653 53.7547L60.0664 51.8783L61.8177 50.6274C62.4432 50.2521 63.0686 50.0019 63.9443 49.8768C65.5705 49.5016 67.697 49.6267 70.3239 50.2521H70.449C71.3325 50.4264 72.2088 50.635 73.076 50.8776L74.9523 51.7532C76.0782 52.5038 76.8287 53.2543 78.2047 53.8798C78.925 54.1616 79.6845 54.3304 80.4564 54.3802C80.7066 54.3802 80.9567 54.6303 80.9567 54.8805C80.9567 55.1307 80.7066 55.2558 80.4564 55.2558C80.7874 55.3877 81.121 55.5128 81.4571 55.6311L80.5815 55.506V55.7562C80.7887 55.8427 80.9972 55.9261 81.2069 56.0063H80.5815C80.5524 56.2715 80.4671 56.5273 80.3313 56.7569L79.956 57.1322C80.3313 57.1322 80.8317 57.0071 81.2069 56.7569C81.4571 56.5067 81.5822 56.2565 81.5822 55.7562H81.8324C81.8324 56.2565 81.7073 56.6318 81.4571 57.0071C80.957 57.388 80.3317 57.5666 79.7058 57.5075C79.3306 57.5075 78.8302 57.5075 78.4549 57.2573C77.8295 57.2573 77.3291 57.0071 76.7036 56.882L75.5778 56.6318C74.7506 56.4817 73.9032 56.4817 73.076 56.6318L72.3254 56.882C72.9777 56.6286 73.6464 56.4196 74.3269 56.2565C75.1691 56.1855 76.0172 56.2704 76.8287 56.5067C77.4542 56.5067 77.9545 56.7569 78.58 56.882H78.7051L79.3306 56.0063V55.7562H79.4556C79.2033 55.6795 78.953 55.5961 78.7051 55.506L78.4549 55.8813L77.9545 56.3816L78.3298 55.6311V55.3809H77.8295L77.5793 55.1307L77.4542 55.506L76.9538 56.2565L77.204 55.3809L77.3291 55.1307C77.1586 55.0548 76.9917 54.9713 76.8287 54.8805H76.7036L76.4534 55.2558C76.2745 55.5292 76.0646 55.781 75.828 56.0063C76.0988 55.5786 76.3092 55.1156 76.4534 54.6303L75.9531 54.2551C75.8533 54.4394 75.7269 54.608 75.5778 54.7554C75.4029 55.0318 75.1926 55.2841 74.9523 55.506C75.2152 55.1636 75.4259 54.7842 75.5778 54.3802V54.13C75.0804 53.6209 74.5359 53.1602 73.9516 52.754L73.2011 52.3787C72.8532 53.2951 72.3449 54.1423 71.7 54.8805C70.45 56.271 68.7115 57.1252 66.847 57.265C64.9825 57.4049 63.136 56.8195 61.6926 55.6311C61.0671 55.1307 60.4417 54.6303 60.0664 54.0049L58.8155 55.7562C59.7013 57.0143 60.9118 58.0087 62.3181 58.6333L64.1944 59.2587L67.0716 59.0086C67.7464 59.0098 68.4186 59.0939 69.073 59.2587H67.0716C65.8206 59.2587 64.945 59.634 64.1944 59.5089C63.0248 59.3624 61.9085 58.933 60.9421 58.258C60.0728 57.5748 59.3497 56.7241 58.8155 55.7562L58.3151 56.3816C59.3039 57.8328 60.6952 58.9633 62.3181 59.634C64.0307 60.3055 65.9078 60.4364 67.697 60.0093C65.4454 60.6347 63.6941 60.5097 62.193 60.0093C61.2596 59.6971 60.4058 59.1848 59.6911 58.5082L58.19 56.5067V56.6318L57.5646 57.1322L58.19 57.7576L58.5653 58.1329L58.9406 58.3831C59.226 58.6814 59.518 58.9733 59.8162 59.2587C59.207 58.8786 58.6221 58.4608 58.0649 58.0078L57.5646 57.5075L57.4395 57.3824L55.3129 58.6333L54.5624 59.1336L55.438 58.5082L55.9384 58.1329L57.1893 57.0071C57.0167 56.8462 56.8498 56.6794 56.6889 56.5067V56.6318C55.5874 57.5102 54.3658 58.2263 53.0613 58.7584C54.4373 57.8827 55.5631 57.1322 56.1886 56.5067L56.3137 56.3816L56.0635 55.8813C55.5631 56.5067 54.8126 57.0071 54.3122 57.3824C53.3115 57.8827 52.4358 58.258 51.31 58.3831C50.6475 58.4951 49.971 58.4951 49.3085 58.3831H51.31C52.3107 58.1329 53.1864 57.6325 54.062 57.1322L55.8133 55.3809L55.6882 55.1307L55.9384 55.3809L56.1886 55.0056C57.2886 53.8039 58.3322 52.5516 59.3159 51.2529L61.6926 49.3765C62.3202 48.9691 62.9916 48.6335 63.6941 48.3757L63.8192 48.5008ZM76.2033 59.8842L76.4534 60.1344L75.2025 60.3846H74.9523L76.2033 59.8842ZM81.332 60.0093L81.4571 60.2595H80.8317L80.7066 60.1344L81.332 60.0093ZM77.4542 59.5089L77.7044 59.7591L76.5785 60.0093L76.3284 59.8842L77.4542 59.634V59.5089ZM78.4549 59.2587L78.7051 59.5089C78.4549 59.5089 78.0796 59.5089 77.8295 59.7591L77.5793 59.5089L78.4549 59.2587ZM83.7088 58.3831L82.5829 58.6333V58.7584L83.4586 59.634L84.4593 59.3838H84.8346L83.7088 58.3831ZM79.4556 59.0086L79.5807 59.2587C79.581 59.1753 79.581 59.0919 79.5807 59.0086H79.4556ZM69.8236 59.3838L70.9494 59.1336C71.9461 59.0074 72.9478 58.9239 73.9516 58.8835H74.9523C75.6576 58.7716 76.367 58.6881 77.0789 58.6333C75.7879 58.5413 74.492 58.5413 73.2011 58.6333L70.8243 59.1336L69.8236 59.3838ZM80.5815 58.7584V58.8835L79.8309 59.1336L79.7058 58.8835L80.5815 58.7584ZM84.5844 57.8827L85.2099 59.1336L85.0848 58.8835L84.084 58.1329L84.5844 57.8827ZM65.1952 58.258C65.7788 58.2408 66.3628 58.2408 66.9465 58.258H67.3217L67.8221 58.1329C68.4053 58.095 68.9902 58.095 69.5734 58.1329C68.701 58.0389 67.8238 57.9971 66.9465 58.0078L65.6955 58.258H65.1952ZM60.9421 56.5067L61.3173 56.7569L61.8177 57.1322L62.0679 57.3824H62.3181L62.9435 57.8827C63.0847 57.9906 63.2109 58.1168 63.3188 58.258L63.0686 57.8827C62.7918 57.5317 62.4526 57.2348 62.0679 57.0071L61.1922 56.6318C61.1088 56.6331 61.0254 56.6331 60.9421 56.6318V56.5067ZM70.3239 58.1329L71.1996 57.8827L73.2011 57.6325H73.5763L74.3269 57.5075C74.9058 57.3928 75.4904 57.3093 76.0782 57.2573C75.0341 57.1999 73.987 57.2417 72.9509 57.3824L71.0745 57.8827L70.3239 58.1329ZM79.8309 55.6311C79.7761 55.8499 79.6919 56.0603 79.5807 56.2565L79.0804 56.7569L79.8309 56.882L80.3313 56.1314V55.6311H79.8309ZM67.697 53.1292C67.9472 53.1292 69.6985 53.1292 69.6985 51.1278C69.6985 51.1278 67.9472 52.3787 68.1974 51.1278C68.1974 50.7525 68.5727 50.6274 68.9479 50.5023L71.1996 51.0027C71.1996 51.7532 70.9494 52.5038 70.6992 53.1292L69.8236 54.2551C68.9479 55.1307 67.697 55.506 66.321 55.3809C67.697 55.7562 69.1981 55.506 70.1989 54.6303L70.9494 53.6296C71.3247 53.0041 71.5749 52.1285 71.5749 51.1278V52.3787L70.9494 54.0049C70.6353 54.5829 70.1876 55.0774 69.6436 55.4473C69.0996 55.8173 68.4751 56.0518 67.8221 56.1314C66.9465 56.2565 65.9457 56.1314 64.945 55.8813C64.1944 55.6311 63.569 55.1307 62.9435 54.6303C62.4432 54.13 62.0679 53.3794 61.6926 52.754C61.6926 52.5038 61.4424 52.5038 61.3173 52.5038C61.0671 52.6289 61.0671 52.8791 61.1922 53.0041C61.5675 53.7547 62.0679 54.3802 62.6933 55.0056L64.8199 56.2565C65.9457 56.5067 66.9465 56.5067 67.8221 56.2565C68.5727 56.2565 69.1981 56.0063 69.8236 55.6311C70.3239 55.2558 70.8243 54.7554 71.1996 54.13L71.9501 52.754L72.2003 51.2529H72.3254V51.378L72.2003 52.6289L71.4498 54.3802C71.017 54.9975 70.4592 55.517 69.8127 55.9049C69.1662 56.2928 68.4454 56.5405 67.697 56.6318C66.6963 56.882 65.5705 56.6318 64.5697 56.3816C63.7186 56.0516 62.9501 55.5392 62.3181 54.8805C61.6926 54.2551 61.1922 53.6296 60.817 52.8791C61.3394 52.4762 61.8822 52.1004 62.4432 51.7532V52.2536C62.6657 53.0602 63.0972 53.7938 63.6941 54.3802L64.3195 54.8805C64.8199 55.2558 65.4454 55.3809 66.0708 55.506C65.4336 55.3329 64.8439 55.0179 64.3456 54.5847C63.8474 54.1514 63.4536 53.6111 63.1937 53.0041L62.8184 52.1285V51.8783H62.6933L63.569 51.378C63.569 52.0034 63.9443 53.8798 65.9457 54.3802C68.5727 55.1307 69.073 53.2543 69.073 53.2543H67.697V53.1292ZM59.441 53.8798L59.1908 54.13H59.0657L56.814 56.3816L57.1893 56.882L57.3144 56.6318C58.0104 55.8088 58.638 54.9302 59.1908 54.0049L59.441 53.8798ZM68.4476 55.7562C67.3217 55.8813 66.4461 55.7562 65.6955 55.6311L64.4446 55.1307C63.4611 54.5758 62.7072 53.6889 62.3181 52.6289V52.2536H61.8177L61.6926 52.1285V52.2536L61.5675 52.3787V52.754L62.4432 54.0049C63.143 54.9584 64.1655 55.6253 65.3203 55.8813C66.2709 56.0607 67.2467 56.0607 68.1974 55.8813L68.4476 55.7562ZM79.956 55.1307V55.3809L80.4564 55.506V55.2558L79.956 55.1307ZM78.9553 54.8805V55.1307L79.7058 55.3809V55.1307L78.9553 54.8805ZM65.9457 55.1307C66.9465 55.3809 68.0723 55.1307 68.8228 54.7554L69.6985 54.2551C70.1988 53.7547 70.5741 53.1292 70.8243 52.5038H70.5741C70.4284 52.9858 70.1872 53.4335 69.8648 53.8204C69.5425 54.2072 69.1456 54.5252 68.6977 54.7554C67.8209 55.2372 66.8086 55.4132 65.8206 55.2558L65.9457 55.1307ZM77.8295 54.6303V54.8805H78.0796L78.58 55.1307V55.0056C78.3269 54.9311 78.0766 54.8477 77.8295 54.7554V54.6303ZM67.8221 54.6303C66.9465 54.7554 66.1959 54.6303 65.6955 54.5052C65.3203 54.5052 65.0701 54.2551 64.8199 54.13C64.3195 53.7547 64.0694 53.2543 63.8192 52.8791C63.6243 52.4863 63.4974 52.0633 63.4439 51.6281L63.1937 51.378V51.503H63.0686V52.1285L63.4439 53.3794C63.6941 53.7547 64.0693 54.2551 64.6948 54.6303C64.945 54.8805 65.1952 55.0056 65.5705 55.0056C66.1959 55.2558 66.9465 55.1307 67.8221 55.0056V54.8805V54.6303ZM78.2047 51.7532L79.0804 52.2536C79.8309 52.5038 80.7066 52.8791 81.4571 53.5045C81.9575 53.7547 82.3328 54.2551 82.708 54.7554C82.5829 54.8805 82.5829 54.7554 82.4579 54.7554C82.1465 54.2447 81.7176 53.8158 81.2069 53.5045L78.9553 52.3787L78.0796 52.1285V51.7532H78.2047ZM76.9538 54.2551V54.3802L77.5793 54.7554V54.5052L77.0789 54.2551H76.8287H76.9538ZM71.825 50.2521C72.9848 50.4366 74.0929 50.8628 75.0774 51.503L76.8287 52.6289L77.9545 53.2543C78.58 53.5045 79.5807 53.6296 80.2062 54.0049C80.5815 54.13 80.8317 54.3802 80.9567 54.6303H81.0818L80.3313 53.8798L77.9545 53.0041L76.9538 52.5038L75.4527 51.503C75.0501 51.2297 74.6325 50.9791 74.2018 50.7525C73.4498 50.432 72.6424 50.262 71.825 50.2521ZM75.828 53.6296V53.7547L76.4534 54.2551V54.0049C76.2033 54.0049 76.0782 53.7547 75.9531 53.6296H75.828ZM73.2011 51.8783L73.076 52.2536C73.5082 52.3205 73.9292 52.4468 74.3269 52.6289C74.7778 52.9176 75.1971 53.2531 75.5778 53.6296V53.3794C75.1155 52.9188 74.6132 52.5002 74.0767 52.1285L73.2011 51.8783ZM76.9538 51.378L77.5793 51.6281L77.8295 51.7532V52.0034C77.5333 51.8886 77.2412 51.7634 76.9538 51.6281V51.378ZM76.0782 50.7525L76.9538 51.2529V51.503L76.0782 51.0027V50.7525ZM78.2047 50.3772L79.2055 50.8776V51.2529C78.8646 51.1011 78.5307 50.9341 78.2047 50.7525V50.3772ZM75.3276 50.2521L75.9531 50.6274V51.0027L75.2025 50.5023V50.2521H75.3276ZM77.204 49.8768L77.7044 50.127L78.0796 50.3772V50.7525C77.8295 50.7525 77.7044 50.5023 77.4542 50.3772L77.204 50.2521V50.0019V49.8768ZM54.6875 49.7518H54.3122C54.0677 50.0076 53.8174 50.2578 53.5616 50.5023H53.8118C54.0505 50.2408 54.3009 49.9904 54.5624 49.7518H54.6875ZM56.4387 49.5016L56.0635 49.6267C55.7765 49.9235 55.4846 50.2154 55.1878 50.5023H55.8133L55.9384 50.2521L56.4387 49.5016ZM74.3269 50.0019L74.8272 50.2521L75.2025 50.3772V50.7525C74.8715 50.5806 74.5379 50.4138 74.2018 50.2521V50.0019H74.3269ZM78.2047 49.7518L79.2055 50.127V50.5023L78.0796 50.0019V49.7518H78.2047ZM76.3284 49.5016L76.9538 49.8768V50.2521C76.7036 50.2521 76.4534 50.0019 76.3284 49.8768V49.5016ZM73.4512 49.7518L74.2018 50.0019V50.2521L73.4512 50.0019V49.7518ZM72.5756 49.6267H73.3261V50.0019L72.5756 49.7518V49.6267ZM77.204 49.1263L78.2047 49.7518V50.0019L77.3291 49.3765V49.1263H77.204ZM72.5756 49.7518C72.161 49.6567 71.7439 49.5733 71.3247 49.5016H72.5756V49.7518ZM75.4527 48.8761L76.0782 49.3765V49.7518C75.8684 49.5865 75.6599 49.4197 75.4527 49.2514V48.751V48.8761ZM56.6889 48.1256H56.4387L55.5631 48.751L54.9376 49.3765C55.4708 48.9074 56.013 48.4487 56.5638 48.0005L56.6889 48.1256ZM62.0679 47.8754L62.4432 48.5008H62.3181L61.4424 49.1263C61.3388 48.9445 61.2127 48.7764 61.0671 48.6259C61.3879 48.359 61.7219 48.1085 62.0679 47.8754ZM69.5734 48.6259L70.3239 48.8761V49.0012H69.5734V48.6259ZM76.4534 48.6259L76.8287 48.8761V49.1263L76.4534 48.751V48.6259ZM64.945 48.2507L65.0701 48.751C64.7283 48.853 64.3939 48.9783 64.0693 49.1263L63.9443 48.5008C64.2728 48.3984 64.6069 48.3149 64.945 48.2507ZM74.452 48.2507C74.7022 48.2507 74.8272 48.5008 75.0774 48.6259V49.0012L74.9523 48.8761L74.452 48.5008V48.1256V48.2507ZM68.6977 48.3757L69.4483 48.6259V48.8761L68.5727 48.751V48.3757H68.6977ZM66.1959 48.1256V48.6259L65.1952 48.751V48.2507L66.1959 48.1256ZM67.4468 48.1256L68.4476 48.3757V48.6259H67.4468V48.1256ZM66.1959 48.1256H67.3217V48.5008H66.321V48.1256H66.1959ZM75.4527 47.7503L76.2033 48.3757V48.5008L75.4527 47.8754V47.7503ZM62.9435 47.5001L63.3188 48.0005L62.5682 48.3757L62.4432 48.1256L62.0679 47.8754L62.9435 47.5001ZM73.4512 47.5001L74.3269 48.1256V48.3757L73.4512 47.7503V47.5001ZM64.4446 46.9997L64.6948 47.5001C64.2659 47.5812 63.8466 47.707 63.4439 47.8754L63.1937 47.375C63.6004 47.218 64.0187 47.0926 64.4446 46.9997ZM58.19 46.9997H57.5646L56.814 47.7503H57.0642L58.3151 46.8746L58.19 46.9997ZM76.4534 47.2499L76.8287 47.375V47.7503L76.4534 47.5001V47.1248V47.2499ZM69.5734 47.2499L70.0738 47.5001V47.6252H69.5734V47.375V47.2499ZM72.7007 46.9997L73.4512 47.375V47.6252L72.7007 47.1248V46.9997ZM55.5631 47.1248H56.1886C55.9384 47.1248 55.8133 47.375 55.6882 47.5001H55.5631L55.6882 47.1248H55.5631ZM68.4476 46.8746L68.8228 46.9997L68.9479 47.375L68.4476 47.2499V46.8746ZM65.8206 46.6245V47.1248L64.8199 47.2499C64.7555 47.0743 64.6716 46.9065 64.5697 46.7496L65.8206 46.6245ZM75.2025 46.3743L76.0782 46.9997V47.2499L75.2025 46.6245V46.2492V46.3743ZM67.1966 46.6245L67.8221 46.7496L67.9472 47.1248H67.3217L67.1966 46.7496V46.6245ZM65.9457 46.6245H66.8214V46.9997H66.1959L66.0708 46.6245H65.9457ZM72.4505 46.9997C71.6133 46.4711 70.7348 46.0109 69.8236 45.6237C71.0745 45.999 71.825 46.4994 72.4505 46.8746V46.9997ZM59.3159 46.1241H58.4402L57.8148 46.7496C57.9814 46.7586 58.1485 46.7586 58.3151 46.7496L59.3159 46.1241ZM56.1886 46.2492H57.3144L56.814 46.7496L56.0635 46.6245L56.1886 46.2492ZM74.9523 46.2492C74.6658 46.1121 74.3736 45.9869 74.0767 45.8739L74.9523 46.1241V46.3743V46.2492ZM69.073 45.8739C69.4111 45.9868 69.7449 46.112 70.0738 46.2492H69.9487L69.1981 45.999L69.073 45.8739ZM67.8221 45.4986L68.5727 45.7488V45.8739C68.4059 45.8702 68.2391 45.8702 68.0723 45.8739L67.9472 45.4986H67.8221ZM58.8155 45.2485C58.191 45.2984 57.5636 45.2984 56.9391 45.2485L56.5638 45.6237H57.3144L57.9398 45.8739L58.8155 45.2485ZM60.4417 44.3728C59.5743 44.5272 58.6957 44.6109 57.8148 44.623L57.5646 44.7481H57.8148L58.6904 44.9983H59.3159C59.6793 44.7692 60.0551 44.5603 60.4417 44.3728ZM57.6897 43.7473L58.5653 43.8724H60.817L66.321 42.6215C67.8911 42.3605 69.4856 42.2766 71.0745 42.3713L71.7 42.7466H71.1996C67.4683 42.5458 63.7328 43.0552 60.1915 44.2477L58.3151 43.9975H57.6897V43.7473ZM58.3151 42.7466H58.6904C60.0234 42.8304 61.3603 42.8304 62.6933 42.7466L67.9472 41.871L70.1989 41.7459L70.8243 42.2462C69.2787 42.2658 67.7346 42.3492 66.1959 42.4964L60.6919 43.3721H58.0649L58.3151 42.7466ZM73.9516 42.7466H74.2018L74.3269 42.8717V42.9968H74.8272C74.5771 42.9968 74.452 42.8717 74.3269 42.6215H73.9516V42.7466ZM72.4505 42.4964V42.6215L72.5756 42.7466L73.3261 42.8717L72.8258 42.4964H72.4505ZM75.0774 42.4964L74.5771 41.9961H74.8272L75.0774 42.4964ZM73.076 41.871L73.7014 42.3713H74.0767L73.5763 41.871H73.076ZM71.1996 41.871L72.0752 42.2462H72.7007L72.2003 41.871H71.1996ZM58.8155 41.871H58.9406C60.4417 41.871 61.9428 41.9961 62.9435 41.871C64.945 41.871 67.0716 41.4957 68.9479 41.2455H69.6985L69.9487 41.4957L67.9472 41.6208L62.6933 42.2462H58.6904L58.8155 41.871ZM74.7022 41.871H74.3269C74.3269 41.6208 74.0767 41.4957 73.8265 41.2455H74.3269L74.7022 41.871ZM72.2003 41.2455L72.9509 41.7459H73.4512L73.2011 41.3706L73.076 41.2455H72.3254H72.2003ZM71.7 41.2455H70.449L70.9494 41.6208H72.2003L71.9501 41.4957L71.7 41.1204V41.2455ZM59.3159 40.8702C59.8566 40.9229 60.4013 40.9229 60.9421 40.8702H63.8192L67.8221 40.495H68.9479L69.3232 40.9953H68.8228L62.8184 41.3706H59.3159V41.2455L59.566 40.8702H59.3159ZM74.2018 40.9953H73.5763L73.3261 40.6201H73.9516L74.2018 40.9953ZM71.7 40.495V40.7451C72.0342 40.826 72.3677 40.9094 72.7007 40.9953L72.5756 40.6201H71.825L71.7 40.495ZM69.6985 40.495L70.1989 40.8702H71.4498L71.0745 40.495C70.6159 40.5056 70.1571 40.5056 69.6985 40.495ZM60.0664 39.9946C60.4413 40.0191 60.8174 40.0191 61.1922 39.9946L62.3181 40.1197H68.6977L68.9479 40.495H59.6911L60.0664 39.9946ZM71.3247 40.1197L71.7 40.495H72.5756H72.4505L72.3254 40.2448H71.4498L71.3247 40.1197ZM73.8265 40.495H73.3261L72.9509 40.2448H73.7014L73.9516 40.495H73.8265ZM69.4483 40.1197L69.6985 40.495H71.1996L70.8243 40.1197H69.4483ZM73.4512 39.8695H72.7007L72.4505 39.4942H73.3261L73.4512 39.8695ZM70.8243 39.3691L71.0745 39.7444H72.0752L71.825 39.4942H70.8243V39.3691ZM68.5727 39.3691L68.9479 39.7444H70.5741L70.3239 39.3691H68.5727ZM60.817 38.7437H61.3173L63.8192 39.119H65.3203L67.8221 39.244H68.0723L68.3225 39.7444L64.945 39.6193H60.3166L60.817 38.7437ZM73.076 39.119H72.0752L71.825 38.7437H72.8258V38.9939L73.076 39.119ZM70.3239 38.7437L70.449 38.8688L71.7 38.9939L71.5749 38.8688L70.3239 38.7437ZM67.8221 38.4935L68.0723 38.7437L69.9487 38.8688L69.8236 38.7437L68.5727 38.6186L67.8221 38.4935ZM61.3173 37.868L61.8177 37.6178L63.0686 37.868L66.321 38.3684H67.4468L67.5719 38.7437H60.817L61.3173 37.868ZM72.5756 38.3684H71.5749C71.5749 38.1182 71.4498 38.1182 71.3247 37.9931H72.4505L72.5756 38.3684ZM69.8236 37.868V38.1182H71.0745V37.9931L69.8236 37.868ZM61.8177 36.8673L62.9435 36.9924L66.321 37.4928L67.5719 37.6178L68.8228 37.7429H69.073L69.1981 37.9931H68.5727C67.7418 37.8811 66.9074 37.7977 66.0708 37.7429H63.8192C63.1495 37.6808 62.482 37.5974 61.8177 37.4928H61.9428H61.5675H61.6926V37.6178H61.4424V37.7429H61.5675V37.4928L61.9428 36.7422L61.8177 36.8673ZM71.825 37.4928L70.8243 37.3677V37.1175H71.3247L71.825 37.2426V37.4928ZM69.3232 36.9924V37.1175L70.6992 37.2426V37.1175L69.3232 36.9924ZM63.0686 34.9909C64.4424 34.88 65.8229 34.88 67.1966 34.9909L68.9479 35.2411H69.3232L70.9494 35.3662L71.1996 35.7415C70.6161 35.7153 70.0318 35.7153 69.4483 35.7415H67.4468C66.525 35.7185 65.6057 35.635 64.6948 35.4913L65.3203 35.6164L66.321 35.8666L67.3217 35.9917L68.8228 36.2418H69.6985L70.449 36.3669V36.6171C69.4906 36.57 68.5304 36.57 67.5719 36.6171L65.8206 36.492C65.402 36.4686 64.9847 36.4268 64.5697 36.3669L65.8206 36.492L67.4468 36.7422L68.9479 36.8673V36.9924C68.1143 36.961 67.2797 36.961 66.4461 36.9924H64.0693C63.3996 36.9308 62.7321 36.8474 62.0679 36.7422L63.0686 34.9909ZM71.7 36.8673L70.6992 36.7422V36.6171L70.449 36.3669L71.7 36.492V36.8673ZM70.5741 34.9909H68.8228H67.3217C66.0708 34.8658 64.945 34.7407 63.8192 34.8658H63.0686L66.8214 28.7363L70.5741 34.9909Z" fill="#FFE100"/>
</g>
</g>
</g>
<defs>
<clipPath id="clip0_396_2849">
<rect width="122.59" height="37.53" fill="white" transform="translate(44.3049 28.7354)"/>
</clipPath>
<clipPath id="clip1_396_2849">
<rect width="122.59" height="37.53" fill="white" transform="translate(44.3049 28.7354)"/>
</clipPath>
<clipPath id="clip2_396_2849">
<rect width="122.59" height="37.5275" fill="white" transform="translate(44.3049 28.7363)"/>
</clipPath>
</defs>
</svg>
