<svg width="212" height="95" viewBox="0 0 212 95" fill="none" xmlns="http://www.w3.org/2000/svg">
<rect x="0.600098" width="211.2" height="95" rx="16" fill="#0A0808"/>
<g clip-path="url(#clip0_396_2532)">
<g clip-path="url(#clip1_396_2532)">
<g opacity="0.5">
<mask id="mask0_396_2532" style="mask-type:luminance" maskUnits="userSpaceOnUse" x="61" y="29" width="47" height="47">
<path d="M61.7444 29.3174H107.508V75.0806H61.7444V29.3174Z" fill="white"/>
</mask>
<g mask="url(#mask0_396_2532)">
<path d="M107.508 52.199C107.508 55.2038 106.916 58.1793 105.766 60.9554C104.616 63.7315 102.93 66.254 100.806 68.3787C98.681 70.5035 96.1585 72.1889 93.3824 73.3388C90.6063 74.4887 87.6308 75.0806 84.626 75.0806C81.6211 75.0806 78.6457 74.4887 75.8696 73.3388C73.0935 72.1889 70.571 70.5035 68.4463 68.3787C66.3215 66.254 64.6361 63.7315 63.4861 60.9554C62.3362 58.1793 61.7444 55.2038 61.7444 52.199C61.7444 46.1304 64.1551 40.3104 68.4463 36.0192C72.7374 31.7281 78.5574 29.3174 84.626 29.3174C90.6946 29.3174 96.5146 31.7281 100.806 36.0192C105.097 40.3104 107.508 46.1304 107.508 52.199Z" fill="#175938"/>
</g>
</g>
<g opacity="0.5">
<mask id="mask1_396_2532" style="mask-type:luminance" maskUnits="userSpaceOnUse" x="62" y="30" width="44" height="43">
<path d="M62.6841 30.0537H105.219V72.589H62.6841V30.0537Z" fill="white"/>
</mask>
<g mask="url(#mask1_396_2532)">
<path d="M105.219 51.3419C105.219 56.9824 102.979 62.3919 98.9902 66.3803C95.0017 70.3688 89.5922 72.6095 83.9517 72.6095C78.3112 72.6095 72.9017 70.3688 68.9132 66.3803C64.9248 62.3919 62.6841 56.9824 62.6841 51.3419C62.6841 45.7013 64.9248 40.2918 68.9132 36.3034C72.9017 32.3149 78.3112 30.0742 83.9517 30.0742C89.5922 30.0742 95.0017 32.3149 98.9902 36.3034C102.979 40.2918 105.219 45.7013 105.219 51.3419Z" fill="#1C793F"/>
</g>
</g>
<g opacity="0.5">
<mask id="mask2_396_2532" style="mask-type:luminance" maskUnits="userSpaceOnUse" x="61" y="30" width="42" height="42">
<path d="M61.7444 30.625H102.727V71.6076H61.7444V30.625Z" fill="white"/>
</mask>
<g mask="url(#mask2_396_2532)">
<path d="M102.686 51.0959C102.686 56.5197 100.531 61.7214 96.6962 65.5566C92.861 69.3918 87.6594 71.5464 82.2356 71.5464C76.8118 71.5464 71.6101 69.3918 67.7749 65.5566C63.9397 61.7214 61.7852 56.5197 61.7852 51.0959C61.7852 45.6721 63.9397 40.4705 67.7749 36.6353C71.6101 32.8001 76.8118 30.6455 82.2356 30.6455C87.6594 30.6455 92.861 32.8001 96.6962 36.6353C100.531 40.4705 102.686 45.6721 102.686 51.0959Z" fill="#1D8842"/>
</g>
</g>
<g opacity="0.5">
<mask id="mask3_396_2532" style="mask-type:luminance" maskUnits="userSpaceOnUse" x="49" y="19" width="49" height="53">
<path d="M49.1187 19.9199H97.5378V71.567H49.1187V19.9199Z" fill="white"/>
</mask>
<g mask="url(#mask3_396_2532)">
<path d="M97.2925 58.1652C96.3936 58.0426 95.5355 57.92 94.6775 57.7157C92.0952 62.0324 88.1715 65.3857 83.5052 67.2639C78.8389 69.142 73.6863 69.4418 68.8336 68.1175C63.981 66.7932 59.6949 63.9176 56.6295 59.9294C53.5641 55.9413 51.8877 51.0598 51.8562 46.0298C51.8301 41.2598 53.2796 36.5984 56.0061 32.6844C58.7326 28.7703 62.6027 25.7951 67.0861 24.1664C71.5695 22.5377 76.4469 22.3352 81.0499 23.5866C85.6529 24.8381 89.7563 27.4822 92.7979 31.1567L95.8624 30.6664C92.5865 26.118 87.9216 22.757 82.5702 21.0893C77.2187 19.4215 71.4703 19.5375 66.1904 21.4195C60.9105 23.3016 56.385 26.848 53.2951 31.5248C50.2052 36.2015 48.7183 41.7555 49.0581 47.3505C49.3979 52.9455 51.5462 58.2786 55.1794 62.547C58.8126 66.8154 63.7342 69.788 69.203 71.0172C74.6719 72.2464 80.3921 71.6657 85.5023 69.3625C90.6126 67.0593 94.8363 63.1584 97.5377 58.2469L97.2925 58.1652Z" fill="#17AE4A"/>
</g>
</g>
<g opacity="0.6">
<mask id="mask4_396_2532" style="mask-type:luminance" maskUnits="userSpaceOnUse" x="47" y="19" width="53" height="53">
<path d="M47.9336 19.9199H99.5398V71.5261H47.9336V19.9199Z" fill="white"/>
</mask>
<g mask="url(#mask4_396_2532)">
<path d="M49.6905 54.4056C50.3851 53.8335 51.0388 53.2615 51.7743 52.7303C50.2846 48.0603 50.3201 43.0373 51.8756 38.3888C53.4311 33.7403 56.4258 29.7075 60.4261 26.8745C64.4265 24.0415 69.2247 22.5554 74.126 22.6314C79.0273 22.7073 83.7772 24.3414 87.6878 27.2969C91.5984 30.2524 94.4668 34.376 95.8775 39.0705C97.2883 43.765 97.1681 48.7867 95.5345 53.4083C93.9008 58.03 90.8385 62.0116 86.791 64.7768C82.7434 67.5419 77.9208 68.9469 73.0215 68.7883L71.3871 71.4033C76.9481 71.9052 82.5217 70.5883 87.27 67.6505C92.0182 64.7127 95.6844 60.3129 97.7174 55.1126C99.7504 49.9123 100.04 44.1925 98.5435 38.8133C97.0467 33.4341 93.844 28.6862 89.4171 25.2834C84.9902 21.8806 79.5783 20.0069 73.9951 19.944C68.4119 19.8811 62.9591 21.6324 58.4566 24.9345C53.9542 28.2366 50.6453 32.9112 49.0277 38.2553C47.41 43.5994 47.5709 49.3242 49.4862 54.569L49.6905 54.4056Z" fill="#1EAE4E"/>
</g>
</g>
<g opacity="0.5">
<mask id="mask5_396_2532" style="mask-type:luminance" maskUnits="userSpaceOnUse" x="59" y="33" width="49" height="35">
<path d="M59.8647 33.3223H107.916V67.4812H59.8647V33.3223Z" fill="white"/>
</mask>
<g mask="url(#mask5_396_2532)">
<path d="M70.0389 49.1355C72.327 47.1742 73.6346 45.3355 73.8797 43.5785C74.084 42.1484 73.7163 41.3721 72.8174 41.2495C72.2862 41.1678 71.8776 41.3721 71.5916 41.8624C71.3055 42.3527 71.0604 43.2516 70.8561 44.6409L62.4798 43.6194C62.7914 41.3197 63.6612 39.1314 65.0131 37.2452C66.2389 35.6517 67.669 34.5484 69.3443 33.9355C71.0447 33.3263 72.8687 33.1439 74.6561 33.4044C77.9249 33.813 80.213 34.9979 81.4797 36.9592C82.756 38.9742 83.2366 41.392 82.8281 43.7419C82.4321 46.5021 81.1902 49.0717 79.2732 51.0967C77.269 53.325 74.8731 55.167 72.2045 56.5311L81.1119 57.6752L80.0087 65.3569L59.8647 62.8236L60.8862 55.6731C64.6862 53.2623 67.7507 51.0967 70.0389 49.1355ZM84.2173 50.4838C84.5765 46.5007 86.1448 42.7226 88.7119 39.6559C91.0409 37.1226 94.1463 36.1011 98.1097 36.5914C102.073 37.0818 104.811 38.8387 106.323 41.8624C107.917 45.4816 108.373 49.5004 107.63 53.3849C107.271 57.368 105.703 61.1462 103.135 64.2128C100.806 66.7461 97.7011 67.7676 93.7377 67.2773C89.7743 66.787 87.0366 65.03 85.5248 62.0064C83.9198 58.3899 83.4634 54.368 84.2173 50.4838ZM99.0904 52.3634C99.3764 50.3204 99.3764 48.7269 99.1312 47.5828C98.886 46.4387 98.1097 45.7849 96.843 45.6215C95.5355 45.4581 94.5957 45.9075 94.0237 46.929C93.3257 48.3815 92.8833 49.9434 92.7162 51.5462C92.4302 53.5892 92.3893 55.1827 92.6753 56.3268C92.9205 57.5118 93.6968 58.1655 95.0043 58.329C96.271 58.4924 97.2108 58.0429 97.7828 56.9806C98.3549 55.9591 98.8043 54.4064 99.0904 52.3634Z" fill="#004E67"/>
</g>
</g>
<path d="M70.6519 47.5821C73.0626 45.4574 74.3702 43.5778 74.5745 41.9026C74.7788 40.5133 74.3702 39.8596 73.4304 39.8596C72.8992 39.8596 72.4497 40.1047 72.1637 40.595C71.7728 41.4477 71.5243 42.3587 71.4282 43.2918H62.5616C62.8764 41.0181 63.7465 38.857 65.0949 36.9994C66.3616 35.365 67.8734 34.1392 69.6304 33.3628C71.3874 32.5865 73.2669 32.2188 75.2282 32.2188C78.7013 32.2188 81.1121 33.0768 82.5013 34.7929C83.8905 36.5091 84.3809 38.5929 84.054 41.0445C83.6171 43.8123 82.3653 46.3871 80.4583 48.4402C78.4153 50.7283 75.9637 52.7305 73.1035 54.4057H82.5422L81.5207 61.8014H60.1509L61.0907 54.8552C65.0949 52.1176 68.2412 49.7068 70.6519 47.5821ZM85.6475 47.1735C86.2604 42.6789 87.7722 39.0832 90.183 36.4273C91.4362 35.0863 92.9659 34.0336 94.6662 33.3422C96.3665 32.6508 98.1968 32.3372 100.03 32.4231C104.198 32.4231 107.14 33.7714 108.815 36.4273C110.592 39.7111 111.156 43.5155 110.409 47.1735C110.02 51.1444 108.439 54.9047 105.873 57.9606C104.627 59.3105 103.098 60.3692 101.396 61.0613C99.6943 61.7534 97.8607 62.0619 96.026 61.9648C91.8582 61.9648 88.9163 60.6164 87.2411 57.9606C85.5658 55.3046 85.0346 51.709 85.6475 47.1735ZM101.338 47.1735C101.621 45.6873 101.608 44.1597 101.297 42.6789C101.011 41.6166 100.194 41.0854 98.8453 41.0854C97.4561 41.0854 96.4754 41.6166 95.9034 42.6789C95.2174 44.0899 94.7884 45.6119 94.6367 47.1735C94.3507 49.1348 94.3916 50.6466 94.6776 51.709C94.9636 52.7713 95.8217 53.3025 97.17 53.3025C98.5184 53.3025 99.4991 52.7713 100.071 51.709C100.643 50.6466 101.093 49.1348 101.338 47.1735Z" fill="white"/>
<mask id="mask6_396_2532" style="mask-type:luminance" maskUnits="userSpaceOnUse" x="60" y="32" width="25" height="31">
<path d="M69.6304 33.8528C67.8734 34.6291 66.3616 35.814 65.0949 37.4893C63.8283 39.1237 63.0111 41.2484 62.5616 43.7817H71.4282C71.5917 42.4742 71.8368 41.5753 72.1637 41.085C72.2854 40.8566 72.4684 40.6667 72.6922 40.5367C72.916 40.4068 73.1717 40.3419 73.4304 40.3495C74.411 40.3495 74.7788 41.0441 74.5745 42.3925C74.3293 44.0678 73.0218 45.9473 70.6519 48.072C67.6136 50.686 64.4207 53.1147 61.0907 55.3451L60.1509 62.2096H81.4798L82.5013 54.8139H73.0626C75.9228 53.1387 78.3744 51.1365 80.4174 48.8484C82.4604 46.5602 83.6862 44.0678 84.0131 41.4527C84.2168 40.3603 84.1836 39.2368 83.9158 38.1583C83.6479 37.0798 83.1516 36.0713 82.4604 35.2011C81.0712 33.485 78.6605 32.627 75.1874 32.627C73.2261 32.7087 71.3465 33.0764 69.6304 33.8528Z" fill="white"/>
</mask>
<g mask="url(#mask6_396_2532)">
<path d="M50.7122 58.8591L62.9293 24.9453L93.7786 36.1001L81.5615 69.973L50.7122 58.8591Z" fill="url(#paint0_linear_396_2532)"/>
</g>
<mask id="mask7_396_2532" style="mask-type:luminance" maskUnits="userSpaceOnUse" x="85" y="32" width="26" height="31">
<path d="M94.6775 52.2398C94.3915 51.1774 94.3915 49.6656 94.6366 47.7043C94.9227 45.743 95.3313 44.2312 95.9033 43.2097C96.4753 42.1473 97.456 41.6162 98.8452 41.6162C100.194 41.6162 101.011 42.1473 101.297 43.2097C101.583 44.2721 101.624 45.7839 101.338 47.7043C101.052 49.6656 100.643 51.1774 100.071 52.2398C99.499 53.3021 98.5183 53.8333 97.17 53.8333C95.7807 53.8333 94.9635 53.3021 94.6775 52.2398ZM90.1829 36.9581C87.6095 39.9932 86.0268 43.7432 85.6474 47.7043C85.0345 52.1989 85.5657 55.7946 87.2001 58.4913C88.8754 61.1881 91.7764 62.4956 95.985 62.4956C100.153 62.4956 103.462 61.1472 105.832 58.4913C108.407 55.4409 109.989 51.6777 110.368 47.7043C110.981 43.2097 110.449 39.6549 108.774 36.9581C107.099 34.2614 104.198 32.9538 99.9893 32.9538C98.1606 32.8572 96.3332 33.166 94.6379 33.8583C92.9425 34.5505 91.4212 35.6091 90.1829 36.9581Z" fill="white"/>
</mask>
<g mask="url(#mask7_396_2532)">
<path d="M76.5356 59.799L87.4044 25.4766L119.48 35.6098L108.611 69.9731L76.5356 59.799Z" fill="url(#paint1_linear_396_2532)"/>
</g>
<path d="M131.37 50.0337C131.859 50.8418 132.048 51.7971 131.901 52.7305C131.697 54.2832 131.002 55.509 129.858 56.367C128.497 57.2784 126.876 57.7229 125.241 57.6337H115.884L118.335 39.7779L119.112 38.6338C120.91 38.6338 130.675 40.1865 131.615 40.9628C132.555 41.7391 132.922 42.9241 132.718 44.4359C132.625 45.4025 132.233 46.316 131.596 47.0486C130.958 47.7813 130.108 48.2964 129.163 48.5219C130.103 48.7671 130.879 49.2574 131.37 50.0337ZM122.953 46.7649H125.118C125.533 46.7924 125.946 46.6926 126.303 46.4789C126.45 46.3689 126.57 46.2274 126.655 46.0648C126.74 45.9021 126.787 45.7225 126.793 45.5391C126.834 45.0897 126.793 44.7628 126.548 44.5585C126.344 44.3542 125.976 44.2316 125.486 44.2316H123.32L122.953 46.7649ZM125.772 52.8939C126.058 52.6896 126.221 52.4036 126.262 51.9541C126.385 51.0961 125.935 50.6466 124.955 50.6466H122.421L122.095 53.1799H124.628C125.118 53.1799 125.527 53.0574 125.772 52.8939ZM140.563 44.2316L140.236 46.438L145.998 49.5025L145.221 50.6875H139.664L139.337 53.1799L145.793 56.5305L145.017 57.6745H133.127L135.578 39.7779L136.314 38.6338L147.632 43.0875L146.856 44.2316H140.563ZM163.772 43.0875L163.036 44.2316H158.296L157.193 56.4896L156.458 57.6745H150.819L152.658 44.2316H148L148.572 39.7779L149.348 38.6338L163.772 43.0875Z" fill="#000E14"/>
<path d="M132.187 48.7266C132.677 49.5347 132.865 50.4899 132.718 51.4233C132.514 52.976 131.819 54.2018 130.675 55.0599C129.314 55.9712 127.694 56.4157 126.058 56.3265H116.701L119.153 38.4707H128.264C130.062 38.4707 131.451 38.8793 132.391 39.6556C133.331 40.432 133.699 41.6169 133.494 43.1287C133.402 44.0954 133.009 45.0089 132.372 45.7415C131.734 46.4741 130.884 46.9892 129.94 47.2147C130.92 47.419 131.697 47.9502 132.187 48.7266ZM123.77 45.4169H125.935C126.35 45.4444 126.764 45.3446 127.12 45.1309C127.267 45.0209 127.387 44.8794 127.472 44.7167C127.557 44.5541 127.604 44.3745 127.611 44.1911C127.651 43.7416 127.611 43.4148 127.365 43.2105C127.161 43.0062 126.793 42.8836 126.303 42.8836H124.137L123.77 45.4169ZM126.589 51.5459C126.875 51.3416 127.039 51.0556 127.079 50.6061C127.202 49.7481 126.752 49.3395 125.772 49.3395H123.239L122.912 51.8728H125.445C125.935 51.8319 126.344 51.7502 126.589 51.5459ZM141.38 42.9244L141.053 45.1309H146.61L146.038 49.3395H140.481L140.155 51.8728H146.447L145.834 56.3265H133.944L136.395 38.4707H148.286L147.673 42.9244H141.38ZM164.466 38.4707L163.853 42.9244H159.114L157.275 56.3265H151.636L153.475 42.9244H148.817L149.389 38.4707H164.466Z" fill="white"/>
<mask id="mask8_396_2532" style="mask-type:luminance" maskUnits="userSpaceOnUse" x="116" y="38" width="18" height="19">
<path d="M123.157 49.5027H125.69C126.671 49.5027 127.12 49.9113 126.998 50.8102C126.986 50.9924 126.937 51.1702 126.852 51.332C126.768 51.4939 126.65 51.6363 126.508 51.75C126.221 51.9543 125.854 52.036 125.363 52.036H122.83L123.157 49.5027ZM124.056 43.0877H126.221C126.712 43.0877 127.08 43.2103 127.284 43.4146C127.488 43.6189 127.57 43.9458 127.529 44.3952C127.523 44.5786 127.476 44.7582 127.391 44.9208C127.306 45.0835 127.186 45.225 127.039 45.335C126.753 45.5393 126.385 45.621 125.854 45.621H123.688L124.056 43.0877ZM119.071 38.634L116.619 56.4898H125.976C127.897 56.4898 129.449 56.0812 130.594 55.2231C131.738 54.3651 132.432 53.1801 132.637 51.5866C132.759 50.5651 132.596 49.6662 132.105 48.8898C131.845 48.4928 131.509 48.1512 131.116 47.8847C130.724 47.6182 130.282 47.4321 129.817 47.3371C130.757 47.092 131.533 46.6425 132.187 45.907C132.841 45.1716 133.209 44.3135 133.372 43.2511C133.576 41.7393 133.209 40.5952 132.269 39.778C131.072 38.9177 129.613 38.4989 128.142 38.5931H119.071V38.634Z" fill="white"/>
</mask>
<g mask="url(#mask8_396_2532)">
<path d="M114.045 56.1223L116.987 36.1826L136.191 39.002L133.249 58.9416L114.045 56.1223Z" fill="url(#paint2_linear_396_2532)"/>
</g>
<mask id="mask9_396_2532" style="mask-type:luminance" maskUnits="userSpaceOnUse" x="133" y="38" width="16" height="19">
<path d="M136.314 38.6338L133.862 56.5305H145.793L146.406 52.0359H140.073L140.441 49.5025H145.998L146.57 45.294H141.013L141.299 43.0875H147.632L148.245 38.6338H136.314Z" fill="white"/>
</mask>
<g mask="url(#mask9_396_2532)">
<path d="M131.288 56.1217L134.189 36.5498L150.819 39.0014L147.918 58.5733L131.288 56.1217Z" fill="url(#paint3_linear_396_2532)"/>
</g>
<mask id="mask10_396_2532" style="mask-type:luminance" maskUnits="userSpaceOnUse" x="148" y="38" width="17" height="19">
<path d="M149.348 38.6338L148.735 43.0875H153.434L151.596 56.5305H157.193L159.032 43.0875H163.772L164.385 38.6338H149.348Z" fill="white"/>
</mask>
<g mask="url(#mask10_396_2532)">
<path d="M146.161 56.1221L149.062 36.3867L166.959 39.0018L164.058 58.778L146.161 56.1221Z" fill="url(#paint4_linear_396_2532)"/>
</g>
</g>
</g>
<defs>
<linearGradient id="paint0_linear_396_2532" x1="22.2773" y1="44.7132" x2="33.5394" y2="13.602" gradientUnits="userSpaceOnUse">
<stop stop-color="#D9D9D9"/>
<stop offset="1" stop-color="white"/>
</linearGradient>
<linearGradient id="paint1_linear_396_2532" x1="49.6499" y1="55.2577" x2="61.7241" y2="17.1949" gradientUnits="userSpaceOnUse">
<stop stop-color="#D9D9D9"/>
<stop offset="1" stop-color="white"/>
</linearGradient>
<linearGradient id="paint2_linear_396_2532" x1="116.677" y1="53.1244" x2="118.71" y2="39.354" gradientUnits="userSpaceOnUse">
<stop stop-color="#D9D9D9"/>
<stop offset="1" stop-color="white"/>
</linearGradient>
<linearGradient id="paint3_linear_396_2532" x1="130.593" y1="58.8057" x2="132.626" y2="45.0353" gradientUnits="userSpaceOnUse">
<stop stop-color="#D9D9D9"/>
<stop offset="1" stop-color="white"/>
</linearGradient>
<linearGradient id="paint4_linear_396_2532" x1="148.422" y1="58.5821" x2="150.456" y2="44.8116" gradientUnits="userSpaceOnUse">
<stop stop-color="#D9D9D9"/>
<stop offset="1" stop-color="white"/>
</linearGradient>
<clipPath id="clip0_396_2532">
<rect width="163.45" height="61.29" fill="white" transform="translate(24.4751 16.8555)"/>
</clipPath>
<clipPath id="clip1_396_2532">
<rect width="163.45" height="61.29" fill="white" transform="translate(24.4751 16.8555)"/>
</clipPath>
</defs>
</svg>
