<svg width="212" height="95" viewBox="0 0 212 95" fill="none" xmlns="http://www.w3.org/2000/svg">
<rect x="0.799805" width="211.2" height="95" rx="16" fill="#0A0808"/>
<g clip-path="url(#clip0_396_2553)">
<g clip-path="url(#clip1_396_2553)">
<g clip-path="url(#clip2_396_2553)">
<path d="M52.1655 75.7546C52.0884 76.2943 52.4738 77.1423 52.5509 77.6048C52.576 78.0564 52.6804 78.5 52.8593 78.9154C53.5531 78.5299 54.1699 78.1445 54.8637 77.9132L56.7139 77.1423C56.7165 77.0909 56.7165 77.0395 56.7139 76.9881L56.791 77.1423L57.7932 76.8339L58.0245 76.7568V76.6797C57.8628 76.0964 57.7341 75.5044 57.639 74.9066C57.6211 74.7014 57.6211 74.4951 57.639 74.2899C57.7932 74.8295 58.7183 76.4485 58.9496 76.4485H59.1808C60.7227 75.9859 62.3416 75.6775 63.9606 75.3692C65.9667 74.9494 68.0034 74.6916 70.0508 74.5982L73.52 74.367C73.9054 74.367 74.1367 74.2128 74.0596 74.1357C74.0105 73.7198 73.9333 73.3077 73.8283 72.9022C73.6501 72.402 73.521 71.8856 73.4429 71.3604L72.9803 68.1225L72.4407 65.1159C72.3636 64.5763 72.5178 63.6512 71.901 63.2657C71.1301 62.8032 70.6676 61.7239 70.3592 60.953C69.8876 59.9064 69.5009 58.8236 69.2028 57.7151C68.8284 55.9293 68.1781 54.2127 67.2755 52.627C66.5046 51.3165 64.9627 51.0081 63.4209 51.0081C63.1385 50.9908 62.8553 50.9908 62.5729 51.0081H61.3394C61.0592 51.0834 60.797 51.2145 60.5685 51.3935C60.4984 51.4547 60.4206 51.5065 60.3372 51.5477C60.124 51.6026 59.9172 51.6801 59.7205 51.779V51.9332H59.9518C59.2082 52.3642 58.4019 52.6763 57.5619 52.8583C57.0827 52.9847 56.592 53.0622 56.0972 53.0896C55.6785 53.1595 55.266 53.2627 54.8637 53.3979C54.8228 53.3979 54.7836 53.4142 54.7547 53.4431C54.7258 53.472 54.7095 53.5112 54.7095 53.5521C54.888 53.901 55.0425 54.2616 55.1721 54.6314C55.1805 54.7855 55.1805 54.9399 55.1721 55.094C55.1337 55.031 55.0808 54.9782 55.0179 54.9398C54.8637 54.6314 54.7095 53.7063 54.247 53.6292C54.2202 53.6443 54.1986 53.6671 54.1849 53.6945C54.1711 53.722 54.1659 53.7529 54.1699 53.7834C54.0157 54.0918 53.476 54.4001 53.2448 54.5543C52.8397 54.8619 52.3998 55.1206 51.9342 55.3252C50.5661 55.9138 49.1775 56.4538 47.7712 56.9442H46.8461C46.2304 57.2448 45.7002 57.6955 45.3043 58.2547C45.3043 58.2547 45.2272 58.486 45.3043 58.4089C45.6704 58.3941 46.0362 58.4464 46.3836 58.5631C46.1523 59.0257 46.3065 59.7195 46.3065 60.2591C46.3065 60.5675 46.6919 60.8759 46.769 61.1071L47.1545 61.8781C47.2466 62.1782 47.2985 62.4893 47.3087 62.8032C47.3087 62.8133 47.3107 62.8233 47.3145 62.8327C47.3184 62.842 47.3241 62.8505 47.3313 62.8577C47.3384 62.8648 47.3469 62.8705 47.3563 62.8744C47.3656 62.8783 47.3756 62.8803 47.3858 62.8803C47.6941 62.8803 47.9254 62.649 48.2338 62.649C48.6963 62.4948 49.0818 62.4948 49.5443 62.4948C49.2164 62.6389 48.9061 62.8199 48.6192 63.0344C48.3389 63.1785 48.0796 63.36 47.8483 63.5741C47.617 63.8825 48.2338 64.4221 48.388 64.6534C48.7985 65.5288 49.0591 66.4669 49.1589 67.4287C49.3022 68.1839 49.5623 68.9121 49.9298 69.5873C50.1829 69.9341 50.3662 70.3269 50.4694 70.7436V71.3604C50.5119 71.3983 50.5667 71.4193 50.6236 71.4193C50.6805 71.4193 50.7354 71.3983 50.7778 71.3604C51.0281 71.2799 51.2868 71.2282 51.5487 71.2062C51.4672 71.2505 51.3898 71.3021 51.3175 71.3604C51.1633 71.5917 50.8549 71.7458 50.7778 71.9771C50.7007 72.2084 51.0862 72.6709 51.2404 72.8251C51.4055 73.0715 51.5181 73.3492 51.5712 73.641C51.6243 73.9328 51.6166 74.2324 51.5487 74.5212C51.3946 74.8295 51.3175 74.9837 51.5487 75.215C51.78 75.4463 52.3197 75.3692 52.1655 75.8317V75.7546Z" fill="#BF4027"/>
<path d="M56.1742 53.0896H56.02C55.943 53.0847 55.8658 53.0847 55.7888 53.0896H55.4033L55.0178 53.2437C54.9666 53.2373 54.9148 53.2373 54.8636 53.2437C54.8432 53.2437 54.8236 53.2519 54.8091 53.2663C54.7947 53.2808 54.7866 53.3004 54.7866 53.3208C54.7866 53.3413 54.7947 53.3609 54.8091 53.3753C54.8236 53.3898 54.8432 53.3979 54.8636 53.3979V53.8605C54.8925 53.9102 54.9183 53.9617 54.9407 54.0147V54.4001C54.9458 54.4771 54.9458 54.5544 54.9407 54.6314C54.948 54.7598 54.948 54.8885 54.9407 55.0169C54.9433 54.9655 54.9433 54.914 54.9407 54.8627C54.8724 54.7983 54.8197 54.7192 54.7866 54.6314L54.6324 54.2459C54.5904 54.1139 54.5389 53.985 54.4782 53.8605C54.4011 53.7834 54.324 53.6292 54.1698 53.6292C54.1445 53.6227 54.118 53.6227 54.0927 53.6292C54.0773 53.7094 54.0514 53.7871 54.0156 53.8605C53.9211 53.9712 53.818 54.0743 53.7073 54.1688C53.4876 54.3632 53.2559 54.5434 53.0134 54.7085L52.628 54.9398L52.3196 55.0939C52.068 55.2097 51.8107 55.3127 51.5487 55.4023L50.0069 56.0191L49.2359 56.3274L48.465 56.5587L48.0025 56.7129C47.8742 56.7236 47.7453 56.7236 47.617 56.7129C47.351 56.6968 47.0854 56.7499 46.8461 56.8671C46.5723 56.9588 46.3128 57.0886 46.0752 57.2525C45.8792 57.4435 45.6988 57.6497 45.5355 57.8693L45.3813 58.0234H45.6126C45.8751 58.0417 46.1342 58.0936 46.3835 58.1776L46.4606 58.2547C46.4562 58.3317 46.4562 58.409 46.4606 58.486L46.3835 58.6402V60.2591C46.4004 60.3389 46.4263 60.4165 46.4606 60.4904L46.769 60.7988L46.9232 61.1842L47.0774 61.5697V61.7239C47.1356 61.7962 47.1872 61.8736 47.2315 61.9551V62.649C47.3633 62.6063 47.4921 62.5548 47.617 62.4948C47.8153 62.4178 48.0225 62.366 48.2337 62.3406H49.5443V62.4177H49.3901L49.2359 62.4948L49.0047 62.7261L48.6963 62.9573L48.3879 63.1115L48.0796 63.3428L48.0025 63.4199H47.9254C47.9049 63.4199 47.8853 63.428 47.8709 63.4425C47.8564 63.4569 47.8483 63.4765 47.8483 63.497C47.8483 63.5174 47.8564 63.537 47.8709 63.5515C47.8853 63.5659 47.9049 63.5741 47.9254 63.5741C47.9017 63.6493 47.9017 63.7301 47.9254 63.8053C47.992 63.9156 48.0694 64.0189 48.1566 64.1137L48.3879 64.345C48.416 64.3952 48.4417 64.4466 48.465 64.4992L48.5421 64.7304C48.6014 64.8291 48.6529 64.9322 48.6963 65.0388L48.8505 65.3472L49.0047 66.1181L49.0817 66.8119C49.1588 67.0432 49.0817 67.0432 49.0817 67.1203V67.5058C49.1709 67.7179 49.2739 67.9239 49.3901 68.1225L49.6214 68.8163L50.0069 69.4331C50.0069 69.6643 50.2381 69.8185 50.3152 70.0498C50.4592 70.2818 50.539 70.5478 50.5465 70.8207C50.5292 70.9228 50.5292 71.027 50.5465 71.1291C50.5397 71.1408 50.5362 71.1541 50.5362 71.1676C50.5362 71.1812 50.5397 71.1945 50.5465 71.2062H50.7778C50.878 71.1713 50.9812 71.1455 51.0861 71.1291L51.4716 71.052C51.3759 71.186 51.2729 71.3146 51.1632 71.4375C51.0464 71.5251 50.9425 71.6289 50.8549 71.7458C50.8559 71.7715 50.8559 71.7972 50.8549 71.8229V71.9C50.8382 71.9762 50.8382 72.0551 50.8549 72.1313C50.9445 72.2698 51.0478 72.3989 51.1632 72.5167C51.2194 72.5632 51.271 72.6148 51.3174 72.6709C51.3484 72.7462 51.3741 72.8234 51.3945 72.9022C51.4615 73.0507 51.5132 73.2057 51.5487 73.3648C51.5858 73.5168 51.6116 73.6714 51.6258 73.8273V74.0586C51.6326 74.1355 51.6326 74.2129 51.6258 74.2899L51.3945 74.7524C51.3994 74.8118 51.427 74.8671 51.4716 74.9066C51.4954 74.9341 51.5212 74.9598 51.5487 74.9837L51.6258 75.0608C51.7852 75.127 51.9397 75.2043 52.0883 75.2921C52.1162 75.3233 52.1375 75.36 52.1507 75.3998C52.164 75.4395 52.169 75.4816 52.1654 75.5233C52.1821 75.5995 52.1821 75.6784 52.1654 75.7546C52.1343 75.9072 52.1343 76.0646 52.1654 76.2172L52.3196 76.6797C52.3196 76.9881 52.4738 77.2194 52.5509 77.5277C52.5509 77.2194 52.3967 76.9881 52.3196 76.6797C52.2297 76.5323 52.1523 76.3776 52.0883 76.2172C52.0609 76.0642 52.0609 75.9076 52.0883 75.7546C52.1079 75.6788 52.1079 75.5992 52.0883 75.5233C52.0574 75.4549 52.0026 75.4001 51.9342 75.3692L51.5487 75.1379C51.52 75.1153 51.4942 75.0894 51.4716 75.0608L51.3945 74.9837C51.3549 74.9441 51.3268 74.8945 51.3132 74.8402C51.2996 74.7859 51.3011 74.7289 51.3174 74.6753L51.4716 74.2128C51.4788 74.1358 51.4788 74.0584 51.4716 73.9815V73.7502C51.4918 73.5967 51.4918 73.4412 51.4716 73.2877C51.4072 73.152 51.3297 73.0229 51.2403 72.9022C51.2202 72.8234 51.1944 72.7461 51.1632 72.6709C51.1155 72.616 51.064 72.5644 51.009 72.5167C50.8956 72.3972 50.7924 72.2682 50.7007 72.1313C50.6598 72.0601 50.6336 71.9815 50.6236 71.9V71.8229C50.609 71.7465 50.609 71.668 50.6236 71.5916C50.7347 71.4688 50.8648 71.3647 51.009 71.2833L51.3174 70.9749C51.107 71.0384 50.901 71.1156 50.7007 71.2062H50.6236C50.5737 71.2238 50.5193 71.2238 50.4694 71.2062H50.3923C50.3525 71.1632 50.3257 71.1097 50.3152 71.052C50.2856 70.9252 50.2856 70.7933 50.3152 70.6665C50.3311 70.5644 50.3311 70.4603 50.3152 70.3582C50.2776 70.249 50.2258 70.1454 50.161 70.0498L49.8527 69.4331L49.4672 68.7392C49.3531 68.5395 49.2502 68.3336 49.1588 68.1225C49.0837 67.8709 49.0321 67.6128 49.0047 67.3516L48.9276 67.2745V66.7348L48.7734 65.9639C48.7351 65.7553 48.6836 65.5493 48.6192 65.3472C48.5742 65.2413 48.5227 65.1383 48.465 65.0388C48.4228 64.9068 48.3713 64.778 48.3108 64.6534C48.2657 64.5961 48.2139 64.5443 48.1566 64.4992L47.9254 64.2679C47.8392 64.1722 47.7618 64.069 47.6941 63.9595C47.6664 63.8991 47.652 63.8333 47.652 63.7668C47.652 63.7003 47.6664 63.6345 47.6941 63.5741C47.8259 63.3518 48.0115 63.1662 48.2337 63.0344L48.5421 62.8802L48.8505 62.649L49.1588 62.4948L49.313 62.4177H49.4672C49.4789 62.4109 49.4922 62.4074 49.5058 62.4074C49.5193 62.4074 49.5326 62.4109 49.5443 62.4177C49.5511 62.4294 49.5546 62.4427 49.5546 62.4562C49.5546 62.4698 49.5511 62.4831 49.5443 62.4948L49.0817 62.5719H48.3108C48.1788 62.6138 48.0499 62.6654 47.9254 62.7261L47.5399 62.8802H47.2315V62.3406C47.2338 62.2892 47.2338 62.2378 47.2315 62.1864C47.2445 62.1099 47.2445 62.0317 47.2315 61.9551V61.801L47.0003 61.4155L46.8461 61.03L46.5377 60.6446C46.5093 60.5946 46.4836 60.5431 46.4606 60.4904V60.3362C46.4588 60.3105 46.4588 60.2848 46.4606 60.2591V59.1798C46.4566 59.1028 46.4566 59.0256 46.4606 58.9485V58.7173L46.5377 58.486V58.6402C46.2891 58.5534 46.0296 58.5016 45.7668 58.486H45.3813C45.3558 58.4903 45.3298 58.4903 45.3042 58.486C45.2736 58.4962 45.2401 58.4938 45.2112 58.4794C45.1823 58.4649 45.1603 58.4396 45.1501 58.4089C45.1398 58.3782 45.1422 58.3448 45.1567 58.3158C45.1711 58.2869 45.1965 58.2649 45.2271 58.2547C45.2095 58.2048 45.2095 58.1504 45.2271 58.1005L45.3813 57.9464C45.5659 57.7208 45.7725 57.5142 45.9981 57.3296C46.0966 57.247 46.1995 57.1698 46.3064 57.0983C46.4311 57.0379 46.5599 56.9864 46.6919 56.9442C46.7656 56.9091 46.8432 56.8833 46.9232 56.8671C47 56.8588 47.0776 56.8588 47.1544 56.8671H47.4628C47.5936 56.8546 47.7228 56.8287 47.8483 56.79L48.2337 56.6358L49.0047 56.4045L49.7756 56.0961L51.3174 55.5565C51.58 55.4682 51.8373 55.3653 52.0883 55.2481C52.222 55.1801 52.3508 55.1028 52.4738 55.0169C52.6093 54.952 52.7383 54.8746 52.8593 54.7856C53.0732 54.6428 53.279 54.4884 53.476 54.323C53.5874 54.2293 53.6906 54.1261 53.7844 54.0147C53.8144 53.9656 53.8402 53.914 53.8615 53.8605C53.901 53.8159 53.9562 53.7883 54.0156 53.7834C54.0274 53.7766 54.0407 53.7731 54.0542 53.7731C54.0677 53.7731 54.081 53.7766 54.0927 53.7834C54.1761 53.7834 54.2573 53.8104 54.324 53.8605C54.3527 53.9103 54.3784 53.9618 54.4011 54.0147L54.6324 54.4001L54.7095 54.7856C54.753 54.8676 54.8046 54.9451 54.8636 55.0169C54.895 55.0652 54.9209 55.1169 54.9407 55.171C54.948 55.0427 54.948 54.914 54.9407 54.7856V54.2459L54.8636 54.0147L54.7866 53.6292C54.7822 53.6037 54.7822 53.5776 54.7866 53.5521C54.78 53.5268 54.78 53.5003 54.7866 53.475C54.8599 53.4392 54.9377 53.4133 55.0178 53.3979L55.4033 53.2437H55.9429L56.1742 53.0896Z" fill="#D74227"/>
<mask id="mask0_396_2553" style="mask-type:luminance" maskUnits="userSpaceOnUse" x="55" y="50" width="20" height="26">
<path style="mix-blend-mode:multiply" d="M73.8283 72.8247C73.6761 72.3218 73.5729 71.8055 73.5199 71.2828L72.9802 68.045L72.4406 65.0384C72.3635 64.4987 72.5948 63.5736 71.978 63.1882C71.13 62.7256 70.6675 61.6463 70.282 60.8754C69.8368 59.8265 69.4759 58.7438 69.2027 57.6375C68.8525 55.8561 68.2283 54.1398 67.3525 52.5495C66.4274 51.2389 64.9627 50.9305 63.4979 51.0076C63.1899 50.987 62.8808 50.987 62.5728 51.0076H61.4164C61.1419 51.0596 60.8801 51.1643 60.6455 51.316C60.5754 51.3771 60.4977 51.429 60.4142 51.4702C60.201 51.525 59.9942 51.6026 59.7975 51.7015C59.7975 51.7785 59.7975 51.9327 59.8746 51.8556H60.0288C59.2852 52.2866 58.4789 52.5988 57.6389 52.7807C57.1849 52.9022 56.7202 52.9796 56.2513 53.012C55.9384 53.0308 55.6283 53.0825 55.3262 53.1662C57.0222 60.8754 59.1037 68.3533 61.1852 75.9083L64.0376 75.2916C66.0437 74.8718 68.0804 74.614 70.1278 74.5207L73.597 74.2894C73.9054 74.2894 74.1366 74.2123 74.1366 74.1352C74.0658 73.6915 73.9627 73.2535 73.8283 72.8247Z" fill="url(#paint0_linear_396_2553)"/>
</mask>
<g mask="url(#mask0_396_2553)">
<path style="mix-blend-mode:multiply" opacity="0.7" d="M73.8283 72.8247C73.6761 72.3218 73.5729 71.8055 73.5199 71.2828L72.9802 68.045L72.4406 65.0384C72.3635 64.4987 72.5948 63.5736 71.978 63.1882C71.13 62.7256 70.6675 61.6463 70.282 60.8754C69.8368 59.8265 69.4759 58.7438 69.2027 57.6375C68.8525 55.8561 68.2283 54.1398 67.3525 52.5495C66.4274 51.2389 64.9627 50.9305 63.4979 51.0076C63.1899 50.987 62.8808 50.987 62.5728 51.0076H61.4164C61.1419 51.0596 60.8801 51.1643 60.6455 51.316C60.5754 51.3771 60.4977 51.429 60.4142 51.4702C60.201 51.525 59.9942 51.6026 59.7975 51.7015C59.7975 51.7785 59.7975 51.9327 59.8746 51.8556H60.0288C59.2852 52.2866 58.4789 52.5988 57.6389 52.7807C57.1849 52.9022 56.7202 52.9796 56.2513 53.012C55.9384 53.0308 55.6283 53.0825 55.3262 53.1662C57.0222 60.8754 59.1037 68.3533 61.1852 75.9083L64.0376 75.2916C66.0437 74.8718 68.0804 74.614 70.1278 74.5207L73.597 74.2894C73.9054 74.2894 74.1366 74.2123 74.1366 74.1352C74.0658 73.6915 73.9627 73.2535 73.8283 72.8247Z" fill="url(#paint1_linear_396_2553)"/>
</g>
<path d="M64.9627 70.5122L64.2689 71.7456C64.2689 71.7456 64.0376 71.9769 65.5795 72.2082C67.1213 72.4395 73.1345 73.0562 74.0596 74.0584L72.9032 67.1201L64.9627 70.5122Z" fill="#931A1D"/>
<path d="M64.5774 72.054C66.7837 71.0025 69.08 70.1511 71.4385 69.51L73.2888 69.0474L72.9033 67.1201L64.9628 70.5122L64.269 71.7456C64.269 71.7456 64.1919 71.8998 64.5774 72.054Z" fill="#302B29"/>
<path d="M149.61 75.7546C149.764 76.2943 149.301 77.1423 149.224 77.6048C149.202 78.0569 149.098 78.5011 148.916 78.9154C148.299 78.5299 147.605 78.1445 146.911 77.9132L145.061 77.1423C145.059 77.0909 145.059 77.0395 145.061 76.9881C145.064 77.0395 145.064 77.0909 145.061 77.1423L143.982 76.7568H143.828C143.821 76.7451 143.817 76.7318 143.817 76.7183C143.817 76.7047 143.821 76.6914 143.828 76.6797C143.993 76.0711 144.121 75.4533 144.213 74.8295C144.227 74.6499 144.227 74.4695 144.213 74.2899C143.982 74.7524 143.057 76.4485 142.826 76.4485H142.594C141.052 75.9859 139.434 75.6775 137.815 75.3692C135.834 74.9535 133.823 74.6957 131.801 74.5982L128.255 74.367L127.716 74.1357C127.794 73.7187 127.896 73.3068 128.024 72.9022C128.172 72.3983 128.275 71.8824 128.332 71.3604L128.795 68.1225L129.335 65.1159C129.489 64.5763 129.257 63.5741 129.874 63.2657C130.722 62.8032 131.108 61.7239 131.493 60.953C131.935 59.9027 132.296 58.8203 132.572 57.7151C132.943 55.9282 133.594 54.2111 134.5 52.627C135.348 51.3165 136.812 51.0081 138.354 51.0081C138.637 50.9908 138.92 50.9908 139.202 51.0081C139.665 51.0852 139.973 51.0081 140.436 51.0081C140.718 51.0791 140.981 51.2107 141.207 51.3935C141.276 51.4554 141.354 51.5073 141.438 51.5477C141.625 51.6075 141.805 51.6849 141.978 51.779C142.055 51.779 142.055 52.0103 141.978 51.9332H141.823C142.544 52.3558 143.323 52.6676 144.136 52.8583C144.64 52.99 145.157 53.0676 145.678 53.0896C146.096 53.1608 146.509 53.2639 146.911 53.3979C146.938 53.413 146.96 53.4358 146.974 53.4632C146.987 53.4907 146.993 53.5217 146.989 53.5521C146.889 53.9327 146.812 54.3188 146.757 54.7085C146.749 54.8626 146.749 55.017 146.757 55.1711C146.773 55.1153 146.799 55.063 146.834 55.0169C147.066 54.7085 147.22 53.7834 147.605 53.7063C147.636 53.7023 147.667 53.7076 147.694 53.7213C147.722 53.735 147.744 53.7567 147.76 53.7834C147.837 54.1689 148.376 54.5543 148.608 54.7085C149.037 55.0214 149.503 55.2803 149.995 55.4794C151.341 55.9882 152.704 56.451 154.081 56.8671H155.006C155.62 57.1705 156.15 57.6206 156.548 58.1776C156.548 58.1776 156.625 58.3318 156.548 58.3318C156.156 58.3072 155.763 58.3596 155.392 58.486C155.7 58.9486 155.546 59.6424 155.546 60.182C155.546 60.4904 155.16 60.7988 155.083 61.03L154.698 61.801C154.602 62.1002 154.55 62.4119 154.544 62.7261C154.544 62.7465 154.535 62.7661 154.521 62.7806C154.507 62.795 154.487 62.8032 154.467 62.8032C154.158 62.8032 153.927 62.5719 153.696 62.4948C153.156 62.4948 152.77 62.4948 152.308 62.3406C152.639 62.5107 152.949 62.7176 153.233 62.9573C153.514 63.0997 153.774 63.2814 154.004 63.497C154.235 63.8054 153.618 64.2679 153.464 64.5763C153.08 65.4564 152.846 66.3943 152.77 67.3516C152.598 68.1098 152.312 68.8375 151.922 69.5102C151.666 69.8549 151.482 70.2484 151.383 70.6666V71.2062C151.351 71.256 151.301 71.2918 151.244 71.3061C151.187 71.3204 151.126 71.3123 151.074 71.2833C150.825 71.2015 150.566 71.1497 150.304 71.1291C150.359 71.1768 150.41 71.2283 150.458 71.2833C150.612 71.5146 150.92 71.6687 150.997 71.9C151.074 72.1313 150.689 72.5939 150.535 72.748C150.387 73.0017 150.29 73.282 150.25 73.573C150.211 73.864 150.229 74.16 150.304 74.4441C150.381 74.7524 150.535 74.9066 150.304 75.0608C150.072 75.215 149.533 75.2921 149.61 75.8317V75.7546Z" fill="#BF4027"/>
<mask id="mask1_396_2553" style="mask-type:luminance" maskUnits="userSpaceOnUse" x="127" y="50" width="21" height="26">
<path style="mix-blend-mode:multiply" d="M139.819 75.7542C141.736 68.2024 144.289 60.8266 147.451 53.7058C147.143 53.9371 146.989 54.708 146.834 54.9393C146.771 54.9777 146.719 55.0306 146.68 55.0935C146.672 54.9394 146.672 54.785 146.68 54.6309C146.76 54.2397 146.863 53.8535 146.989 53.4746C146.989 53.4337 146.972 53.3945 146.943 53.3655C146.915 53.3366 146.875 53.3204 146.834 53.3204C146.432 53.1863 146.019 53.0832 145.601 53.012C145.106 52.9847 144.615 52.9072 144.136 52.7807C143.323 52.5901 142.544 52.2782 141.823 51.8556H141.901C142.055 52.0098 142.055 51.8556 141.901 51.7785C141.731 51.6578 141.551 51.5545 141.361 51.4702C141.281 51.454 141.203 51.4281 141.13 51.3931C140.904 51.2102 140.641 51.0787 140.359 51.0076H139.202C138.894 50.987 138.585 50.987 138.277 51.0076C136.812 51.0076 135.271 51.2389 134.423 52.5495C133.543 54.1382 132.919 55.8551 132.572 57.6375C132.292 58.7166 131.931 59.7731 131.493 60.7983C131.108 61.6463 130.722 62.7256 129.874 63.1882C129.257 63.5736 129.412 64.4216 129.335 65.0384L128.795 68.045L128.332 71.2828C128.25 71.8072 128.121 72.3232 127.947 72.8247C127.845 73.2309 127.768 73.6428 127.716 74.0581L128.255 74.2894L131.724 74.4436C133.772 74.5369 135.808 74.7947 137.815 75.2145L139.819 75.7542Z" fill="url(#paint2_linear_396_2553)"/>
</mask>
<g mask="url(#mask1_396_2553)">
<path style="mix-blend-mode:multiply" opacity="0.7" d="M139.819 75.7542C141.736 68.2024 144.289 60.8266 147.451 53.7058C147.143 53.9371 146.989 54.708 146.834 54.9393C146.771 54.9777 146.719 55.0306 146.68 55.0935C146.672 54.9394 146.672 54.785 146.68 54.6309C146.76 54.2397 146.863 53.8535 146.989 53.4746C146.989 53.4337 146.972 53.3945 146.943 53.3655C146.915 53.3366 146.875 53.3204 146.834 53.3204C146.432 53.1863 146.019 53.0832 145.601 53.012C145.106 52.9847 144.615 52.9072 144.136 52.7807C143.323 52.5901 142.544 52.2782 141.823 51.8556H141.901C142.055 52.0098 142.055 51.8556 141.901 51.7785C141.731 51.6578 141.551 51.5545 141.361 51.4702C141.281 51.454 141.203 51.4281 141.13 51.3931C140.904 51.2102 140.641 51.0787 140.359 51.0076H139.202C138.894 50.987 138.585 50.987 138.277 51.0076C136.812 51.0076 135.271 51.2389 134.423 52.5495C133.543 54.1382 132.919 55.8551 132.572 57.6375C132.292 58.7166 131.931 59.7731 131.493 60.7983C131.108 61.6463 130.722 62.7256 129.874 63.1882C129.257 63.5736 129.412 64.4216 129.335 65.0384L128.795 68.045L128.332 71.2828C128.25 71.8072 128.121 72.3232 127.947 72.8247C127.845 73.2309 127.768 73.6428 127.716 74.0581L128.255 74.2894L131.724 74.4436C133.772 74.5369 135.808 74.7947 137.815 75.2145L139.819 75.7542Z" fill="url(#paint3_linear_396_2553)"/>
</g>
<path d="M136.812 70.5122L137.583 71.7456C137.583 71.7456 137.738 71.9769 136.196 72.2082C134.654 72.4395 128.641 73.0562 127.716 74.0584L128.872 67.1201L136.812 70.5122Z" fill="#931A1D"/>
<path d="M133.883 70.6664C135.018 71.0525 136.126 71.5162 137.198 72.054C137.583 71.8998 137.506 71.7456 137.506 71.7456L136.735 70.5122L128.872 67.1201L128.487 69.4329C130.33 69.6132 132.144 70.0277 133.883 70.6664Z" fill="#302B29"/>
<path d="M58.6412 42.1424C58.5618 42.1902 58.4846 42.2416 58.4099 42.2965L59.1808 41.834L58.6412 42.1424Z" fill="#78263F"/>
<path d="M137.66 71.7453L138.431 67.8907L143.596 42.2961C134.345 36.8997 118.696 33.2764 100.965 33.2764C83.2334 33.2764 67.5067 36.8226 58.2556 42.2961L63.4979 67.8907L64.2688 71.7453C71.5154 66.8114 85.2378 63.4964 100.965 63.4964C116.691 63.4964 130.414 66.8114 137.583 71.7453H137.66Z" fill="#C93A27"/>
<path d="M63.4979 67.9676C63.4862 67.9744 63.4729 67.9779 63.4593 67.9779C63.4458 67.9779 63.4325 67.9744 63.4208 67.9676L58.1785 42.296C58.1718 42.2842 58.1682 42.271 58.1682 42.2574C58.1682 42.2439 58.1718 42.2306 58.1785 42.2189C67.815 36.5141 83.7731 33.0449 100.965 33.0449C118.156 33.0449 134.114 36.437 143.674 42.1418C143.68 42.1535 143.684 42.1668 143.684 42.1803C143.684 42.1939 143.68 42.2072 143.674 42.2189C143.674 42.2393 143.665 42.2589 143.651 42.2734C143.637 42.2878 143.617 42.296 143.597 42.296C143.576 42.296 143.556 42.2878 143.542 42.2734C143.528 42.2589 143.519 42.2393 143.519 42.2189C133.96 36.5912 118.079 33.1991 100.888 33.1991C83.696 33.1991 67.9692 36.6682 58.3327 42.296L63.6521 67.7363C63.6725 67.7363 63.6921 67.7445 63.7066 67.7589C63.721 67.7734 63.7292 67.793 63.7292 67.8134C63.7292 67.8339 63.721 67.8535 63.7066 67.8679C63.6921 67.8824 63.6725 67.8905 63.6521 67.8905L63.4979 67.9676Z" fill="#D72D27"/>
<path d="M84.9296 60.413C82.3085 60.7985 80.9979 61.0298 78.3768 61.6465V50.7765L74.368 51.7016C73.9979 52.4301 73.7381 53.2096 73.5971 54.0144C73.0405 56.5373 72.2134 58.9927 71.1301 61.3382C70.7777 62.1228 70.31 62.8503 69.7425 63.4967C69.2203 64.1585 68.5272 64.665 67.7381 64.9615C67.2351 65.1114 66.6992 65.1114 66.1962 64.9615C65.4253 64.7302 65.1169 64.3447 65.1169 63.728C65.1335 63.4444 65.2417 63.1738 65.4253 62.9571C65.598 62.664 65.8723 62.4445 66.1962 62.3403C66.7359 62.1862 66.9672 62.3403 67.0442 63.1113C67.1213 63.8822 67.3526 63.8822 67.8152 63.8822C68.3828 63.7092 68.895 63.3903 69.3009 62.9575C69.7067 62.5246 69.9919 61.9928 70.1279 61.4152C70.3956 60.3318 70.4996 59.2145 70.4363 58.1003L70.3592 55.2479L70.0508 51.8558C70.0084 50.4291 70.2713 49.0098 70.8218 47.6929C71.3607 46.4025 72.06 45.1851 72.9032 44.0695C73.4429 43.2986 74.4451 42.2193 75.6015 40.8317L75.4473 40.6004C73.1345 41.14 71.9781 41.3713 69.6654 42.1422C69.317 42.23 68.9805 42.3594 68.6632 42.5277L66.9672 43.607V43.2986L67.5068 42.2193C67.6761 41.7999 67.9102 41.4097 68.2006 41.0629C68.353 41.0295 68.5108 41.0295 68.6632 41.0629C68.8907 41.1217 69.1295 41.1217 69.357 41.0629C74.4412 39.4886 79.6512 38.3538 84.9296 37.6709V60.413ZM78.1455 49.2347V40.3691C77.3281 40.9367 76.7083 41.7452 76.3724 42.6819C76.0761 43.3079 75.8187 43.9515 75.6015 44.6092C75.3862 45.2412 75.206 45.8846 75.0618 46.5365L74.4451 49.0034V50.0056L78.1455 49.0805V49.2347ZM96.4163 48.0783C96.428 49.1655 96.3246 50.2508 96.1079 51.3162C95.9273 52.2357 95.6694 53.1383 95.337 54.0144C94.9516 55.0166 94.5661 55.6333 94.5661 55.8646C94.1661 56.6059 93.7287 57.3264 93.2555 58.0232L92.5617 59.1796C92.4904 59.3132 92.3918 59.4303 92.2722 59.5232C92.1527 59.6162 92.0149 59.683 91.8679 59.7192C91.4824 59.7192 90.9428 59.3338 90.0948 58.4857C88.916 57.226 88.022 55.7273 87.4736 54.0915C87.1608 53.1045 86.9034 52.1007 86.7027 51.0849C86.439 50.0503 86.2839 48.991 86.2402 47.9241V44.0695L87.9362 43.0673L89.8635 41.9881H90.1719V46.9219C90.2291 47.6472 90.3321 48.3682 90.4802 49.0805C90.7038 50.2326 91.013 51.3665 91.4053 52.4726C91.6488 53.2552 91.9853 54.0057 92.4075 54.7082C92.641 55.1103 92.9902 55.4327 93.4097 55.6333C93.7214 55.0572 93.9301 54.4311 94.0265 53.7831C94.219 52.9484 94.3223 52.0956 94.3348 51.2391C94.3288 50.0987 94.0928 48.9712 93.641 47.9241C93.2233 46.9256 92.5918 46.0309 91.7908 45.303L94.489 42.5277C94.883 42.8568 95.2214 43.2473 95.4912 43.6841C96.1685 45.0186 96.4873 46.5063 96.4163 48.0012V48.0783ZM107.44 57.7148C107.44 57.869 106.978 58.2545 106.13 58.7941C105.656 59.1238 105.136 59.3834 104.588 59.565C104.28 59.565 103.971 59.1796 103.586 58.6399L102.969 57.7148C102.424 57.9052 101.906 58.1643 101.427 58.4857C100.863 58.8648 100.27 59.1998 99.6542 59.4879C99.5 59.4879 99.1916 59.2567 98.8062 58.717C97.7844 57.4532 97.2387 55.8707 97.2643 54.2457C97.2664 53.5406 97.3702 52.8396 97.5727 52.1642C97.9 51.3198 98.3693 50.5376 98.9603 49.8514C99.6484 48.9887 100.553 48.3237 101.581 47.9241C102.507 47.5387 102.892 47.2303 102.892 46.999C102.892 46.5365 102.584 46.0739 101.967 45.6885C101.596 45.3334 101.147 45.0695 100.656 44.9176C100.391 44.9651 100.133 45.0427 99.8854 45.1488C99.5876 45.2632 99.277 45.3408 98.9603 45.3801C98.6371 45.3852 98.3181 45.3054 98.0352 45.1488C97.9139 45.1001 97.8112 45.0142 97.7419 44.9033C97.6726 44.7925 97.6404 44.6625 97.6498 44.5321C97.6386 44.455 97.6443 44.3765 97.6664 44.3018C97.6885 44.2272 97.7265 44.1582 97.7778 44.0996C97.829 44.041 97.8924 43.9942 97.9634 43.9624C98.0345 43.9306 98.1116 43.9146 98.1894 43.9154C98.4503 43.9448 98.7082 43.9964 98.9603 44.0695C99.0878 44.0927 99.2184 44.0927 99.3458 44.0695C99.9388 43.9923 100.513 43.8095 101.042 43.5299L103.432 42.3735C103.74 42.3735 104.357 42.8361 105.282 43.607C106.207 44.3779 106.824 45.3801 106.824 46.0739V56.5584C106.879 56.8319 106.984 57.0931 107.132 57.3294C107.224 57.4905 107.327 57.6451 107.44 57.7919V57.7148ZM102.815 56.2501L102.738 48.8492C102.393 48.9721 102.077 49.1659 101.812 49.4182C101.546 49.6705 101.336 49.9757 101.196 50.314C100.871 50.9345 100.687 51.6188 100.656 52.3184C100.672 53.2509 100.882 54.1699 101.273 55.0166C101.659 55.9417 102.121 56.5584 102.352 56.4043L102.815 56.3272V56.2501ZM112.837 59.7963L108.597 59.4879V39.444C109.244 39.1362 109.914 38.8785 110.601 38.6731C111.325 38.3778 112.073 38.1457 112.837 37.9793V59.7963ZM124.786 53.2435C124.77 54.176 124.56 55.095 124.169 55.9417C123.96 56.445 123.674 56.913 123.321 57.3294L121.78 59.1025C120.623 60.2589 119.929 60.7985 119.544 60.7214C119.154 60.5839 118.808 60.3443 118.542 60.0276L117.308 58.8712C116.363 57.986 115.581 56.9424 114.995 55.7875C114.397 54.6728 114.08 53.4292 114.07 52.1642C114.069 51.2952 114.226 50.4331 114.533 49.6202C114.798 48.8894 115.189 48.2109 115.689 47.6158C118.002 44.9176 119.313 43.6841 119.621 43.7612C120.265 44.2425 120.836 44.8137 121.317 45.4572C122.162 46.4362 122.911 47.4947 123.553 48.618C123.912 49.3587 124.196 50.1334 124.401 50.9307C124.638 51.6796 124.767 52.4582 124.786 53.2435ZM121.934 56.3272C121.898 54.5769 121.449 52.8598 120.623 51.3162C119.39 48.8492 118.31 47.4616 117.462 47.3845C117.231 47.3845 117 47.5387 116.923 47.847C116.83 48.3034 116.804 48.7709 116.846 49.2347C116.788 50.8205 117.161 52.3922 117.925 53.7831C118.959 55.2202 120.148 56.5388 121.471 57.7148C121.641 57.6003 121.775 57.4399 121.857 57.2523C121.897 56.9969 121.897 56.7367 121.857 56.4814L121.934 56.3272ZM137.121 63.1884C137.121 63.4196 136.658 63.728 135.81 64.1135C135.318 64.412 134.765 64.5964 134.191 64.6531C134.037 64.6531 133.729 64.1906 133.266 63.4196C132.841 62.8001 132.577 62.085 132.495 61.3382V51.6246C132.468 51.1982 132.363 50.7803 132.187 50.3911C131.956 49.9285 131.724 49.6202 131.416 49.5431C131.332 49.5232 131.245 49.527 131.163 49.5543C131.081 49.5815 131.009 49.631 130.954 49.6973C130.853 49.8307 130.799 49.993 130.799 50.1598V63.2655L126.482 62.1862V48.9263C126.457 48.5376 126.324 48.1637 126.097 47.847L125.711 47.2303C125.711 47.2303 126.251 46.9219 127.33 46.6136C127.923 46.375 128.545 46.2193 129.18 46.151C129.412 46.2281 129.797 46.6907 130.183 47.3845C130.568 48.0783 130.799 48.5409 130.954 48.618C131.663 48.5992 132.366 48.4691 133.035 48.2325L134.885 47.847C135.117 47.847 135.425 48.2325 135.81 48.9263C136.212 49.6312 136.424 50.4279 136.427 51.2391V61.1069C136.454 61.4256 136.533 61.7379 136.658 62.032L137.121 63.2655V63.1884Z" fill="#9B1E1F"/>
<path d="M84.9296 59.6416L78.3768 60.7979V50.0051L74.368 50.9302C73.9979 51.6586 73.7381 52.4381 73.5971 53.2429C73.0405 55.7658 72.2134 58.2212 71.1301 60.5667C70.7767 61.3507 70.309 62.0782 69.7425 62.7252C69.2104 63.3587 68.5183 63.8379 67.7381 64.1129C67.2351 64.2629 66.6992 64.2629 66.1962 64.1129C65.4253 63.9587 65.1169 63.5733 65.1169 62.9565C65.1335 62.6729 65.2417 62.4024 65.4253 62.1856C65.6032 61.897 65.8756 61.679 66.1962 61.5689C66.7359 61.4147 66.9672 61.5689 67.0442 62.3398C67.1213 63.1107 67.3526 63.1107 67.8152 63.1107C68.3828 62.9377 68.895 62.6189 69.3009 62.186C69.7067 61.7531 69.9919 61.2213 70.1279 60.6438C70.3968 59.5606 70.5007 58.443 70.4363 57.3288L70.3592 54.4764L70.0508 51.0843C70.0084 49.6576 70.2713 48.2383 70.8218 46.9214C71.3621 45.6317 72.0614 44.4145 72.9032 43.2981C73.4429 42.5271 74.4451 41.4478 75.6015 40.0602L75.4473 39.7518L69.6654 41.2937C69.3135 41.4059 68.9769 41.5612 68.6632 41.7562L66.9672 42.8355V42.5271L67.5068 41.4478C67.6761 41.0284 67.9102 40.6382 68.2006 40.2915C68.3536 40.264 68.5102 40.264 68.6632 40.2915C68.8911 40.347 69.1291 40.347 69.357 40.2915C74.4402 38.7134 79.6506 37.5785 84.9296 36.8994V59.6416ZM78.1455 48.4632V39.5976C77.3281 40.1652 76.7083 40.9737 76.3724 41.9104C76.074 42.5355 75.8165 43.1793 75.6015 43.8377C75.3862 44.4697 75.206 45.1131 75.0618 45.765L74.4451 48.2319V49.2341C75.6685 48.8867 76.9025 48.5782 78.1455 48.309V48.4632ZM96.4163 47.3068C96.428 48.394 96.3246 49.4793 96.1079 50.5447C95.9266 51.464 95.6688 52.3666 95.337 53.2429C94.7449 54.6296 94.0492 55.9697 93.2555 57.2517L92.5617 58.4081C92.4904 58.5417 92.3918 58.6588 92.2722 58.7517C92.1527 58.8447 92.0149 58.9115 91.8679 58.9477C91.4824 58.9477 90.9428 58.5623 90.0948 57.7143C88.916 56.4545 88.022 54.9558 87.4736 53.32C87.1614 52.3328 86.904 51.3291 86.7027 50.3134C86.4395 49.2787 86.2845 48.2194 86.2402 47.1527V43.2981L87.9362 42.2959L89.8635 41.2166H90.1719V46.1505C90.2291 46.8758 90.3321 47.5967 90.4802 48.309C90.7021 49.4616 91.0113 50.5955 91.4053 51.7011C91.6481 52.4839 91.9846 53.2346 92.4075 53.9368C92.6371 54.342 92.9874 54.6654 93.4097 54.8619C93.7214 54.2857 93.9301 53.6596 94.0265 53.0116C94.2184 52.1768 94.3218 51.3241 94.3348 50.4676C94.3393 49.3012 94.1031 48.1465 93.641 47.0756C93.2137 46.1048 92.5827 45.2372 91.7908 44.5315L94.489 41.6791C94.8896 42.0315 95.2283 42.4484 95.4912 42.9126C96.1719 44.2459 96.4909 45.7345 96.4163 47.2297V47.3068ZM107.44 56.9433C107.44 57.0975 106.978 57.483 106.13 58.0226C105.658 58.3562 105.138 58.6162 104.588 58.7935C104.28 58.7935 103.971 58.4081 103.586 57.8684L102.969 56.9433C102.426 57.1367 101.908 57.3956 101.427 57.7143C100.867 58.1002 100.274 58.4356 99.6542 58.7165C99.5 58.7165 99.1916 58.4852 98.8062 57.9455C97.7844 56.6817 97.2387 55.0992 97.2643 53.4742C97.2664 52.7691 97.3702 52.0681 97.5727 51.3927C97.9 50.5483 98.3693 49.7661 98.9603 49.08C99.6509 48.2198 100.555 47.5554 101.581 47.1527C102.507 46.8443 102.892 46.4588 102.892 46.2275C102.892 45.765 102.584 45.3795 101.967 44.917C101.596 44.5619 101.147 44.298 100.656 44.1461C100.394 44.203 100.136 44.2803 99.8854 44.3773C99.5898 44.4986 99.2782 44.5765 98.9603 44.6086C98.6438 44.6375 98.3252 44.5844 98.0352 44.4544C97.9077 44.3921 97.8024 44.2921 97.7335 44.1681C97.6646 44.044 97.6353 43.9018 97.6498 43.7606C97.6498 43.3751 97.804 43.221 98.1894 43.1439C98.4515 43.1652 98.7102 43.2169 98.9603 43.2981C99.0882 43.316 99.2179 43.316 99.3458 43.2981C99.9388 43.2208 100.513 43.0381 101.042 42.7584L103.432 41.602C103.74 41.602 104.357 42.0646 105.282 42.8355C106.361 43.8377 106.824 44.6086 106.824 45.3024V55.787C106.881 56.06 106.985 56.3209 107.132 56.5579C107.224 56.719 107.327 56.8736 107.44 57.0204V56.9433ZM102.815 55.4015L102.738 48.0778C102.393 48.2006 102.077 48.3944 101.812 48.6467C101.546 48.899 101.336 49.2042 101.196 49.5425C100.871 50.163 100.687 50.8473 100.656 51.5469C100.674 52.4791 100.884 53.3977 101.273 54.2451C101.659 55.1702 102.121 55.787 102.352 55.6328L102.815 55.5557V55.4015ZM112.837 59.0248L108.597 58.7165V38.6725C109.245 38.3669 109.915 38.1092 110.601 37.9016C111.326 37.6101 112.074 37.3781 112.837 37.2078V59.0248ZM124.786 52.472C124.77 53.4045 124.56 54.3235 124.169 55.1702C123.958 55.673 123.673 56.1408 123.321 56.5579L121.78 58.331C120.623 59.5645 119.929 60.027 119.544 60.027C119.152 59.893 118.805 59.6528 118.542 59.3332L117.308 58.1768C116.363 57.2916 115.581 56.248 114.995 55.0931C114.397 53.9784 114.08 52.7348 114.07 51.4698C114.067 50.6006 114.224 49.7383 114.533 48.9258C114.795 48.1936 115.187 47.5147 115.689 46.9214C118.002 44.2232 119.313 42.9897 119.621 43.0668C120.267 43.5456 120.838 44.1171 121.317 44.7628C122.162 45.7418 122.911 46.8003 123.553 47.9236C123.912 48.6643 124.196 49.439 124.401 50.2363C124.637 50.9855 124.766 51.7639 124.786 52.5491V52.472ZM121.934 55.5557C121.898 53.8054 121.449 52.0883 120.623 50.5447C119.39 48.0007 118.31 46.6901 117.462 46.6901C117.231 46.613 117 46.7672 116.923 47.1527C116.825 47.5305 116.773 47.9188 116.769 48.309C116.697 49.9207 117.07 51.521 117.848 52.9346C118.903 54.401 120.119 55.7456 121.471 56.9433C121.638 56.8259 121.771 56.6663 121.857 56.4808C121.896 56.2253 121.896 55.9653 121.857 55.7099L121.934 55.5557ZM137.121 62.4169C137.121 62.6481 136.658 62.9565 135.81 63.342C135.317 63.6382 134.764 63.8224 134.191 63.8816C134.037 63.8816 133.729 63.4191 133.266 62.6482C132.841 62.0286 132.577 61.3135 132.495 60.5667V50.8531C132.469 50.4264 132.365 50.0082 132.187 49.6196C131.956 49.157 131.724 48.8487 131.416 48.7716C131.332 48.7517 131.245 48.7555 131.163 48.7828C131.081 48.81 131.009 48.8595 130.954 48.9258C130.853 49.0592 130.799 49.2215 130.799 49.3883V62.494L126.482 61.4147V48.1548C126.461 47.7652 126.328 47.3901 126.097 47.0756C125.958 46.8769 125.829 46.671 125.711 46.4588L127.33 45.765C127.926 45.5508 128.549 45.4211 129.18 45.3795C129.412 45.4566 129.797 45.8421 130.183 46.613C130.568 47.3839 130.799 47.7694 130.954 47.8465C131.664 47.8303 132.366 47.7002 133.035 47.461C133.644 47.2987 134.262 47.17 134.885 47.0756C135.117 47.0756 135.425 47.461 135.733 48.1548C136.165 48.8507 136.405 49.6489 136.427 50.4676V60.3354C136.456 60.6539 136.534 60.966 136.658 61.2605L137.121 62.4169Z" fill="#EDBC64"/>
<path opacity="0.6" d="M66.1191 64.1138C66.6221 64.2637 67.158 64.2637 67.661 64.1138C68.4691 63.8512 69.1893 63.3711 69.7425 62.7261L70.205 62.1094L68.8945 62.3406C68.5563 62.6248 68.1624 62.8349 67.7381 62.9574C67.6776 62.9814 67.6127 62.9923 67.5477 62.9895C67.4827 62.9867 67.419 62.9702 67.3608 62.9411C67.3025 62.912 67.2511 62.8709 67.2099 62.8206C67.1686 62.7703 67.1384 62.7118 67.1213 62.649L65.1169 62.9574C65.1169 63.5741 65.5024 63.8825 66.1962 64.1138H66.1191ZM69.8196 41.2945L75.5244 39.7527L75.7556 40.0611C74.7847 41.1002 73.8587 42.1804 72.9803 43.2989L71.901 44.9949L72.9032 44.6095L75.4473 43.9927L75.5244 43.6844C75.7425 43.0522 76 42.4342 76.2953 41.8342C76.6516 40.8868 77.2994 40.077 78.1455 39.5214V43.376L84.1587 42.1425L84.9296 41.9884V36.7461C79.6482 37.4504 74.4379 38.6111 69.357 40.2152C69.1046 40.2841 68.8384 40.2841 68.5861 40.2152C68.4622 40.1703 68.3323 40.1443 68.2006 40.1381C67.8829 40.4794 67.6225 40.87 67.4297 41.2945C67.4297 41.5258 67.1984 41.8342 66.9672 42.3738V42.6822L68.6632 41.6029C69.0049 41.4286 69.3677 41.2991 69.7425 41.2174L69.8196 41.2945ZM79.8415 47.1535L78.2226 47.539V48.3099L74.4451 49.235V48.4641L70.1279 49.6205C70.0378 50.0779 69.9862 50.5421 69.9737 51.0081L70.205 53.3209L73.6742 52.3187C73.781 51.8066 73.9629 51.313 74.2138 50.8539L78.2997 50.0059V51.2394L80.9208 50.6227L84.9296 49.6205V46.1513L79.7644 47.1535H79.8415ZM87.5507 53.2438L91.7137 52.4729L91.6366 52.2416L87.4736 53.1667C87.4749 53.1924 87.4749 53.2181 87.4736 53.2438H87.5507ZM95.8767 51.7019L95.9538 51.3165H95.8767L94.3348 51.6249V52.0103L95.8767 51.7019ZM90.0948 46.1513V45.3033L86.2402 45.92V47.0764C86.2527 47.8269 86.3301 48.5749 86.4714 49.3121L90.4802 48.4641V48.3099C90.3061 47.5993 90.1774 46.8783 90.0948 46.1513ZM92.2533 44.9179C92.8381 45.5511 93.3077 46.2816 93.641 47.0764C93.7309 47.3032 93.8082 47.5349 93.8723 47.7703L96.4163 47.3077V47.2306C96.4126 46.2924 96.2829 45.359 96.0308 44.4553L92.1762 44.9179H92.2533ZM102.738 50.1601V50.4685L106.901 49.6976V49.5434L102.738 50.1601ZM100.888 50.4685L97.7269 51.0081C97.664 51.1317 97.6124 51.2607 97.5727 51.3936L100.733 50.8539L100.888 50.4685ZM101.427 43.7615L97.804 44.224C97.8711 44.289 97.9494 44.3412 98.0352 44.3782C98.3181 44.5348 98.6371 44.6145 98.9603 44.6095C99.3044 44.585 99.6425 44.507 99.9625 44.3782C100.19 44.3109 100.422 44.2594 100.656 44.224C101.14 44.3534 101.588 44.5906 101.967 44.9179C102.584 45.3033 102.892 45.6888 102.892 46.1513L106.901 45.5346V45.3804C106.81 44.5991 106.424 43.882 105.822 43.376L101.427 43.8386V43.7615ZM112.837 48.6954L108.597 49.235V49.3892L112.837 48.6183V48.6954ZM108.597 43.0676V45.3804L112.837 44.7637V42.6051L108.597 43.0676ZM112.837 38.5963V37.2857C112.076 37.4309 111.329 37.6372 110.601 37.9025C109.915 38.1101 109.245 38.3677 108.597 38.6734V38.9818L112.837 38.5963ZM112.066 58.7173L110.755 58.9486L112.837 59.1028V58.6402L112.066 58.7173ZM118.927 43.9157L120.469 43.7615L119.698 42.9905C119.698 42.9905 119.004 43.2989 118.388 43.9927L118.927 43.9157ZM117.308 58.1006C117.302 58.1259 117.302 58.1524 117.308 58.1777L118.542 59.3341C118.795 59.6821 119.143 59.9498 119.544 60.105C119.929 60.105 120.623 59.5653 121.78 58.409L122.551 57.638L117.308 58.1006ZM136.427 52.1645V51.8561L133.883 52.1645L132.418 52.3958V52.7041L135.656 52.2416L136.427 52.1645ZM130.722 52.6271L126.482 53.1667V53.3209L130.722 52.8583V52.6271ZM126.482 57.2526V61.4155L130.722 62.4948V56.79L126.482 57.2526ZM136.504 60.3363V56.1733H136.35L132.495 56.6358V60.6446C132.577 61.3915 132.841 62.1066 133.266 62.7261C133.652 63.497 134.037 63.9596 134.191 64.0367C134.743 63.9432 135.269 63.7329 135.733 63.4199C136.658 63.0345 137.044 62.649 137.044 62.4948L136.658 61.2614C136.534 60.9668 136.456 60.6548 136.427 60.3363H136.504Z" fill="#FFDC83"/>
<path d="M115.304 26.7232C115.398 26.0833 115.726 25.501 116.224 25.0883C116.723 24.6755 117.356 24.4616 118.002 24.4876L118.619 20.7101L111.372 23.8708L111.449 27.8025C111.449 28.9589 110.832 29.1902 109.291 29.1902C107.749 29.1902 107.055 28.8818 107.055 27.8025V23.9479C104.511 21.1726 103.2 19.7079 100.656 16.8555L94.2577 23.8708V27.7254C94.2577 28.8818 93.5638 29.1131 92.022 29.1131C90.4801 29.1131 89.8634 29.036 89.8634 27.8796L89.9405 23.9479L82.6938 20.7101L83.3106 24.4876C83.9569 24.4616 84.5901 24.6755 85.0882 25.0883C85.5863 25.501 85.9142 26.0833 86.0088 26.7232C86.2401 28.0338 85.7775 29.1131 84.6211 29.4215C85.0099 30.692 85.4997 31.9295 86.0859 33.1219C88.6299 32.7364 89.6321 32.5822 92.2533 32.351C95.0727 32.1012 97.9032 31.9983 100.733 32.0426C103.564 31.9982 106.394 32.1011 109.214 32.351C111.758 32.5822 112.683 32.6593 115.227 33.1219C115.842 31.933 116.357 30.6953 116.769 29.4215C115.535 29.1902 115.072 28.0338 115.304 26.7232ZM100.656 28.8818C100.36 28.8926 100.064 28.8422 99.7881 28.7336C99.512 28.6251 99.2612 28.4608 99.0514 28.251C98.8416 28.0412 98.6773 27.7904 98.5688 27.5143C98.4603 27.2382 98.4098 26.9427 98.4206 26.6462C98.4206 26.0532 98.6562 25.4846 99.0754 25.0653C99.4947 24.646 100.063 24.4105 100.656 24.4105C101.249 24.4105 101.818 24.646 102.237 25.0653C102.656 25.4846 102.892 26.0532 102.892 26.6462C102.903 26.9427 102.852 27.2382 102.744 27.5143C102.635 27.7904 102.471 28.0412 102.261 28.251C102.051 28.4608 101.801 28.6251 101.524 28.7336C101.248 28.8422 100.953 28.8926 100.656 28.8818Z" fill="#D08429"/>
<path d="M115.304 25.8756C115.399 25.2422 115.73 24.6681 116.23 24.268C116.73 23.8678 117.363 23.6711 118.002 23.7171L118.619 19.9396L111.449 23.1003L111.526 27.032C111.526 28.1884 110.91 28.4197 109.368 28.3426C107.826 28.2655 107.132 28.0342 107.132 26.9549V23.0232C104.511 20.4021 103.2 18.9374 100.656 16.085L94.2577 23.1003V26.9549C94.2577 28.1113 93.5638 28.3426 92.022 28.4197C90.4801 28.4968 89.8634 28.1884 89.8634 27.032L89.9405 23.1774L82.6938 19.9396L83.3106 23.7171C83.9456 23.6885 84.5694 23.8917 85.0657 24.2888C85.5621 24.6859 85.8973 25.2498 86.0088 25.8756C86.0911 26.1591 86.1164 26.4561 86.0833 26.7494C86.0502 27.0427 85.9594 27.3265 85.8161 27.5845C85.6727 27.8425 85.4797 28.0696 85.2482 28.2526C85.0166 28.4357 84.7511 28.5711 84.467 28.651C84.7779 29.9156 85.1904 31.1531 85.7004 32.3514C88.3216 31.9659 89.555 31.8117 92.1762 31.5805C94.9945 31.3088 97.8249 31.1801 100.656 31.195C103.488 31.1801 106.318 31.3088 109.136 31.5805C111.758 31.8117 112.991 31.9659 115.612 32.3514C116.15 31.1559 116.588 29.9183 116.923 28.651C116.632 28.5794 116.358 28.4501 116.118 28.2706C115.878 28.0912 115.676 27.8653 115.525 27.6064C115.374 27.3475 115.277 27.0608 115.239 26.7635C115.201 26.4662 115.223 26.1642 115.304 25.8756ZM100.656 28.1113C100.36 28.1221 100.064 28.0717 99.7881 27.9631C99.512 27.8546 99.2612 27.6903 99.0514 27.4805C98.8416 27.2707 98.6773 27.0199 98.5688 26.7438C98.4603 26.4677 98.4098 26.1721 98.4206 25.8756C98.4206 25.2827 98.6562 24.7141 99.0754 24.2948C99.4947 23.8755 100.063 23.64 100.656 23.64C101.249 23.64 101.818 23.8755 102.237 24.2948C102.656 24.7141 102.892 25.2827 102.892 25.8756C102.903 26.1721 102.852 26.4677 102.744 26.7438C102.635 27.0199 102.471 27.2707 102.261 27.4805C102.051 27.6903 101.801 27.8546 101.524 27.9631C101.248 28.0717 100.953 28.1221 100.656 28.1113Z" fill="#EDBC64"/>
<path opacity="0.6" d="M107.055 25.336V23.1003L106.901 22.9462L102.661 24.9505C102.801 25.2395 102.88 25.5546 102.892 25.8756C102.911 26.308 102.804 26.7365 102.584 27.1091C104.048 26.4153 105.513 25.8756 107.055 25.336ZM118.619 19.9396L111.449 23.1003V23.8713C113.762 23.2545 116.075 22.6378 118.311 22.1752L118.696 19.9396H118.619ZM98.5749 26.8008C94.9516 28.5739 91.4825 30.347 88.553 31.9659L92.1763 31.5034H92.8701C95.1058 30.2699 97.4957 29.1906 100.194 27.9571C99.8573 27.889 99.5418 27.7416 99.2737 27.527C99.0055 27.3125 98.7924 27.0371 98.652 26.7237L98.5749 26.8008ZM104.742 20.7105L100.656 16.085L94.2578 23.1003V23.4858L104.819 20.7105H104.742Z" fill="#FFDC83"/>
<path opacity="0.3" d="M115.304 25.876C115.408 25.4217 115.62 24.9988 115.92 24.6426L111.449 26.5699V27.0324C111.449 28.1888 110.832 28.4201 109.213 28.343C108.746 28.3576 108.279 28.3057 107.826 28.1888C105.721 29.1692 103.639 30.1974 101.581 31.2725C106.279 31.1722 110.976 31.5077 115.612 32.2747C116.123 31.0769 116.536 29.8393 116.846 28.5743C116.561 28.4944 116.296 28.359 116.064 28.176C115.833 27.9929 115.64 27.7658 115.496 27.5078C115.353 27.2498 115.262 26.966 115.229 26.6727C115.196 26.3794 115.221 26.0824 115.304 25.799V25.876Z" fill="#FFDC83"/>
<path opacity="0.6" d="M83.3106 23.717C83.9381 23.6687 84.5613 23.8547 85.0597 24.2392C85.5581 24.6236 85.8962 25.1792 86.0088 25.7984L89.8634 24.7192V23.1773L82.6938 19.9395L83.3106 23.717Z" fill="#FFDC83"/>
<path d="M153.619 30.501H149.764C146.878 36.9955 141.879 42.3215 135.579 45.611C149.07 52.7806 151.537 66.58 151.537 66.58C151.537 66.58 154.081 52.7035 167.726 45.7652C161.422 42.4327 156.445 37.0475 153.619 30.501Z" fill="#C93A27"/>
<path d="M149.61 60.9521H153.464C156.355 54.461 161.354 49.1365 167.649 45.8421C154.158 38.6725 151.691 24.873 151.691 24.873C151.691 24.873 149.147 38.7496 135.579 45.6879C141.851 49.0391 146.798 54.4212 149.61 60.9521Z" fill="#C93A27"/>
<path d="M153.079 36.1286L152.077 38.133L150.304 41.8334L148.762 45.1483L147.837 47.4611L146.295 50.3135C145.734 51.2994 145.116 52.2518 144.445 53.1659C143.742 54.1216 142.969 55.0236 142.132 55.8641C141.186 56.7165 140.152 57.466 139.048 58.0998C138.965 58.0579 138.887 58.0061 138.817 57.9456C138.793 57.8703 138.793 57.7896 138.817 57.7143C139.158 56.9881 139.599 56.3133 140.127 55.7099C140.582 55.1501 140.994 54.5574 141.361 53.9368C141.767 53.2947 142.128 52.625 142.44 51.9324L143.442 49.6197L145.755 44.5316C146.181 43.4673 146.567 42.3872 146.911 41.2937C146.911 40.8826 145.498 40.677 142.671 40.677C142.251 40.6936 141.836 40.7715 141.438 40.9083C140.983 41.0503 140.562 41.2867 140.204 41.6021H139.434V40.9083C140.428 39.3886 141.712 38.0789 143.211 37.0537C144.144 36.5057 145.214 36.2381 146.295 36.2828C146.808 36.2564 147.323 36.2564 147.837 36.2828C148.347 36.3636 148.862 36.4151 149.378 36.4369H150.535C151.262 36.375 151.958 36.1077 152.539 35.666H153.079V36.1286Z" fill="url(#paint4_linear_396_2553)"/>
<path d="M139.202 59.2564L138.663 59.0251C138.495 58.9443 138.339 58.8405 138.2 58.7168C138.049 58.5816 137.929 58.4149 137.849 58.2285C137.769 58.042 137.731 57.8403 137.738 57.6375C137.738 57.252 137.892 56.8666 139.356 55.0164C139.776 54.5285 140.162 54.0134 140.513 53.4745C140.891 52.8558 141.226 52.2119 141.515 51.5472L142.517 49.2345C143.355 47.5696 144.127 45.8723 144.83 44.1464L145.601 41.8336C144.629 41.7205 143.65 41.669 142.671 41.6794C142.357 41.6877 142.046 41.7396 141.746 41.8336C141.4 41.9386 141.083 42.1235 140.821 42.3733L140.59 42.6045H138.277V40.6001L138.508 40.3689C139.581 38.7239 140.97 37.3088 142.594 36.2059C143.653 35.5239 144.881 35.1502 146.141 35.1266C146.682 35.1501 147.223 35.2015 147.759 35.2808C148.27 35.362 148.785 35.4135 149.301 35.435L150.381 35.3579C150.901 35.3367 151.407 35.1771 151.845 34.8953L152.154 34.6641H153.85L154.235 36.2059L154.004 36.5914C152.976 38.3882 152.049 40.2413 151.229 42.142L149.764 45.534L148.916 47.6926L148.762 47.9239C148.453 48.6948 147.914 49.6199 147.22 50.7763C146.638 51.8409 145.995 52.8706 145.293 53.86C144.537 54.8426 143.713 55.77 142.826 56.6353C141.853 57.5115 140.794 58.2865 139.665 58.948L139.202 59.2564ZM144.445 50.0054L143.365 52.3181C143.211 52.8578 142.98 53.2432 142.749 53.7058L143.674 52.5494C144.315 51.6577 144.907 50.7311 145.447 49.7741L146.989 46.9988L147.914 44.686C148.899 42.2803 149.98 39.9143 151.152 37.5936L151.306 37.2852C150.646 37.4159 149.973 37.4676 149.301 37.4394C148.734 37.4181 148.168 37.3666 147.605 37.2852C147.144 37.2344 146.681 37.2086 146.218 37.2081C145.312 37.2106 144.428 37.4787 143.674 37.979C142.9 38.469 142.199 39.0659 141.592 39.7521C141.948 39.6863 142.31 39.6605 142.671 39.675C146.295 39.675 147.914 39.9063 147.914 41.2169V41.6023C147.009 44.5254 145.848 47.3631 144.445 50.0825V50.0054Z" fill="#C93A27"/>
<path d="M164.951 49.928C164.881 50.5577 164.67 51.1636 164.334 51.7011C163.644 52.9186 162.788 54.0343 161.79 55.0161C161.112 55.7 160.418 56.3683 159.709 57.0205C158.863 57.6481 157.832 57.9739 156.779 57.9456C156.013 57.9482 155.254 57.792 154.551 57.4868C153.848 57.1817 153.215 56.7342 152.693 56.1725C151.801 55.3817 151.249 54.277 151.152 53.0888C151.265 52.2253 151.642 51.4178 152.231 50.776L154.312 48.0778C153.791 47.6205 153.325 47.1029 152.925 46.536C152.519 45.9759 152.302 45.3005 152.308 44.6087C152.361 43.6049 152.709 42.6392 153.31 41.8334L154.852 39.5977C155.554 38.5026 156.441 37.5375 157.473 36.7453C158.133 36.2967 158.911 36.0552 159.709 36.0515C160.821 36.0224 161.91 36.3762 162.793 37.0537C163.218 37.3764 163.56 37.7973 163.788 38.2805C164.017 38.7637 164.125 39.295 164.103 39.829C164.08 41.1912 163.526 42.4908 162.561 43.4523C161.482 44.5316 161.019 45.3025 161.019 45.7651C161.957 46.3527 162.858 46.9963 163.718 47.6924C164.075 47.9517 164.37 48.2864 164.583 48.6727C164.797 49.0591 164.922 49.4877 164.951 49.928ZM161.096 52.5492C161.096 51.9324 160.326 51.0844 158.784 50.2364C157.973 49.6544 157.056 49.2355 156.085 49.0029C156.008 49.0029 155.777 49.2342 155.546 49.6967C155.329 50.0185 155.196 50.3896 155.16 50.776C155.218 51.2553 155.388 51.7143 155.656 52.116C155.924 52.5177 156.282 52.8509 156.702 53.0888C157.415 53.7082 158.306 54.086 159.246 54.1681C159.712 54.1574 160.156 53.9635 160.48 53.6284C160.638 53.4941 160.767 53.3292 160.86 53.1438C160.952 52.9583 161.007 52.7561 161.019 52.5492H161.096ZM159.94 42.9897C159.891 42.3957 159.615 41.8433 159.169 41.4479C158.904 41.159 158.583 40.9277 158.225 40.7686C157.867 40.6094 157.48 40.5257 157.088 40.5228C156.921 40.5086 156.752 40.5287 156.593 40.5817C156.434 40.6347 156.288 40.7196 156.163 40.8312C156.063 40.9329 155.984 41.0535 155.931 41.1858C155.878 41.3181 155.852 41.4596 155.854 41.6021C155.854 42.373 156.317 43.0668 157.396 43.7607C157.878 44.2188 158.458 44.5615 159.092 44.7629C159.246 44.7629 159.478 44.5316 159.632 44.1461C159.822 43.7896 159.928 43.3938 159.94 42.9897Z" fill="url(#paint5_linear_396_2553)"/>
<path d="M156.779 59.0251C155.863 59.0294 154.956 58.8392 154.119 58.4671C153.282 58.095 152.533 57.5494 151.923 56.8666C150.863 55.8859 150.227 54.5309 150.149 53.089C150.221 51.979 150.654 50.9229 151.383 50.0824L152.925 48.0781C152.644 47.7633 152.386 47.4283 152.154 47.0759C151.631 46.3324 151.361 45.4406 151.383 44.5318C151.407 43.3445 151.783 42.191 152.462 41.2169C153.156 40.2918 153.696 39.5979 154.081 38.9041C154.845 37.7178 155.81 36.6742 156.934 35.8204C157.787 35.287 158.78 35.0187 159.786 35.0495C161.114 35.01 162.417 35.4171 163.486 36.2059C164.036 36.6325 164.476 37.1834 164.771 37.8133C165.065 38.4432 165.207 39.1341 165.182 39.8292C165.139 41.4291 164.476 42.9495 163.332 44.0693C162.967 44.4815 162.632 44.9195 162.33 45.3798L164.411 46.9217C164.89 47.2689 165.284 47.7195 165.564 48.24C165.845 48.7606 166.004 49.3376 166.03 49.9283C165.962 50.7497 165.697 51.5427 165.259 52.241C164.522 53.5147 163.614 54.6818 162.561 55.7102L160.403 57.8687C159.37 58.6793 158.092 59.1143 156.779 59.1022V59.0251ZM154.467 49.3886L153.002 51.393C152.576 51.8654 152.307 52.4577 152.231 53.089C152.332 53.9892 152.773 54.8167 153.464 55.4018C153.886 55.8876 154.407 56.2768 154.992 56.5429C155.578 56.809 156.213 56.9457 156.856 56.9436C157.674 56.9942 158.485 56.7778 159.169 56.3269L160.557 54.8622C160.186 55.0947 159.761 55.2274 159.323 55.2476C158.138 55.2035 157 54.77 156.085 54.0141C155.523 53.6737 155.054 53.2004 154.718 52.6358C154.382 52.0712 154.189 51.4326 154.158 50.7763C154.175 50.2898 154.307 49.8143 154.544 49.3886H154.467ZM156.163 47.9239C156.702 47.9239 157.396 48.1551 159.246 49.3115C161.096 50.4679 162.099 51.4701 162.099 52.5494C162.093 52.8135 162.041 53.0745 161.944 53.3203C162.527 52.6798 163.043 51.9824 163.486 51.2388C163.729 50.8386 163.887 50.3924 163.949 49.9283C163.918 49.6383 163.827 49.3581 163.68 49.1058C163.534 48.8535 163.337 48.6347 163.101 48.4635C162.266 47.7704 161.39 47.1268 160.48 46.5362L160.017 46.2278V45.6882C160.004 45.5601 160.004 45.4309 160.017 45.3027C159.78 45.5704 159.449 45.7361 159.092 45.7653C158.63 45.7653 158.09 45.534 156.779 44.5318C155.469 43.5296 154.852 42.6045 154.852 41.6023V41.5252L154.158 42.3732C153.686 43.0262 153.418 43.804 153.387 44.6089C153.393 45.0848 153.555 45.5456 153.85 45.9195C154.204 46.43 154.618 46.896 155.083 47.3071L155.777 47.9239L155.623 48.1551C155.804 48.0236 156.017 47.9436 156.24 47.9239H156.163ZM157.088 39.4438C157.61 39.4507 158.125 39.5636 158.602 39.7756C159.079 39.9877 159.508 40.2944 159.863 40.6772C160.19 40.9695 160.455 41.3252 160.64 41.7228C160.826 42.1203 160.928 42.5515 160.942 42.99C160.935 43.279 160.883 43.5651 160.788 43.838L161.79 42.6816C162.583 41.9383 163.053 40.9146 163.101 39.8292C163.113 39.4572 163.035 39.0878 162.874 38.7523C162.713 38.4167 162.474 38.125 162.176 37.9019C161.467 37.3687 160.595 37.0964 159.709 37.131C159.109 37.1079 158.517 37.2694 158.013 37.5935C157.258 38.1742 156.607 38.8779 156.085 39.675C156.374 39.5345 156.69 39.4557 157.011 39.4438H157.088Z" fill="#C93A27"/>
<path d="M153.079 35.9743C152.024 37.8102 151.097 39.7163 150.304 41.6791L148.762 45.0712L147.837 47.3839C147.371 48.3349 146.856 49.2612 146.295 50.1593C145.785 51.1668 145.219 52.1449 144.599 53.0888C143.866 54.0187 143.067 54.8947 142.209 55.7099C141.267 56.5887 140.233 57.3641 139.125 58.0226C139.07 57.9754 139.018 57.9238 138.971 57.8685C138.923 57.8326 138.884 57.786 138.858 57.7325C138.831 57.679 138.817 57.6199 138.817 57.5601C139.187 56.8322 139.653 56.158 140.205 55.5557C140.678 55.0196 141.116 54.4531 141.515 53.8597C141.898 53.217 142.233 52.5471 142.517 51.8553L143.52 49.5425C144.445 47.7437 145.216 46.0477 145.832 44.4545L146.989 41.2166C146.989 40.8054 145.601 40.5998 142.826 40.5998C142.405 40.6165 141.99 40.6944 141.592 40.8311C141.142 40.948 140.722 41.1581 140.359 41.4479H139.511V40.8311C140.505 39.3114 141.789 38.0018 143.288 36.9765C144.212 36.4016 145.284 36.107 146.372 36.1285L147.837 36.2056C148.348 36.2826 148.862 36.334 149.378 36.3598H150.612C151.34 36.2979 152.035 36.0305 152.616 35.5889H153.156L153.079 35.9743ZM164.951 49.8509C164.881 50.4806 164.67 51.0865 164.334 51.624C163.644 52.8415 162.788 53.9571 161.79 54.939C161.136 55.6207 160.468 56.289 159.786 56.9434C158.917 57.5821 157.857 57.9082 156.779 57.8685C156.006 57.8661 155.242 57.7 154.538 57.3811C153.834 57.0622 153.205 56.5977 152.693 56.0183C151.813 55.2512 151.26 54.1747 151.152 53.0117C151.26 52.1468 151.638 51.3378 152.231 50.6989L154.312 47.9236C153.791 47.4662 153.325 46.9487 152.925 46.3818C152.519 45.8217 152.302 45.1463 152.308 44.4545C152.361 43.4507 152.709 42.4849 153.31 41.6791L154.852 39.5206C155.547 38.3979 156.434 37.4063 157.473 36.5911C158.141 36.1697 158.919 35.9551 159.709 35.9743C160.821 35.9453 161.91 36.2991 162.793 36.9765C163.218 37.2992 163.56 37.7201 163.788 38.2034C164.017 38.6866 164.125 39.2179 164.103 39.7518C164.06 41.0872 163.508 42.3557 162.561 43.2981C161.482 44.4545 161.019 45.2254 161.019 45.6108C161.956 46.2272 162.857 46.8964 163.718 47.6152C164.069 47.8626 164.362 48.1841 164.575 48.5572C164.788 48.9302 164.916 49.3456 164.951 49.7738V49.8509ZM161.096 52.472C161.096 51.7782 160.326 51.0073 158.784 50.1593C157.973 49.5773 157.056 49.1584 156.086 48.9258C156.008 48.9258 155.777 49.08 155.546 49.5425C155.316 49.8866 155.183 50.2859 155.16 50.6989C155.218 51.1782 155.388 51.6372 155.656 52.0389C155.924 52.4406 156.282 52.7738 156.702 53.0117C157.425 53.6032 158.314 53.9536 159.246 54.0139C159.702 54.0238 160.143 53.8582 160.48 53.5513C160.641 53.4201 160.773 53.2559 160.866 53.0698C160.959 52.8837 161.011 52.6799 161.019 52.472H161.096ZM159.94 42.9126C159.891 42.3185 159.615 41.7662 159.169 41.3708C158.902 41.0854 158.58 40.8565 158.222 40.6976C157.865 40.5387 157.479 40.4531 157.088 40.4457C156.921 40.4315 156.752 40.4515 156.593 40.5045C156.434 40.5576 156.288 40.6425 156.163 40.754C156.049 40.8492 155.956 40.9667 155.89 41.0993C155.823 41.232 155.785 41.3769 155.777 41.525C155.777 42.1417 156.317 42.9126 157.319 43.6835C157.801 44.1416 158.381 44.4843 159.015 44.6857C159.169 44.6857 159.4 44.4545 159.632 43.9919C159.809 43.6577 159.914 43.29 159.94 42.9126Z" fill="#9B1E1F"/>
<path d="M153.079 35.3581C152.024 37.1939 151.097 39.1 150.304 41.0629L148.762 44.3778L147.837 46.6906L146.295 49.543C145.731 50.5273 145.114 51.4795 144.445 52.3954C143.74 53.3492 142.967 54.251 142.132 55.0936C141.188 55.9479 140.154 56.6975 139.048 57.3293C138.964 57.2889 138.886 57.237 138.817 57.1751C138.767 57.1084 138.74 57.0272 138.74 56.9438C139.105 56.2134 139.572 55.5386 140.127 54.9394C140.575 54.375 140.987 53.7827 141.361 53.1663C141.768 52.5249 142.129 51.855 142.44 51.1619L143.442 48.8492L145.755 43.7611C146.181 42.6968 146.567 41.6167 146.911 40.5232C146.911 40.1121 145.498 39.9065 142.671 39.9065C142.252 39.9272 141.837 40.005 141.438 40.1378C140.983 40.2797 140.562 40.5162 140.204 40.8316H139.434V40.1378C140.406 38.6253 141.662 37.3162 143.134 36.2832C144.066 35.7352 145.137 35.4676 146.218 35.5122C146.731 35.4855 147.246 35.4855 147.76 35.5122C148.27 35.593 148.785 35.6444 149.301 35.6664H150.458C151.185 35.6045 151.881 35.3372 152.462 34.8955H153.079V35.3581ZM164.951 49.2346C164.892 49.8909 164.681 50.5244 164.334 51.0848C163.64 52.2763 162.784 53.3659 161.79 54.3227C161.135 55.029 160.467 55.723 159.786 56.4042C158.917 57.043 157.857 57.369 156.779 57.3293C156.001 57.3124 155.235 57.1322 154.531 56.8001C153.827 56.4681 153.201 55.9917 152.693 55.402C151.819 54.6301 151.268 53.5562 151.152 52.3954C151.266 51.4939 151.672 50.6546 152.308 50.0055L154.389 47.3073C153.868 46.85 153.402 46.3324 153.002 45.7655C152.596 45.2054 152.379 44.53 152.385 43.8382C152.438 42.8344 152.786 41.8687 153.387 41.0629L154.929 38.8272C155.63 37.7311 156.517 36.7658 157.55 35.9748C158.21 35.5262 158.988 35.2847 159.786 35.281C160.898 35.2519 161.987 35.6057 162.87 36.2832C163.296 36.6059 163.637 37.0268 163.865 37.51C164.094 37.9933 164.202 38.5245 164.18 39.0585C164.165 40.4225 163.61 41.725 162.638 42.6818C161.559 43.7611 161.096 44.532 161.096 44.9946C162.033 45.5834 162.934 46.2269 163.795 46.9219C164.162 47.1892 164.463 47.5362 164.677 47.9368C164.89 48.3373 165.01 48.781 165.028 49.2346H164.951ZM161.096 51.8558C161.096 51.239 160.326 50.4681 158.784 49.543C157.973 48.961 157.056 48.5421 156.085 48.3095C156.008 48.3095 155.777 48.5408 155.546 49.0033C155.316 49.3474 155.183 49.7467 155.16 50.1597C155.218 50.639 155.388 51.098 155.656 51.4997C155.924 51.9014 156.282 52.2346 156.702 52.4725C157.425 53.064 158.314 53.4145 159.246 53.4747C159.702 53.4846 160.143 53.319 160.48 53.0121C160.647 52.8691 160.782 52.6919 160.875 52.4924C160.968 52.2929 161.017 52.0759 161.019 51.8558H161.096ZM159.863 42.2963C159.814 41.7023 159.538 41.1499 159.092 40.7545C158.827 40.4656 158.506 40.2343 158.148 40.0752C157.79 39.916 157.402 39.8323 157.011 39.8294C156.843 39.8152 156.675 39.8353 156.516 39.8883C156.357 39.9413 156.211 40.0262 156.085 40.1378C155.972 40.2329 155.879 40.3504 155.812 40.4831C155.746 40.6157 155.708 40.7606 155.7 40.9087C155.7 41.6025 156.24 42.2963 157.242 43.0673C157.726 43.5233 158.305 43.8656 158.938 44.0695C159.169 44.0695 159.323 43.8382 159.555 43.3756C159.732 43.0415 159.837 42.6737 159.863 42.2963Z" fill="#EDBC64"/>
<path d="M140.359 40.5233C141.901 40.0607 143.288 39.2898 144.753 38.8273C146.449 38.3647 148.222 38.2105 149.918 37.9022C150.535 37.7516 151.185 37.8057 151.768 38.0563L152.077 37.3625L153.156 35.3581L153.079 34.9727H152.539C151.949 35.3868 151.255 35.6272 150.535 35.6665H149.224C148.711 35.6957 148.196 35.6957 147.682 35.6665C147.172 35.5882 146.657 35.5367 146.141 35.5123C145.06 35.4676 143.989 35.7353 143.057 36.2832C141.585 37.3162 140.329 38.6254 139.356 40.1378V40.9087H139.588C139.826 40.7465 140.086 40.6168 140.359 40.5233ZM139.356 56.0188C139.099 56.2893 138.89 56.6023 138.74 56.9439C138.74 57.0037 138.754 57.0627 138.78 57.1163C138.807 57.1698 138.846 57.2163 138.894 57.2523C138.963 57.3141 139.041 57.366 139.125 57.4064C140.208 56.7457 141.216 55.9703 142.132 55.0937L142.749 54.4769L139.356 56.0188ZM144.445 47.3074C144.926 47.0693 145.459 46.952 145.996 46.9654C146.533 46.9788 147.059 47.1226 147.528 47.3845L147.837 46.7677L148.762 44.455L148.993 43.9924C148.083 44.1165 147.182 44.2968 146.295 44.5321C145.954 44.6437 145.62 44.7724 145.293 44.9175L144.136 47.4616L144.445 47.3074ZM154.158 47.5387L152.231 50.0056C151.651 50.6753 151.3 51.5125 151.229 52.3955C151.25 53.2985 151.576 54.1678 152.154 54.8624C156.548 59.7963 160.634 56.0959 156.317 53.0893C155.528 53.0658 154.781 52.7336 154.235 52.1642C152.925 50.8536 153.233 49.0034 154.158 47.5387ZM159.709 35.3581C158.885 35.3462 158.077 35.5885 157.396 36.0519C156.391 36.8496 155.53 37.8145 154.852 38.9044L153.619 40.6775C152.975 41.4315 152.525 42.3312 152.308 43.2986C152.295 43.4782 152.295 43.6586 152.308 43.8382C152.302 44.5301 152.518 45.2055 152.925 45.7655C153.325 46.3325 153.791 46.85 154.312 47.3074L154.235 47.3845C154.428 47.1174 154.634 46.8601 154.852 46.6136C154.496 46.1842 154.233 45.6854 154.081 45.1488C153.696 43.4528 154.621 42.2964 155.854 41.2942C155.831 41.1409 155.831 40.985 155.854 40.8316C155.852 40.6892 155.878 40.5477 155.931 40.4153C155.984 40.283 156.063 40.1625 156.163 40.0607C156.396 39.8545 156.699 39.7444 157.011 39.7524C157.3 39.758 157.586 39.81 157.859 39.9065C159.555 38.6731 161.096 37.3625 162.715 36.2832C161.823 35.6332 160.735 35.3069 159.632 35.3581H159.709Z" fill="#FFDC83"/>
</g>
</g>
</g>
<defs>
<linearGradient id="paint0_linear_396_2553" x1="56.4826" y1="66.8886" x2="70.3591" y2="61.4921" gradientUnits="userSpaceOnUse">
<stop offset="0.1"/>
<stop offset="0.3" stop-color="#4C4C4C"/>
<stop offset="0.5" stop-color="#989898"/>
<stop offset="0.7" stop-color="#D0D0D0"/>
<stop offset="0.9" stop-color="#F2F2F2"/>
<stop offset="1" stop-color="white"/>
</linearGradient>
<linearGradient id="paint1_linear_396_2553" x1="56.4826" y1="66.8886" x2="70.3591" y2="61.4921" gradientUnits="userSpaceOnUse">
<stop offset="0.1" stop-color="#CCD8D4"/>
<stop offset="0.4" stop-color="#ACA48B"/>
<stop offset="0.7" stop-color="#947D53"/>
<stop offset="0.9" stop-color="#856431"/>
<stop offset="1" stop-color="#7F5B24"/>
</linearGradient>
<linearGradient id="paint2_linear_396_2553" x1="144.059" y1="64.3445" x2="132.495" y2="62.3402" gradientUnits="userSpaceOnUse">
<stop offset="0.1"/>
<stop offset="0.3" stop-color="#4C4C4C"/>
<stop offset="0.5" stop-color="#989898"/>
<stop offset="0.7" stop-color="#D0D0D0"/>
<stop offset="0.9" stop-color="#F2F2F2"/>
<stop offset="1" stop-color="white"/>
</linearGradient>
<linearGradient id="paint3_linear_396_2553" x1="144.059" y1="64.3445" x2="132.495" y2="62.3402" gradientUnits="userSpaceOnUse">
<stop offset="0.1" stop-color="#CCD8D4"/>
<stop offset="0.4" stop-color="#ACA48B"/>
<stop offset="0.7" stop-color="#947D53"/>
<stop offset="0.9" stop-color="#856431"/>
<stop offset="1" stop-color="#7F5B24"/>
</linearGradient>
<linearGradient id="paint4_linear_396_2553" x1="155.546" y1="71.1283" x2="158.552" y2="78.7605" gradientUnits="userSpaceOnUse">
<stop stop-color="white"/>
<stop offset="1" stop-color="#C93A27"/>
</linearGradient>
<linearGradient id="paint5_linear_396_2553" x1="165.799" y1="67.0425" x2="168.806" y2="74.7517" gradientUnits="userSpaceOnUse">
<stop stop-color="white"/>
<stop offset="1" stop-color="#C93A27"/>
</linearGradient>
<clipPath id="clip0_396_2553">
<rect width="122.59" height="62.83" fill="white" transform="translate(45.1047 16.085)"/>
</clipPath>
<clipPath id="clip1_396_2553">
<rect width="122.59" height="62.83" fill="white" transform="translate(45.1047 16.085)"/>
</clipPath>
<clipPath id="clip2_396_2553">
<rect width="122.574" height="62.83" fill="white" transform="translate(45.1125 16.085)"/>
</clipPath>
</defs>
</svg>
