<svg width="212" height="95" viewBox="0 0 212 95" fill="none" xmlns="http://www.w3.org/2000/svg">
<rect x="0.799805" width="211.2" height="95" rx="16" fill="#0A0808"/>
<g clip-path="url(#clip0_396_1997)">
<g clip-path="url(#clip1_396_1997)">
<g clip-path="url(#clip2_396_1997)">
<path d="M26.227 57.4247C25.9892 57.4247 25.8109 57.3653 25.6921 57.187C25.5138 57.0087 25.4543 56.8304 25.4543 56.6521V38.1095C25.4543 37.8718 25.5138 37.6935 25.6921 37.5746C25.8704 37.4558 26.0487 37.3369 26.227 37.3369H35.4388C36.7463 37.3369 37.8161 37.5152 38.7075 37.8718C39.599 38.2284 40.3122 38.7038 40.7876 39.2387C41.3225 39.7736 41.6791 40.4273 41.9168 41.1405C42.1546 41.8537 42.2734 42.5669 42.2734 43.2801C42.2734 43.8149 42.214 44.2904 42.0951 44.7064C41.9763 45.1224 41.798 45.479 41.6791 45.7762C41.5008 46.0733 41.3225 46.3111 41.1442 46.4893C40.9659 46.6676 40.7876 46.7865 40.7282 46.9054C41.5008 47.4402 41.9763 48.0346 42.2734 48.6883C42.5706 49.3421 42.6894 50.1741 42.6894 51.125C42.6894 51.8976 42.5706 52.6702 42.3329 53.4428C42.0951 54.2154 41.7385 54.8692 41.2037 55.4635C40.6688 56.0578 40.015 56.5332 39.1236 56.8898C38.2915 57.2464 37.2218 57.4247 36.0331 57.4247H26.227ZM36.984 43.4583C36.984 42.9829 36.8652 42.5669 36.568 42.2697C36.2709 41.9726 35.8548 41.8537 35.2605 41.8537H30.8032V45.1224H35.2605C35.8548 45.1224 36.2709 45.0036 36.568 44.7064C36.8652 44.4092 36.984 43.9338 36.984 43.4583ZM30.7437 53.0268H35.4982C36.0926 53.0268 36.5086 52.8485 36.8652 52.5513C37.2218 52.2542 37.4001 51.7787 37.4001 51.3033C37.4001 50.8278 37.2218 50.4118 36.8652 50.0552C36.5086 49.6986 36.0331 49.5798 35.4982 49.5798H30.7437V53.0268ZM62.1829 52.8485C62.4207 52.8485 62.599 52.9079 62.7178 53.0862C62.8961 53.2645 62.9555 53.4428 62.9555 53.6211V56.6521C62.9555 56.8898 62.8961 57.0681 62.7178 57.187C62.5395 57.3653 62.3612 57.4247 62.1829 57.4247H48.5732C48.3354 57.4247 48.1571 57.3653 48.0383 57.187C47.86 57.0087 47.8005 56.8304 47.8005 56.6521V38.1095C47.8005 37.8718 47.86 37.6935 48.0383 37.5746C48.2166 37.3963 48.3949 37.3369 48.5732 37.3369H61.9452C62.1829 37.3369 62.3612 37.3963 62.4801 37.5746C62.6584 37.7529 62.7178 37.9312 62.7178 38.1095V41.1405C62.7178 41.3782 62.6584 41.5565 62.4801 41.6754C62.3018 41.7943 62.1235 41.9131 61.9452 41.9131H53.0899V45.0036H61.2915C61.5292 45.0036 61.7075 45.063 61.8263 45.2413C62.0046 45.4196 62.0641 45.5979 62.0641 45.7762V48.8072C62.0641 49.0449 62.0046 49.2232 61.8263 49.3421C61.6481 49.5203 61.4698 49.5798 61.2915 49.5798H53.0899V52.7891H62.1829V52.8485ZM82.8651 37.3369C83.1028 37.3369 83.2811 37.3963 83.3999 37.5746C83.5782 37.7529 83.6377 37.9312 83.6377 38.1095V41.1405C83.6377 41.3782 83.5782 41.5565 83.3999 41.6754C83.2216 41.8537 83.0433 41.9131 82.8651 41.9131H77.8134V56.6521C77.8134 56.8898 77.754 57.0681 77.5757 57.187C77.3974 57.3653 77.2191 57.4247 77.0408 57.4247H73.2966C73.0589 57.4247 72.8806 57.3653 72.7617 57.187C72.5834 57.0087 72.524 56.8304 72.524 56.6521V41.9726H67.4723C67.2346 41.9726 67.0563 41.9131 66.9374 41.7348C66.8186 41.5565 66.6997 41.3782 66.6997 41.2V38.1095C66.6997 37.8718 66.7591 37.6935 66.9374 37.5746C67.1157 37.3963 67.294 37.3369 67.4723 37.3369H82.8651Z" fill="white"/>
<path d="M132.252 37.3372C132.609 37.3372 132.906 37.4561 133.144 37.6344C133.382 37.8126 133.501 38.0504 133.56 38.2881L139.8 56.3552C139.86 56.5335 139.919 56.7118 139.919 56.7713C139.919 56.9495 139.86 57.0684 139.741 57.1873C139.622 57.3061 139.444 57.3656 139.325 57.3656H135.7C135.343 57.3656 135.046 57.3061 134.867 57.1278C134.689 56.9495 134.63 56.8307 134.57 56.6524L133.738 54.2751H126.131L125.299 56.6524C125.24 56.8307 125.18 56.9495 125.002 57.1278C124.824 57.3061 124.586 57.3656 124.17 57.3656H120.545C120.366 57.3656 120.247 57.3061 120.128 57.1873C120.01 57.0684 119.95 56.8901 119.95 56.7713C119.95 56.6524 120.01 56.5335 120.069 56.3552L126.309 38.2881C126.369 38.0504 126.547 37.8721 126.725 37.6344C126.904 37.3966 127.201 37.3372 127.617 37.3372H132.252ZM127.617 49.8772H132.252L129.935 42.9832L127.617 49.8772ZM152.519 52.3733C152.34 52.195 152.221 52.0762 152.103 51.8979L149.428 47.1434V56.6524C149.428 56.8901 149.369 57.0684 149.19 57.1873C149.012 57.3656 148.834 57.425 148.656 57.425H144.911C144.674 57.425 144.495 57.3656 144.376 57.1873C144.198 57.009 144.139 56.8307 144.139 56.6524V38.1098C144.139 37.8721 144.198 37.6938 144.376 37.5749C144.555 37.3966 144.733 37.3372 144.911 37.3372H148.24C148.596 37.3372 148.893 37.4561 149.072 37.6344C149.25 37.8721 149.369 37.9909 149.428 38.1098L154.064 46.0736L158.699 38.1098C158.759 37.9909 158.878 37.8721 159.056 37.6344C159.234 37.3966 159.531 37.3372 159.888 37.3372H163.216C163.454 37.3372 163.632 37.3966 163.751 37.5749C163.929 37.7532 163.989 37.9315 163.989 38.1098V56.6524C163.989 56.8901 163.929 57.0684 163.751 57.1873C163.573 57.3656 163.395 57.425 163.216 57.425H159.591C159.353 57.425 159.175 57.3656 159.056 57.1873C158.878 57.009 158.818 56.8307 158.818 56.6524V47.2028L156.144 51.9573C156.025 52.1356 155.906 52.2545 155.728 52.4328C155.55 52.6111 155.312 52.6705 155.074 52.6705H153.232C152.935 52.6111 152.697 52.5516 152.519 52.3733ZM169.338 44.8255C169.397 43.7558 169.635 42.7455 170.051 41.7945C170.467 40.8436 171.061 40.0116 171.774 39.2984C172.547 38.5853 173.438 38.0504 174.508 37.6344C175.578 37.2183 176.826 37.04 178.252 37.04C179.619 37.04 180.867 37.2183 181.997 37.6344C183.066 38.0504 184.017 38.5853 184.79 39.2984C185.562 40.0116 186.157 40.8436 186.513 41.7945C186.929 42.7455 187.167 43.7558 187.227 44.8255C187.286 45.6576 187.286 46.4896 187.286 47.3811C187.286 48.2726 187.286 49.1046 187.227 49.8772C187.167 50.947 186.929 51.9573 186.513 52.9082C186.097 53.8591 185.503 54.6912 184.79 55.4043C184.077 56.1175 183.126 56.6524 181.997 57.0684C180.927 57.4844 179.679 57.6627 178.252 57.6627C176.826 57.6627 175.578 57.4844 174.508 57.0684C173.438 56.6524 172.488 56.1175 171.774 55.4043C171.002 54.6912 170.407 53.8591 170.051 52.9082C169.635 51.9573 169.397 50.947 169.338 49.8772C169.278 49.1046 169.278 48.2726 169.278 47.3811C169.278 46.5491 169.338 45.6576 169.338 44.8255ZM181.937 49.8178C181.937 49.4612 181.997 49.1046 181.997 48.6886V47.3811V46.133C181.997 45.717 181.937 45.3604 181.937 45.0038C181.878 44.5284 181.818 44.1124 181.64 43.6964C181.462 43.2803 181.224 42.9237 180.927 42.6266C180.63 42.3294 180.273 42.0917 179.798 41.9134C179.382 41.7351 178.847 41.6757 178.252 41.6757C177.658 41.6757 177.123 41.7351 176.707 41.9134C176.291 42.0917 175.875 42.3294 175.578 42.6266C175.281 42.9237 175.043 43.2803 174.865 43.6964C174.686 44.1124 174.627 44.5284 174.568 45.0038C174.508 45.301 174.508 45.717 174.508 46.133V48.6886C174.508 49.1046 174.568 49.5206 174.568 49.8178C174.627 50.7687 174.984 51.5413 175.578 52.195C176.172 52.8488 177.064 53.1459 178.252 53.1459C179.441 53.1459 180.332 52.8488 180.867 52.195C181.521 51.5413 181.878 50.7687 181.937 49.8178Z" fill="white"/>
<path d="M115.671 44.8253L105.687 34.2465C104.914 33.4145 103.844 32.939 102.656 32.8796C101.526 32.8202 100.397 33.2362 99.5652 34.0682L88.9269 44.0527C88.0949 44.8253 87.6195 45.8951 87.56 47.0837C87.5006 48.2723 87.9166 49.3421 88.7487 50.1741L98.7331 60.8124C99.5057 61.6444 100.575 62.1198 101.764 62.1793C102.299 62.1793 102.834 62.1198 103.309 61.9415C103.844 61.7633 104.379 61.4067 104.855 60.9906L115.493 51.0062C117.216 49.3421 117.335 46.6083 115.671 44.8253ZM104.379 47.2026C104.498 48.2129 103.904 49.2232 102.953 49.5798C102.121 49.877 101.11 49.5798 100.516 48.9261C99.9218 48.2129 99.8623 47.2026 100.338 46.43C100.813 45.5979 101.764 45.1819 102.715 45.4196C103.547 45.5979 104.26 46.3111 104.379 47.2026ZM104.379 38.5256C104.498 39.5359 103.904 40.5463 102.953 40.9028C102.121 41.2 101.11 40.9028 100.516 40.2491C99.9218 39.5359 99.8623 38.5256 100.338 37.753C100.813 36.9209 101.764 36.5049 102.715 36.7426C103.547 36.9209 104.26 37.6341 104.379 38.5256ZM104.379 55.6418C104.498 56.6522 103.904 57.6625 102.953 58.0191C102.121 58.3162 101.11 58.0191 100.516 57.3653C99.9218 56.6522 99.8623 55.6418 100.338 54.8692C100.813 54.0372 101.764 53.6212 102.715 53.8589C103.547 54.0372 104.26 54.7504 104.379 55.6418Z" fill="#E3161B"/>
</g>
</g>
</g>
<defs>
<clipPath id="clip0_396_1997">
<rect width="163.45" height="30.31" fill="white" transform="translate(24.6748 32.3447)"/>
</clipPath>
<clipPath id="clip1_396_1997">
<rect width="163.45" height="30.31" fill="white" transform="translate(24.6748 32.3447)"/>
</clipPath>
<clipPath id="clip2_396_1997">
<rect width="163.436" height="30.31" fill="white" transform="translate(24.6816 32.3447)"/>
</clipPath>
</defs>
</svg>
