<svg width="212" height="95" viewBox="0 0 212 95" fill="none" xmlns="http://www.w3.org/2000/svg">
<rect x="0.399902" width="211.2" height="95" rx="16" fill="#0A0808"/>
<g clip-path="url(#clip0_396_2526)">
<g clip-path="url(#clip1_396_2526)">
<g clip-path="url(#clip2_396_2526)">
<path d="M116.259 54.9791C116.259 55.57 115.779 56.2717 114.819 57.0103C113.859 57.7488 112.086 58.1551 109.501 58.1551C106.916 58.1551 104.774 57.3426 103.112 55.7547C102.28 54.933 101.627 53.9475 101.194 52.8605C100.762 51.7736 100.56 50.6087 100.601 49.4397C100.601 46.8546 101.451 44.7127 103.112 43.1247C103.965 42.3077 104.973 41.6708 106.077 41.252C107.181 40.8332 108.358 40.6412 109.538 40.6874C112.16 40.6874 113.933 41.0567 114.856 41.8322C115.779 42.5708 116.259 43.2725 116.259 43.8633C116.259 44.4542 116.075 45.0082 115.668 45.4882C115.262 45.9683 114.819 46.1899 114.339 46.1899C113.859 46.1899 113.12 46.0052 112.086 45.636C111.052 45.2667 110.277 45.082 109.76 45.082C106.953 45.082 105.55 46.5223 105.55 49.4397C105.55 52.3571 106.953 53.7974 109.76 53.7974C110.277 53.7974 111.052 53.6127 112.086 53.2434C113.12 52.8741 113.896 52.6895 114.339 52.6895C114.819 52.6895 115.262 52.9111 115.668 53.3912C116.061 53.8255 116.273 54.3937 116.259 54.9791Z" fill="white"/>
<path d="M122.611 55.0154L122.131 56.271C121.725 57.4158 121.023 57.9698 120.026 57.9698C119.066 57.9698 118.364 57.6743 117.958 57.0835C117.601 56.6253 117.383 56.0741 117.33 55.4955C117.33 55.0523 117.441 54.5722 117.626 54.0922L122.759 42.8286C123.276 41.6838 124.051 41.1299 125.122 41.1299C126.193 41.1299 126.969 41.6838 127.486 42.8286L132.656 54.0922C132.878 54.5722 132.988 55.0154 132.988 55.4955C132.988 55.9756 132.767 56.4926 132.361 57.0835C131.954 57.6743 131.253 57.9698 130.256 57.9698C129.259 57.9698 128.557 57.4158 128.151 56.271L127.671 55.0154H122.611ZM126.23 51.027L125.159 48.1096L124.088 51.027H126.23Z" fill="white"/>
<path d="M140.781 58.0446C139.193 58.0446 137.642 57.7861 136.127 57.2691C134.613 56.752 133.875 55.8657 133.875 54.5363C133.875 53.2437 134.466 52.579 135.647 52.579C135.832 52.579 136.534 52.8006 137.715 53.2807C138.934 53.7238 139.968 53.9823 140.854 53.9823C141.741 53.9823 142.184 53.613 142.184 52.8744C142.184 52.3943 141.888 51.9881 141.261 51.6558C140.444 51.2363 139.591 50.8903 138.713 50.6217C137.642 50.2524 136.94 49.9939 136.681 49.8093C135.426 48.9599 134.798 47.7412 134.798 46.1163C134.798 44.4914 135.315 43.1989 136.386 42.2018C137.42 41.2047 138.639 40.7246 140.042 40.7246C141.445 40.7246 142.664 40.8723 143.698 41.2047C145.655 41.8325 146.431 42.7188 146.062 43.9375C145.692 45.1562 144.991 45.7101 143.993 45.5993L142.479 45.0823C141.556 44.7499 140.781 44.5653 140.079 44.5653C139.377 44.5653 139.008 44.8976 139.008 45.5993C139.008 46.0425 139.303 46.4118 139.894 46.7441C140.485 47.0765 141.335 47.4089 142.405 47.7782C143.119 47.9992 143.811 48.2835 144.474 48.6275C145.766 49.4769 146.394 50.7694 146.394 52.5051C146.394 54.2408 145.84 55.5703 144.732 56.5674C143.735 57.5645 142.405 58.0446 140.781 58.0446Z" fill="white"/>
<path d="M152.413 55.8278C152.413 57.2681 151.601 58.0067 149.939 58.0067C148.277 58.0067 147.465 57.2681 147.465 55.8278V43.3087C147.465 41.8685 148.277 41.1299 149.939 41.1299C151.601 41.1299 152.413 41.8685 152.413 43.3087V55.8278Z" fill="white"/>
<path d="M163.862 48.6635V43.3087C163.862 41.8685 164.674 41.1299 166.336 41.1299C167.998 41.1299 168.81 41.8685 168.81 43.3087V55.8278C168.81 57.2681 167.998 58.0067 166.336 58.0067C165.413 58.0067 164.711 57.6743 164.157 57.0465L158.618 50.4731V55.8278C158.618 57.2681 157.805 58.0067 156.143 58.0067C154.481 58.0067 153.669 57.2681 153.669 55.8278V43.3087C153.669 41.8685 154.481 41.1299 156.143 41.1299C157.214 41.1299 157.953 41.4622 158.396 42.1639L163.862 48.6635Z" fill="white"/>
<path d="M187.681 49.4026C187.681 52.0246 186.832 54.1296 185.133 55.7175C184.275 56.5245 183.265 57.1524 182.162 57.5646C181.058 57.9767 179.884 58.1649 178.707 58.118C176.122 58.118 173.98 57.3055 172.318 55.7175C171.486 54.8959 170.833 53.9104 170.401 52.8234C169.968 51.7364 169.766 50.5716 169.807 49.4026C169.807 46.8175 170.657 44.6756 172.318 43.0876C173.171 42.2706 174.179 41.6336 175.283 41.2149C176.387 40.7961 177.564 40.6041 178.744 40.6503C181.366 40.6503 183.508 41.4627 185.17 43.0876C186.01 43.9038 186.668 44.8883 187.101 45.9766C187.533 47.0649 187.731 48.2325 187.681 49.4026ZM181.772 46.3005C181.034 45.4881 180.037 45.0818 178.781 45.0818C177.525 45.0818 176.528 45.4881 175.79 46.3374C175.051 47.1499 174.645 48.2208 174.645 49.4764C174.645 50.732 175.014 51.7661 175.79 52.5785C176.528 53.391 177.562 53.7972 178.781 53.7972C180.037 53.7972 181.034 53.391 181.772 52.5785C182.511 51.7661 182.917 50.732 182.917 49.4764C182.917 48.2208 182.511 47.113 181.772 46.3005Z" fill="white"/>
<path d="M40.9968 65.5413C39.7043 65.4305 38.7441 64.2119 38.1163 62.033L36.2329 56.272C35.6635 58.1253 35.0726 59.9719 34.4603 61.8115C33.8325 63.7318 32.8723 64.4704 31.6906 64.2488C30.4719 63.9903 29.5487 62.9193 28.847 61.2206C27.6934 56.7743 26.2878 52.3972 24.6371 48.1106C24.4155 47.5936 24.3047 47.0396 24.3047 46.4857C24.3047 45.9317 24.5263 45.2301 24.9694 44.3438C25.4126 43.4575 26.1881 42.4973 27.3329 41.611C28.4777 40.7247 29.2902 40.9093 29.7333 42.2388C30.4719 44.5284 31.2105 47.0396 31.986 49.8093L33.3524 45.3039C33.9802 43.162 34.9035 41.7218 36.1591 41.2048C37.4147 40.6877 38.3748 41.3525 39.0396 43.2728L40.5168 47.6674L42.8433 35.8869C43.3234 33.4865 44.1728 32.0093 45.4653 31.6031C46.7579 31.1968 47.6811 31.4923 48.1981 32.4525C48.7065 33.3826 48.9851 34.4209 49.0106 35.4807C49.0106 36.5516 48.8998 37.6964 48.6413 38.9521L44.062 62.2177C43.2865 64.6181 42.2894 65.6891 40.9968 65.5413Z" fill="#EE3661"/>
<path d="M73.3103 48.1471C73.2733 53.2433 72.1654 57.3794 69.9497 60.7031C67.7708 64.0637 65.0011 65.9471 61.6405 66.0948C58.2799 66.2425 55.5471 64.5438 53.3683 61.1463C51.0317 57.1575 49.8909 52.5812 50.0816 47.9624C50.0816 42.5338 51.1156 37.9545 53.2944 34.2985C55.4733 30.6794 58.3169 28.796 61.7513 29.0175C65.2227 29.2761 68.0293 31.4549 70.1343 35.074C72.3132 38.7669 73.3472 43.0508 73.3103 48.1471ZM65.7028 41.1674C64.7426 39.3948 63.4131 38.3977 61.7882 38.3607C60.1633 38.2869 58.8339 39.1732 57.8368 40.9458C56.8397 42.7184 56.3596 44.9711 56.3596 47.667C56.3596 50.3628 56.8397 52.5417 57.8368 54.2774C58.8339 56.0131 60.1264 56.8255 61.7513 56.8255C63.3762 56.7886 64.6687 55.9023 65.6658 54.2035C66.7183 52.2288 67.24 50.0146 67.18 47.7778C67.2317 45.487 66.7247 43.2182 65.7028 41.1674Z" fill="#EE3661"/>
<path d="M95.9111 50.6584C95.9458 53.5891 94.9232 56.4342 93.0306 58.6721C91.1734 61.2082 88.4558 62.9806 85.3862 63.6576C82.2472 64.2485 79.5882 63.2145 77.5202 60.334C75.2627 56.7138 74.1911 52.4793 74.455 48.2211C74.492 43.1617 75.5998 39.1733 77.7418 36.699C79.8837 34.2248 82.5795 33.8185 85.7185 35.1849C88.8207 36.6649 91.4161 39.029 93.1783 41.98C95.0248 44.9343 95.9111 47.5933 95.9111 50.6584ZM89.1899 45.1928C88.4204 43.8143 87.1516 42.7833 85.6447 42.3123C84.1306 41.9061 82.9119 42.2754 81.9517 43.531C80.9106 45.1034 80.3935 46.9648 80.4745 48.8489C80.3705 50.8134 80.8456 52.7652 81.8409 54.4622C82.7642 55.9024 83.9829 56.5671 85.497 56.4933C87.0111 56.4564 88.1928 55.7178 89.1161 54.4991C90.0431 53.1967 90.5226 51.6287 90.4825 50.0306C90.4825 48.1841 90.0393 46.6331 89.1899 45.1928Z" fill="#EE3661"/>
</g>
</g>
</g>
<defs>
<clipPath id="clip0_396_2526">
<rect width="163.45" height="37.13" fill="white" transform="translate(24.2749 28.9346)"/>
</clipPath>
<clipPath id="clip1_396_2526">
<rect width="163.45" height="37.13" fill="white" transform="translate(24.2749 28.9346)"/>
</clipPath>
<clipPath id="clip2_396_2526">
<rect width="163.446" height="37.13" fill="white" transform="translate(24.2769 28.9346)"/>
</clipPath>
</defs>
</svg>
