<svg width="212" height="95" viewBox="0 0 212 95" fill="none" xmlns="http://www.w3.org/2000/svg">
<rect x="0.399902" width="211.2" height="95" rx="16" fill="#0A0808"/>
<g clip-path="url(#clip0_396_3060)">
<g clip-path="url(#clip1_396_3060)">
<g clip-path="url(#clip2_396_3060)">
<path d="M71.3058 41.3716C72.2943 43.9416 72.1954 46.215 70.9599 48.2907C69.8726 50.2181 68.044 51.5525 65.5235 52.2938C64.3868 52.6398 63.003 52.9363 61.471 53.2822L59.4447 53.6776L57.4184 54.073L51.2407 55.3085L44.717 29.9553L53.1681 27.9784C54.9967 27.583 56.8747 27.3359 58.7528 27.2371C60.8779 27.0888 62.6571 27.2371 64.0409 27.6325C67.5992 28.6209 68.39 31.1908 66.2648 35.3422C66.0177 35.8364 65.7212 36.3306 65.3753 36.726C68.3406 37.1214 70.3174 38.6535 71.3058 41.3716ZM55.9852 38.011C56.8253 37.8627 57.5666 37.4179 58.1103 36.7754C58.308 36.5283 58.5057 36.2812 58.6045 35.9353C58.7033 35.6387 58.7528 35.2928 58.7033 34.9963C58.6539 34.6997 58.5551 34.4032 58.3574 34.1561C58.1597 33.909 57.9126 33.7113 57.6161 33.6125C56.8747 33.2665 55.9357 33.2171 54.7496 33.4642L55.9852 38.011ZM62.0146 47.4999C62.3111 47.2034 62.6076 46.9069 62.7559 46.5115C62.9536 46.1161 62.9536 45.6713 62.8053 45.276C62.4594 44.4358 61.6686 43.8921 60.4331 43.6945C59.8895 43.5956 59.3458 43.5956 58.8516 43.645C58.4068 43.645 57.962 43.6945 57.4184 43.7439L58.7033 48.4884C58.7033 48.5378 58.9999 48.5378 59.5929 48.4389C59.7906 48.3895 59.9883 48.3895 60.2354 48.3401C60.4331 48.2907 60.5319 48.2907 60.5814 48.2412C61.0262 48.1424 61.471 47.9447 61.8663 47.6482L62.0146 47.4999ZM74.4688 50.6629L71.5035 26.2486L81.289 25.3096L83.2659 49.7239L74.4688 50.6629ZM109.212 49.1803L86.2312 49.5262V47.5493L94.8305 34.1561L85.2921 34.9963L85.391 27.1382L108.619 22.2949V24.2718L101.354 39.9384L109.015 39.4442L109.212 49.1803ZM134.664 50.8606L111.832 48.7355V46.7586L121.914 34.5515L112.425 34.2055V24.8648L136.789 24.0741V26.051L127.844 40.828L135.504 41.174L134.664 50.8606ZM149.046 53.7765C147.168 53.4799 145.339 52.788 143.708 51.7502C142.176 50.8112 140.891 49.5756 139.903 48.093C138.865 46.6103 138.173 44.8806 137.877 43.1014C137.58 41.3222 137.63 39.4936 138.124 37.7145C138.569 35.8364 139.409 34.1067 140.595 32.624C142.374 30.3012 144.697 28.522 147.415 27.4348C150.133 26.3475 153.049 26.051 155.916 26.4958C157.794 26.7923 159.622 27.4842 161.253 28.522C162.785 29.461 164.07 30.6966 165.108 32.1792C166.096 33.6619 166.788 35.2928 167.085 37.0225C167.431 38.8511 167.332 40.7292 166.887 42.5083C166.442 44.3864 165.602 46.1161 164.416 47.5988C163.279 49.1308 161.846 50.4158 160.215 51.4536C156.904 53.6282 152.95 54.4684 149.046 53.7765ZM146.871 39.2959C146.674 39.9878 146.624 40.7292 146.773 41.4211C146.871 42.113 147.168 42.8049 147.563 43.3979C148.008 43.991 148.502 44.5346 149.145 44.93C149.787 45.3254 150.479 45.5725 151.221 45.6713C152.753 45.9679 154.334 45.6219 155.668 44.7817C156.311 44.3864 156.904 43.8921 157.349 43.2991C157.794 42.706 158.14 42.0141 158.337 41.2728C158.535 40.5809 158.584 39.8396 158.436 39.1477C158.288 38.4558 158.041 37.7639 157.596 37.1708C157.184 36.5529 156.644 36.0304 156.013 35.6383C155.383 35.2462 154.675 34.9936 153.939 34.8974C152.407 34.6503 150.825 34.9468 149.491 35.787C148.206 36.5283 147.267 37.8133 146.871 39.2959Z" fill="#CB7529"/>
<g opacity="0.6">
<path opacity="0.6" d="M71.3058 41.3716C72.2943 43.9415 72.1954 46.2149 70.9599 48.2906C69.8726 50.2181 68.044 51.5525 65.5235 52.2938C64.3868 52.6397 63.003 52.9363 61.471 53.2822L59.4447 53.6776L57.4184 54.073L51.2407 55.3085L44.717 29.9552L53.1681 27.9784C54.9967 27.583 56.8747 27.3359 58.7528 27.2371C60.8779 27.0888 62.6571 27.2371 64.0409 27.6324C67.5992 28.6209 68.39 31.1908 66.2648 35.3422C66.0177 35.8364 65.7212 36.3306 65.3753 36.726C68.3405 37.1214 70.3174 38.6534 71.3058 41.3716ZM55.9852 38.011C56.8253 37.8627 57.5666 37.4179 58.1103 36.7754C58.308 36.5283 58.5057 36.2812 58.6045 35.9353C58.7033 35.6387 58.7528 35.2928 58.7033 34.9962C58.6539 34.6997 58.5551 34.4032 58.3574 34.1561C58.1597 33.909 57.9126 33.7113 57.6161 33.6124C56.8747 33.2665 55.9357 33.2171 54.7496 33.4642L55.9852 38.011ZM62.0146 47.4999C62.3111 47.2034 62.6076 46.9068 62.7559 46.5115C62.9536 46.1161 62.9536 45.6713 62.8053 45.2759C62.4594 44.4358 61.6686 43.8921 60.4331 43.6944C59.8895 43.5956 59.3458 43.5956 58.8516 43.645C58.4068 43.645 57.962 43.6944 57.4184 43.7439L58.7033 48.4883C58.7033 48.5378 58.9999 48.5378 59.5929 48.4389C59.7906 48.3895 59.9883 48.3895 60.2354 48.3401C60.4331 48.2906 60.5319 48.2906 60.5814 48.2412C61.0262 48.1424 61.471 47.9447 61.8663 47.6482L62.0146 47.4999Z" fill="url(#paint0_linear_396_3060)"/>
<g opacity="0.6">
<path d="M74.4687 50.6628L71.5034 26.2486L81.2889 25.3096L83.2658 49.7238L74.4687 50.6628Z" fill="url(#paint1_linear_396_3060)"/>
<path d="M74.4687 50.6628L71.5034 26.2486L81.2889 25.3096L83.2658 49.7238L74.4687 50.6628Z" fill="url(#paint2_linear_396_3060)"/>
</g>
<g opacity="0.6">
<path d="M109.212 49.1803L86.2311 49.5262V47.5493L94.8305 34.1561L85.2921 34.9963L86.7253 28.4232L85.2427 24.3212L108.619 22.2949V24.2718L101.354 39.9384L109.014 39.4442L109.212 49.1803Z" fill="url(#paint3_linear_396_3060)"/>
<path d="M109.212 49.1803L86.2311 49.5262V47.5493L94.8305 34.1561L85.2921 34.9963L86.7253 28.4232L85.2427 24.3212L108.619 22.2949V24.2718L101.354 39.9384L109.014 39.4442L109.212 49.1803Z" fill="url(#paint4_linear_396_3060)"/>
</g>
<g opacity="0.6">
<path d="M134.664 50.8607L111.832 48.7356V46.7587L121.914 34.5516L112.425 34.2056V24.865L136.789 24.0742V26.0511L127.844 40.8281L135.504 41.1741L134.664 50.8607Z" fill="url(#paint5_linear_396_3060)"/>
<path d="M134.664 50.8607L111.832 48.7356V46.7587L121.914 34.5516L112.425 34.2056V24.865L136.789 24.0742V26.0511L127.844 40.8281L135.504 41.1741L134.664 50.8607Z" fill="url(#paint6_linear_396_3060)"/>
</g>
<g opacity="0.6">
<path d="M149.046 53.7764C147.168 53.4799 145.339 52.788 143.708 51.7501C142.176 50.8111 140.891 49.5756 139.903 48.0929C138.865 46.6103 138.173 44.8805 137.877 43.1014C137.58 41.3222 137.629 39.4936 138.124 37.7144C138.569 35.8364 139.409 34.1066 140.595 32.624C142.374 30.3012 144.697 28.522 147.415 27.4347C150.133 26.3475 153.049 26.0509 155.915 26.4957C157.793 26.7922 159.622 27.4841 161.253 28.522C162.785 29.461 164.07 30.6966 165.108 32.1792C166.096 33.6618 166.788 35.2928 167.085 37.0225C167.431 38.8511 167.332 40.7291 166.887 42.5083C166.442 44.3863 165.602 46.1161 164.416 47.5987C163.279 49.1308 161.846 50.4158 160.215 51.4536C156.904 53.6282 152.95 54.4683 149.046 53.7764ZM146.871 39.2959C146.674 39.9878 146.624 40.7291 146.772 41.421C146.871 42.1129 147.168 42.8048 147.563 43.3979C148.008 43.991 148.502 44.5346 149.145 44.93C149.787 45.3253 150.479 45.5724 151.22 45.6713C152.752 45.9678 154.334 45.6219 155.668 44.7817C156.311 44.3863 156.904 43.8921 157.349 43.2991C157.793 42.706 158.139 42.0141 158.337 41.2728C158.535 40.5809 158.584 39.8395 158.436 39.1476C158.288 38.4557 158.041 37.7638 157.596 37.1708C157.184 36.5529 156.644 36.0303 156.013 35.6382C155.382 35.2461 154.675 34.9935 153.939 34.8974C152.407 34.6503 150.825 34.9468 149.491 35.787C148.206 36.5283 147.267 37.8133 146.871 39.2959Z" fill="url(#paint7_linear_396_3060)"/>
<path d="M149.046 53.7764C147.168 53.4799 145.339 52.788 143.708 51.7501C142.176 50.8111 140.891 49.5756 139.903 48.0929C138.865 46.6103 138.173 44.8805 137.877 43.1014C137.58 41.3222 137.629 39.4936 138.124 37.7144C138.569 35.8364 139.409 34.1066 140.595 32.624C142.374 30.3012 144.697 28.522 147.415 27.4347C150.133 26.3475 153.049 26.0509 155.915 26.4957C157.793 26.7922 159.622 27.4841 161.253 28.522C162.785 29.461 164.07 30.6966 165.108 32.1792C166.096 33.6618 166.788 35.2928 167.085 37.0225C167.431 38.8511 167.332 40.7291 166.887 42.5083C166.442 44.3863 165.602 46.1161 164.416 47.5987C163.279 49.1308 161.846 50.4158 160.215 51.4536C156.904 53.6282 152.95 54.4683 149.046 53.7764ZM146.871 39.2959C146.674 39.9878 146.624 40.7291 146.772 41.421C146.871 42.1129 147.168 42.8048 147.563 43.3979C148.008 43.991 148.502 44.5346 149.145 44.93C149.787 45.3253 150.479 45.5724 151.22 45.6713C152.752 45.9678 154.334 45.6219 155.668 44.7817C156.311 44.3863 156.904 43.8921 157.349 43.2991C157.793 42.706 158.139 42.0141 158.337 41.2728C158.535 40.5809 158.584 39.8395 158.436 39.1476C158.288 38.4557 158.041 37.7638 157.596 37.1708C157.184 36.5529 156.644 36.0303 156.013 35.6382C155.382 35.2461 154.675 34.9935 153.939 34.8974C152.407 34.6503 150.825 34.9468 149.491 35.787C148.206 36.5283 147.267 37.8133 146.871 39.2959Z" fill="url(#paint8_linear_396_3060)"/>
</g>
</g>
<path d="M80.8443 70.2336C79.3122 71.4197 77.3848 71.9634 75.5068 71.7163C74.5677 71.6174 73.6287 71.3209 72.7392 70.8761C71.9484 70.4313 71.2071 69.8382 70.614 69.1463C70.021 68.4544 69.5762 67.6637 69.2796 66.8235C68.9831 65.9339 68.8843 64.9949 68.9831 64.1053C69.082 63.1663 69.3785 62.3262 69.8233 61.486C70.2681 60.6952 70.8611 60.0033 71.6025 59.4597C73.0851 58.2736 75.0125 57.7794 76.8906 57.9771C78.5215 58.1253 80.0535 58.8666 81.2397 60.0033L79.5099 62.8204C79.0157 62.425 78.4226 62.1779 77.7802 62.1285C76.94 62.0296 76.1492 62.2273 75.4573 62.7215C75.1608 62.9192 74.8643 63.2157 74.6666 63.5617C74.4689 63.9076 74.3206 64.2536 74.3206 64.649C74.2712 65.0443 74.3206 65.4397 74.4689 65.7857C74.6172 66.1316 74.8149 66.4776 75.062 66.7741C75.6056 67.3672 76.2975 67.7131 77.0882 67.8614C77.879 67.9602 78.6697 67.812 79.3616 67.4166L80.8443 70.2336ZM85.6382 72.4082L80.9431 70.8267L87.8127 57.2852L95.6708 70.2336L92.1618 72.507L91.0251 70.3324L86.4289 70.2336L85.6382 72.4082ZM89.4436 67.3177L88.3564 65.1926L87.5656 67.2683L89.4436 67.3177ZM102.639 58.323L101.601 61.3871C100.514 60.9918 99.7728 61.0412 99.4762 61.5354C99.0314 62.1285 99.4268 62.8698 100.563 63.71C101.058 64.0559 101.601 64.4019 102.145 64.6984L102.343 64.7972L102.54 64.8961C102.689 64.9949 102.787 65.0443 102.886 65.0938C103.133 65.242 103.282 65.3409 103.381 65.3903C104.072 65.8845 104.616 66.5764 104.814 67.4166C105.011 68.2073 104.962 69.0969 104.616 69.8382C104.32 70.629 103.776 71.2715 103.133 71.7657C102.343 72.3093 101.404 72.6553 100.415 72.7047C99.6739 72.7541 98.9326 72.6553 98.2407 72.507C97.4994 72.3093 96.758 72.1116 96.0167 71.8151L97.7465 68.8004C98.1913 69.1463 98.7349 69.2946 99.2785 69.2946C99.7233 69.2452 99.921 68.9981 99.8222 68.5039C99.7233 68.1579 99.5751 67.8614 99.328 67.6143C98.982 67.3177 98.5866 67.0706 98.1418 66.8729L97.7959 66.6753L97.4499 66.4776C97.1534 66.3293 96.9063 66.181 96.7086 66.0822C95.4731 65.3409 94.6823 64.4019 94.4352 63.3146C94.1881 62.3756 94.3364 61.3871 94.7812 60.4976C95.226 59.6574 95.9179 58.9655 96.8075 58.5701C97.9936 57.9771 99.328 57.7794 100.662 57.8782C101.206 57.9276 101.947 58.0759 102.639 58.323ZM105.604 71.6668L105.456 58.323L110.3 58.4219L109.954 71.6668H105.604ZM111.486 72.161L111.387 59.608L119.245 64.1548L118.899 58.669L124.187 58.3724L124.632 72.0128L116.378 68.2073L116.527 72.161H111.486ZM131.551 72.161C130.612 72.1116 129.673 71.8151 128.783 71.4197C127.992 71.0244 127.301 70.4313 126.708 69.7394C126.114 69.0475 125.719 68.2073 125.472 67.3672C125.225 66.527 125.175 65.588 125.373 64.6984C125.521 63.7594 125.867 62.8698 126.411 62.0296C127.202 60.7941 128.289 59.8057 129.574 59.1632C130.859 58.5207 132.342 58.2242 133.775 58.323C134.714 58.3724 135.653 58.669 136.493 59.1138C137.284 59.5091 137.976 60.1022 138.569 60.7941C139.112 61.486 139.557 62.2767 139.755 63.1169C140.002 64.0065 140.051 64.9455 139.903 65.8351C139.755 66.7741 139.409 67.6637 138.915 68.5039C138.42 69.2946 137.729 70.0359 136.987 70.5796C135.455 71.7657 133.528 72.3093 131.551 72.161ZM129.87 65.0443C129.821 65.3903 129.821 65.7362 129.92 66.1316C130.019 66.4776 130.167 66.8235 130.414 67.0706C130.661 67.3672 130.958 67.6143 131.254 67.7625C131.6 67.9108 131.946 68.0096 132.292 68.0591C133.083 68.1085 133.874 67.9108 134.467 67.4166C134.763 67.2189 135.06 66.9224 135.257 66.5764C135.455 66.2305 135.603 65.8845 135.653 65.5386C135.702 65.1926 135.702 64.7972 135.603 64.4513C135.505 64.1053 135.356 63.7594 135.109 63.5123C134.862 63.2157 134.566 62.9686 134.269 62.8204C133.923 62.6721 133.577 62.5733 133.231 62.5238C132.44 62.4744 131.65 62.6721 131.057 63.1663C130.414 63.6111 130.019 64.303 129.87 65.0443Z" fill="white"/>
<path d="M71.3058 39.3948C72.2943 41.9647 72.1954 44.2381 70.9599 46.3138C69.8726 48.2412 68.044 49.5756 65.5235 50.317C64.3868 50.6629 63.003 50.9594 61.471 51.3054L59.4447 51.7008L57.4184 52.0961L51.2407 53.3317L44.717 27.9784L53.1681 26.0015C54.9967 25.6062 56.8747 25.3591 58.7528 25.2602C60.8779 25.112 62.6571 25.2602 64.0409 25.6556C67.5992 26.644 68.39 29.2139 66.2648 33.3654C66.0177 33.8596 65.7212 34.3538 65.3753 34.7492C68.3406 35.194 70.3174 36.726 71.3058 39.3948ZM55.9852 36.0835C56.8253 35.9353 57.5666 35.4905 58.1103 34.848C58.308 34.6009 58.5057 34.3538 58.6045 34.0078C58.7033 33.7113 58.7528 33.3654 58.7033 33.0688C58.6539 32.7723 58.5551 32.4758 58.3574 32.2287C58.1597 31.9815 57.9126 31.7839 57.6161 31.685C56.8747 31.3391 55.9357 31.2896 54.7496 31.5368L55.9852 36.0835ZM62.0146 45.5231C62.3111 45.2265 62.6076 44.93 62.7559 44.5346C62.9536 44.1393 62.9536 43.6945 62.8053 43.2991C62.4594 42.4589 61.6686 41.9153 60.4331 41.7176C59.8895 41.6188 59.3458 41.6188 58.8516 41.6682C58.4068 41.6682 57.962 41.7176 57.4184 41.767C58.2586 44.93 58.7033 46.4621 58.7033 46.4621C58.7033 46.4621 58.9999 46.5115 59.5929 46.4126C59.7906 46.3632 59.9883 46.3632 60.2354 46.3138C60.3343 46.3138 60.4825 46.2644 60.5814 46.215C61.0262 46.1161 61.471 45.9184 61.8663 45.6219L62.0146 45.5231ZM74.5182 49.1308L71.5035 24.2718L81.1902 23.3822L83.2164 48.1918L74.5182 49.1308ZM109.212 47.2034L86.2312 47.5493L94.8305 32.2287L85.2921 33.0688L84.3037 23.7776L108.619 22.2949L101.354 37.9616L109.015 37.4673L109.212 47.2034ZM134.664 48.8837L111.832 46.7586L122.012 32.4758L112.425 32.2781V22.888L136.789 24.0741L127.844 38.8511L135.504 39.1971L134.664 48.8837ZM149.046 51.7996C147.168 51.5031 145.339 50.8112 143.708 49.7733C142.176 48.8343 140.891 47.5988 139.903 46.1161C138.865 44.6335 138.173 42.9037 137.877 41.1245C137.58 39.3454 137.63 37.5168 138.074 35.7376C138.519 33.8596 139.359 32.1298 140.545 30.6472C141.682 29.1151 143.115 27.8301 144.697 26.7923C148.008 24.6177 152.011 23.827 155.866 24.5189C157.744 24.8154 159.573 25.5073 161.204 26.5452C162.736 27.4842 164.021 28.7691 165.009 30.2024C165.998 31.685 166.689 33.3159 166.986 35.0457C167.332 36.8743 167.233 38.7523 166.788 40.5315C166.344 42.4095 165.503 44.1393 164.317 45.6219C163.181 47.154 161.747 48.4389 160.116 49.4274C156.904 51.7008 152.95 52.4915 149.046 51.7996ZM146.871 37.3685C146.674 38.0604 146.674 38.8017 146.773 39.4936C146.871 40.1855 147.168 40.8774 147.563 41.4705C148.008 42.0635 148.502 42.6072 149.145 43.0026C149.787 43.3979 150.479 43.645 151.221 43.7439C152.753 43.991 154.334 43.6945 155.668 42.8049C156.311 42.4095 156.904 41.9153 157.349 41.3222C157.794 40.7292 158.14 40.0373 158.337 39.2959C158.535 38.604 158.584 37.8627 158.436 37.1708C158.288 36.4789 158.041 35.787 157.596 35.194C157.184 34.5761 156.644 34.0535 156.013 33.6614C155.383 33.2693 154.675 33.0167 153.939 32.9206C152.407 32.6735 150.825 32.97 149.491 33.8101C148.206 34.6009 147.267 35.8859 146.871 37.3685Z" fill="#FFCE07"/>
<path d="M71.3058 39.3951C72.2943 41.965 72.1954 44.2384 70.9599 46.3141C69.8726 48.2415 68.044 49.5759 65.5235 50.3172C64.3868 50.6632 63.003 50.9597 61.471 51.3057L59.4447 51.701L57.4184 52.0964L51.2407 53.3319L44.717 27.9787L53.1681 26.0018C54.9967 25.6064 56.8747 25.3593 58.7528 25.2605C60.8779 25.1122 62.6571 25.2605 64.0409 25.6559C67.5992 26.6443 68.39 29.2142 66.2648 33.3656C66.0177 33.8599 65.7212 34.3541 65.3753 34.7494C68.3405 35.1942 70.3174 36.7263 71.3058 39.3951ZM55.9852 36.0838C56.8253 35.9356 57.5666 35.4908 58.1103 34.8483C58.308 34.6012 58.5057 34.3541 58.6045 34.0081C58.7033 33.7116 58.7528 33.3656 58.7033 33.0691C58.6539 32.7726 58.5551 32.476 58.3574 32.2289C58.1597 31.9818 57.9126 31.7841 57.6161 31.6853C56.8747 31.3394 55.9357 31.2899 54.7496 31.537L55.9852 36.0838ZM62.0146 45.5233C62.3111 45.2268 62.6076 44.9303 62.7559 44.5349C62.9536 44.1395 62.9536 43.6947 62.8053 43.2994C62.4594 42.4592 61.6686 41.9156 60.4331 41.7179C59.8895 41.619 59.3458 41.619 58.8516 41.6685C58.4068 41.6685 57.962 41.7179 57.4184 41.7673C58.2586 44.9303 58.7033 46.4624 58.7033 46.4624C58.7033 46.4624 58.9999 46.5118 59.5929 46.4129C59.7906 46.3635 59.9883 46.3635 60.2354 46.3141C60.3343 46.3141 60.4825 46.2647 60.5814 46.2152C61.0262 46.1164 61.471 45.9187 61.8663 45.6222L62.0146 45.5233Z" fill="url(#paint9_linear_396_3060)"/>
<path d="M74.5181 49.1305L71.5034 24.2714L81.19 23.3818L83.2163 48.1915L74.5181 49.1305Z" fill="url(#paint10_linear_396_3060)"/>
<path d="M74.5181 49.1305L71.5034 24.2714L81.19 23.3818L83.2163 48.1915L74.5181 49.1305Z" fill="url(#paint11_linear_396_3060)"/>
<path d="M109.212 47.2034L86.2312 47.5493L94.8305 32.2287L85.2921 33.0688L84.3037 23.7776L108.619 22.2949L101.354 37.9616L109.014 37.4673L109.212 47.2034Z" fill="url(#paint12_linear_396_3060)"/>
<path d="M109.212 47.2034L86.2312 47.5493L94.8305 32.2287L85.2921 33.0688L84.3037 23.7776L108.619 22.2949L101.354 37.9616L109.014 37.4673L109.212 47.2034Z" fill="url(#paint13_linear_396_3060)"/>
<path d="M134.664 48.8834L111.832 46.7583L122.012 32.4755L112.425 32.2778V22.8877L136.789 24.0738L127.844 38.8509L135.504 39.1968L134.664 48.8834Z" fill="url(#paint14_linear_396_3060)"/>
<path d="M134.664 48.8834L111.832 46.7583L122.012 32.4755L112.425 32.2778V22.8877L136.789 24.0738L127.844 38.8509L135.504 39.1968L134.664 48.8834Z" fill="url(#paint15_linear_396_3060)"/>
<path d="M149.046 51.7995C147.168 51.503 145.339 50.8111 143.708 49.7732C142.176 48.8342 140.891 47.5987 139.903 46.1161C138.865 44.6334 138.173 42.9036 137.877 41.1245C137.58 39.3453 137.629 37.5167 138.074 35.7375C138.519 33.8595 139.359 32.1297 140.545 30.6471C141.682 29.115 143.115 27.8301 144.697 26.7922C148.008 24.6177 152.011 23.8269 155.866 24.5188C157.744 24.8154 159.573 25.5073 161.204 26.5451C162.736 27.4841 164.021 28.7691 165.009 30.2023C165.997 31.685 166.689 33.3159 166.986 35.0456C167.332 36.8742 167.233 38.7522 166.788 40.5314C166.343 42.4094 165.503 44.1392 164.317 45.6218C163.18 47.1539 161.747 48.4389 160.116 49.4273C156.904 51.7007 152.95 52.4914 149.046 51.7995ZM146.871 37.3684C146.674 38.0603 146.674 38.8017 146.772 39.4936C146.871 40.1855 147.168 40.8774 147.563 41.4704C148.008 42.0635 148.502 42.6071 149.145 43.0025C149.787 43.3979 150.479 43.645 151.22 43.7438C152.752 43.9909 154.334 43.6944 155.668 42.8048C156.311 42.4094 156.904 41.9152 157.349 41.3222C157.793 40.7291 158.139 40.0372 158.337 39.2959C158.535 38.604 158.584 37.8626 158.436 37.1707C158.288 36.4788 158.041 35.7869 157.596 35.1939C157.184 34.576 156.644 34.0535 156.013 33.6613C155.382 33.2692 154.675 33.0166 153.939 32.9205C152.407 32.6734 150.825 32.9699 149.491 33.8101C148.206 34.6008 147.267 35.8858 146.871 37.3684Z" fill="url(#paint16_linear_396_3060)"/>
<path d="M149.046 51.7995C147.168 51.503 145.339 50.8111 143.708 49.7732C142.176 48.8342 140.891 47.5987 139.903 46.1161C138.865 44.6334 138.173 42.9036 137.877 41.1245C137.58 39.3453 137.629 37.5167 138.074 35.7375C138.519 33.8595 139.359 32.1297 140.545 30.6471C141.682 29.115 143.115 27.8301 144.697 26.7922C148.008 24.6177 152.011 23.8269 155.866 24.5188C157.744 24.8154 159.573 25.5073 161.204 26.5451C162.736 27.4841 164.021 28.7691 165.009 30.2023C165.997 31.685 166.689 33.3159 166.986 35.0456C167.332 36.8742 167.233 38.7522 166.788 40.5314C166.343 42.4094 165.503 44.1392 164.317 45.6218C163.18 47.1539 161.747 48.4389 160.116 49.4273C156.904 51.7007 152.95 52.4914 149.046 51.7995ZM146.871 37.3684C146.674 38.0603 146.674 38.8017 146.772 39.4936C146.871 40.1855 147.168 40.8774 147.563 41.4704C148.008 42.0635 148.502 42.6071 149.145 43.0025C149.787 43.3979 150.479 43.645 151.22 43.7438C152.752 43.9909 154.334 43.6944 155.668 42.8048C156.311 42.4094 156.904 41.9152 157.349 41.3222C157.793 40.7291 158.139 40.0372 158.337 39.2959C158.535 38.604 158.584 37.8626 158.436 37.1707C158.288 36.4788 158.041 35.7869 157.596 35.1939C157.184 34.576 156.644 34.0535 156.013 33.6613C155.382 33.2692 154.675 33.0166 153.939 32.9205C152.407 32.6734 150.825 32.9699 149.491 33.8101C148.206 34.6008 147.267 35.8858 146.871 37.3684Z" fill="url(#paint17_linear_396_3060)"/>
<path d="M147.316 60.4977L148.502 62.8699C148.502 62.8699 148.502 62.9193 148.552 62.9193H148.601L151.221 63.3147H151.27L151.319 63.3641V63.4135C151.319 63.4135 151.319 63.463 151.27 63.463L149.392 65.2916C149.392 65.2916 149.392 65.341 149.343 65.341V65.3904L149.787 68.0097V68.0592C149.787 68.0592 149.787 68.1086 149.738 68.1086H149.688H149.639L147.316 66.873H147.267H147.217L144.895 68.1086H144.845H144.796L144.746 68.0592V68.0097L145.191 65.3904V65.341C145.191 65.341 145.191 65.2916 145.142 65.2916L143.264 63.463L143.214 63.4135V63.3641C143.214 63.3641 143.214 63.3147 143.264 63.3147H143.313L145.932 62.9193H145.982C145.982 62.9193 146.031 62.9193 146.031 62.8699L147.217 60.4977C147.217 60.4977 147.217 60.4482 147.267 60.4482H147.316C147.217 60.4482 147.267 60.4482 147.316 60.4977ZM60.7297 60.4977L61.9158 62.8699C61.9158 62.8699 61.9158 62.9193 61.9652 62.9193H62.0146L64.634 63.3147C64.634 63.3147 64.6834 63.3147 64.6834 63.3641L64.7328 63.4135V63.463C64.7328 63.463 64.7328 63.5124 64.6834 63.5124L62.8054 65.341C62.8054 65.341 62.8054 65.3904 62.756 65.3904V65.4398L63.2008 68.0592V68.1086C63.2008 68.1086 63.2008 68.158 63.1513 68.158H63.1019H63.0525L60.7297 66.9225H60.6803H60.6308L58.308 68.158H58.2586H58.2092L58.1598 68.1086V68.0592L58.6045 65.4398V65.3904C58.6045 65.3904 58.6045 65.341 58.5551 65.341L56.6771 63.5124C56.6771 63.5124 56.6771 63.463 56.6277 63.463V63.4135C56.6277 63.4135 56.6277 63.3641 56.6771 63.3641H56.7265L59.3459 62.9687H59.3953C59.3953 62.9687 59.4447 62.9687 59.4447 62.9193L60.6308 60.5471C60.6308 60.5471 60.6308 60.4977 60.6803 60.4977H60.7297C60.6803 60.4482 60.6308 60.4482 60.7297 60.4977Z" fill="white"/>
</g>
</g>
</g>
<defs>
<linearGradient id="paint0_linear_396_3060" x1="40.4436" y1="31.4868" x2="76.2559" y2="52.0047" gradientUnits="userSpaceOnUse">
<stop stop-color="white"/>
<stop offset="1"/>
</linearGradient>
<linearGradient id="paint1_linear_396_3060" x1="1023.51" y1="38.0099" x2="1441.17" y2="38.0099" gradientUnits="userSpaceOnUse">
<stop stop-color="white"/>
<stop offset="1"/>
</linearGradient>
<linearGradient id="paint2_linear_396_3060" x1="67.9876" y1="35.2987" x2="87.0776" y2="40.5319" gradientUnits="userSpaceOnUse">
<stop stop-color="white"/>
<stop offset="1"/>
</linearGradient>
<linearGradient id="paint3_linear_396_3060" x1="3018.55" y1="35.9136" x2="4751.84" y2="35.9136" gradientUnits="userSpaceOnUse">
<stop stop-color="white"/>
<stop offset="1"/>
</linearGradient>
<linearGradient id="paint4_linear_396_3060" x1="81.0285" y1="27.3853" x2="113.939" y2="44.4852" gradientUnits="userSpaceOnUse">
<stop stop-color="white"/>
<stop offset="1"/>
</linearGradient>
<linearGradient id="paint5_linear_396_3060" x1="5170.97" y1="37.4774" x2="7052.94" y2="37.4774" gradientUnits="userSpaceOnUse">
<stop stop-color="white"/>
<stop offset="1"/>
</linearGradient>
<linearGradient id="paint6_linear_396_3060" x1="108.269" y1="27.5743" x2="141.677" y2="45.9828" gradientUnits="userSpaceOnUse">
<stop stop-color="white"/>
<stop offset="1"/>
</linearGradient>
<linearGradient id="paint7_linear_396_3060" x1="8447.17" y1="40.1533" x2="11094" y2="40.1533" gradientUnits="userSpaceOnUse">
<stop stop-color="white"/>
<stop offset="1"/>
</linearGradient>
<linearGradient id="paint8_linear_396_3060" x1="134.252" y1="28.6317" x2="171.179" y2="51.9399" gradientUnits="userSpaceOnUse">
<stop stop-color="white"/>
<stop offset="1"/>
</linearGradient>
<linearGradient id="paint9_linear_396_3060" x1="57.7401" y1="27.5635" x2="59.3196" y2="47.3297" gradientUnits="userSpaceOnUse">
<stop stop-color="#F7D047"/>
<stop offset="1" stop-color="#FFA800"/>
</linearGradient>
<linearGradient id="paint10_linear_396_3060" x1="158.145" y1="496.787" x2="419.032" y2="1993.13" gradientUnits="userSpaceOnUse">
<stop stop-color="white"/>
<stop offset="1" stop-color="#FFCE07"/>
</linearGradient>
<linearGradient id="paint11_linear_396_3060" x1="76.538" y1="25.9211" x2="77.9426" y2="43.4939" gradientUnits="userSpaceOnUse">
<stop stop-color="#F7D047"/>
<stop offset="1" stop-color="#FFA800"/>
</linearGradient>
<linearGradient id="paint12_linear_396_3060" x1="134.728" y1="498.414" x2="255.954" y2="2004.43" gradientUnits="userSpaceOnUse">
<stop stop-color="white"/>
<stop offset="1" stop-color="#FFCE07"/>
</linearGradient>
<linearGradient id="paint13_linear_396_3060" x1="96.5672" y1="24.3489" x2="97.99" y2="42.152" gradientUnits="userSpaceOnUse">
<stop stop-color="#F7D047"/>
<stop offset="1" stop-color="#FFA800"/>
</linearGradient>
<linearGradient id="paint14_linear_396_3060" x1="163.767" y1="512.587" x2="291.819" y2="2061.54" gradientUnits="userSpaceOnUse">
<stop stop-color="white"/>
<stop offset="1" stop-color="#FFCE07"/>
</linearGradient>
<linearGradient id="paint15_linear_396_3060" x1="123.495" y1="25.0884" x2="124.955" y2="43.369" gradientUnits="userSpaceOnUse">
<stop stop-color="#F7D047"/>
<stop offset="1" stop-color="#FFA800"/>
</linearGradient>
<linearGradient id="paint16_linear_396_3060" x1="190.362" y1="547.356" x2="313.422" y2="2201.27" gradientUnits="userSpaceOnUse">
<stop stop-color="white"/>
<stop offset="1" stop-color="#FFCE07"/>
</linearGradient>
<linearGradient id="paint17_linear_396_3060" x1="151.556" y1="26.6484" x2="153.114" y2="46.1531" gradientUnits="userSpaceOnUse">
<stop stop-color="#F7D047"/>
<stop offset="1" stop-color="#FFA800"/>
</linearGradient>
<clipPath id="clip0_396_3060">
<rect width="122.59" height="50.41" fill="white" transform="translate(44.7048 22.2949)"/>
</clipPath>
<clipPath id="clip1_396_3060">
<rect width="122.59" height="50.41" fill="white" transform="translate(44.7048 22.2949)"/>
</clipPath>
<clipPath id="clip2_396_3060">
<rect width="122.565" height="50.41" fill="white" transform="translate(44.717 22.2949)"/>
</clipPath>
</defs>
</svg>
